<mxfile host="app.diagrams.net" modified="2023-03-28T10:05:27.609Z" agent="5.0 (Windows)" etag="VJx0ptrSbnzoFsPvw31J" version="20.6.0" type="github">
  <diagram id="D-iter5Bm9HibCbZAcvI" name="Page-1">
    <mxGraphModel dx="1662" dy="1949" grid="1" gridSize="10" guides="1" tooltips="1" connect="1" arrows="1" fold="1" page="1" pageScale="1" pageWidth="827" pageHeight="1169" math="0" shadow="0">
      <root>
        <mxCell id="0" />
        <mxCell id="1" parent="0" />
        <mxCell id="_G8PxZCd2-lCqW2oRsN_-4" value="" style="rounded=1;arcSize=10;dashed=1;strokeColor=#6666FF;fillColor=none;gradientColor=none;dashPattern=8 4;strokeWidth=2;" parent="1" vertex="1">
          <mxGeometry x="1750" y="234" width="160" height="350" as="geometry" />
        </mxCell>
        <mxCell id="tr5lUH_N2LBnqnq8ZZeH-1" value="" style="group" parent="1" vertex="1" connectable="0">
          <mxGeometry x="380" y="80" width="1620" height="549.31" as="geometry" />
        </mxCell>
        <mxCell id="_G8PxZCd2-lCqW2oRsN_-40" value="" style="rounded=1;arcSize=10;dashed=1;strokeColor=#A9C4EB;fillColor=none;gradientColor=none;dashPattern=8 4;strokeWidth=2;" parent="tr5lUH_N2LBnqnq8ZZeH-1" vertex="1">
          <mxGeometry x="-50" y="130" width="940" height="390" as="geometry" />
        </mxCell>
        <mxCell id="tr5lUH_N2LBnqnq8ZZeH-2" value="" style="rounded=1;arcSize=10;dashed=1;strokeColor=#F59D56;fillColor=none;gradientColor=none;dashPattern=8 4;strokeWidth=2;" parent="tr5lUH_N2LBnqnq8ZZeH-1" vertex="1">
          <mxGeometry x="-50" y="-80" width="1600" height="629.31" as="geometry" />
        </mxCell>
        <mxCell id="_G8PxZCd2-lCqW2oRsN_-10" value="D" style="rounded=1;arcSize=10;dashed=1;strokeColor=#67AB9F;fillColor=none;gradientColor=none;dashPattern=8 4;strokeWidth=2;" parent="tr5lUH_N2LBnqnq8ZZeH-1" vertex="1">
          <mxGeometry x="175.09000000000003" y="-61.87" width="320" height="193.36" as="geometry" />
        </mxCell>
        <mxCell id="tr5lUH_N2LBnqnq8ZZeH-3" value="" style="rounded=1;arcSize=10;dashed=1;strokeColor=#6666FF;fillColor=none;gradientColor=none;dashPattern=8 4;strokeWidth=2;" parent="tr5lUH_N2LBnqnq8ZZeH-1" vertex="1">
          <mxGeometry x="1054.4378698224853" y="150.86" width="210.88757396449705" height="350" as="geometry" />
        </mxCell>
        <mxCell id="tr5lUH_N2LBnqnq8ZZeH-6" value="Redshift" style="outlineConnect=0;dashed=0;verticalLabelPosition=bottom;verticalAlign=top;align=center;html=1;shape=mxgraph.aws3.redshift;fillColor=#2E73B8;gradientColor=none;" parent="tr5lUH_N2LBnqnq8ZZeH-1" vertex="1">
          <mxGeometry x="1083.1977097111037" y="319.9951724137931" width="79.26257396449704" height="69.82758620689656" as="geometry" />
        </mxCell>
        <mxCell id="tr5lUH_N2LBnqnq8ZZeH-8" value="" style="rounded=1;arcSize=10;dashed=1;strokeColor=#67AB9F;fillColor=none;gradientColor=none;dashPattern=8 4;strokeWidth=2;" parent="tr5lUH_N2LBnqnq8ZZeH-1" vertex="1">
          <mxGeometry x="31.31360946745562" y="167.58620689655172" width="419.9707622694048" height="316.55172413793105" as="geometry" />
        </mxCell>
        <mxCell id="tr5lUH_N2LBnqnq8ZZeH-9" value="&lt;h1&gt;&lt;font style=&quot;font-size: 24px&quot;&gt;Raw Data&lt;/font&gt;&lt;/h1&gt;&lt;div&gt;&lt;font size=&quot;3&quot;&gt;&lt;br&gt;&lt;/font&gt;&lt;/div&gt;" style="text;html=1;strokeColor=none;fillColor=none;spacing=5;spacingTop=-20;whiteSpace=wrap;overflow=hidden;rounded=0;" parent="tr5lUH_N2LBnqnq8ZZeH-1" vertex="1">
          <mxGeometry x="46.049425687434734" y="186.20689655172413" width="469.70414201183434" height="37.241379310344826" as="geometry" />
        </mxCell>
        <mxCell id="tr5lUH_N2LBnqnq8ZZeH-10" value="&lt;h1&gt;DWH Layer&lt;/h1&gt;" style="text;html=1;strokeColor=none;fillColor=none;spacing=5;spacingTop=-20;whiteSpace=wrap;overflow=hidden;rounded=0;" parent="tr5lUH_N2LBnqnq8ZZeH-1" vertex="1">
          <mxGeometry x="1083.1977097111037" y="180.0037931034483" width="189.72363383223114" height="37.241379310344826" as="geometry" />
        </mxCell>
        <mxCell id="tr5lUH_N2LBnqnq8ZZeH-12" value="Redshift" style="outlineConnect=0;dashed=0;verticalLabelPosition=bottom;verticalAlign=top;align=center;html=1;shape=mxgraph.aws3.redshift;fillColor=#2E73B8;gradientColor=none;" parent="tr5lUH_N2LBnqnq8ZZeH-1" vertex="1">
          <mxGeometry x="313.13609467455626" y="338.0586206896552" width="79.26257396449704" height="69.82758620689656" as="geometry" />
        </mxCell>
        <mxCell id="tr5lUH_N2LBnqnq8ZZeH-13" value="S3" style="sketch=0;points=[[0,0,0],[0.25,0,0],[0.5,0,0],[0.75,0,0],[1,0,0],[0,1,0],[0.25,1,0],[0.5,1,0],[0.75,1,0],[1,1,0],[0,0.25,0],[0,0.5,0],[0,0.75,0],[1,0.25,0],[1,0.5,0],[1,0.75,0]];outlineConnect=0;fontColor=#232F3E;gradientColor=#60A337;gradientDirection=north;fillColor=#277116;strokeColor=#ffffff;dashed=0;verticalLabelPosition=bottom;verticalAlign=top;align=center;html=1;fontSize=12;fontStyle=0;aspect=fixed;shape=mxgraph.aws4.resourceIcon;resIcon=mxgraph.aws4.s3;" parent="tr5lUH_N2LBnqnq8ZZeH-1" vertex="1">
          <mxGeometry x="300.28767838496344" y="0.0017241379310348748" width="69.61273209549071" height="69.61273209549071" as="geometry" />
        </mxCell>
        <mxCell id="tr5lUH_N2LBnqnq8ZZeH-26" value="SQL for transformation and Glue for trigger this task" style="ellipse;shape=cloud;whiteSpace=wrap;html=1;" parent="tr5lUH_N2LBnqnq8ZZeH-1" vertex="1">
          <mxGeometry x="210.88757396449705" y="243.58" width="159.00923076923075" height="94.48" as="geometry" />
        </mxCell>
        <mxCell id="tr5lUH_N2LBnqnq8ZZeH-29" value="" style="rounded=1;arcSize=10;dashed=1;strokeColor=#A9C4EB;fillColor=none;gradientColor=none;dashPattern=8 4;strokeWidth=2;" parent="tr5lUH_N2LBnqnq8ZZeH-1" vertex="1">
          <mxGeometry x="515.7535676992691" y="167.58620689655172" width="349.975635224504" height="325.8620689655172" as="geometry" />
        </mxCell>
        <mxCell id="tr5lUH_N2LBnqnq8ZZeH-30" value="&lt;h1&gt;&lt;font style=&quot;font-size: 24px&quot;&gt;Clean and Transform Data&lt;/font&gt;&lt;/h1&gt;" style="text;html=1;strokeColor=none;fillColor=none;spacing=5;spacingTop=-20;whiteSpace=wrap;overflow=hidden;rounded=0;" parent="tr5lUH_N2LBnqnq8ZZeH-1" vertex="1">
          <mxGeometry x="524.963452836756" y="186.20689655172413" width="394.1830838844414" height="67.03448275862068" as="geometry" />
        </mxCell>
        <mxCell id="tr5lUH_N2LBnqnq8ZZeH-42" style="edgeStyle=orthogonalEdgeStyle;rounded=0;orthogonalLoop=1;jettySize=auto;html=1;entryX=1;entryY=0.5;entryDx=0;entryDy=0;entryPerimeter=0;fontSize=11;exitX=0.5;exitY=0;exitDx=0;exitDy=0;exitPerimeter=0;" parent="tr5lUH_N2LBnqnq8ZZeH-1" source="tr5lUH_N2LBnqnq8ZZeH-20" target="tr5lUH_N2LBnqnq8ZZeH-13" edge="1">
          <mxGeometry relative="1" as="geometry" />
        </mxCell>
        <mxCell id="tr5lUH_N2LBnqnq8ZZeH-20" value="AWS Glue" style="sketch=0;points=[[0,0,0],[0.25,0,0],[0.5,0,0],[0.75,0,0],[1,0,0],[0,1,0],[0.25,1,0],[0.5,1,0],[0.75,1,0],[1,1,0],[0,0.25,0],[0,0.5,0],[0,0.75,0],[1,0.25,0],[1,0.5,0],[1,0.75,0]];outlineConnect=0;fontColor=#232F3E;gradientColor=#945DF2;gradientDirection=north;fillColor=#5A30B5;strokeColor=#ffffff;dashed=0;verticalLabelPosition=bottom;verticalAlign=top;align=center;html=1;fontSize=12;fontStyle=0;aspect=fixed;shape=mxgraph.aws4.resourceIcon;resIcon=mxgraph.aws4.glue;" parent="tr5lUH_N2LBnqnq8ZZeH-1" vertex="1">
          <mxGeometry x="545.2252001392272" y="338.0586206896552" width="69.61273209549071" height="69.61273209549071" as="geometry" />
        </mxCell>
        <mxCell id="tr5lUH_N2LBnqnq8ZZeH-16" value="&lt;div&gt;Extract &amp;amp; Transform&lt;/div&gt;" style="edgeStyle=orthogonalEdgeStyle;rounded=0;orthogonalLoop=1;jettySize=auto;html=1;entryX=0;entryY=0.5;entryDx=0;entryDy=0;entryPerimeter=0;exitX=1;exitY=0.53;exitDx=0;exitDy=0;exitPerimeter=0;" parent="tr5lUH_N2LBnqnq8ZZeH-1" source="tr5lUH_N2LBnqnq8ZZeH-12" target="tr5lUH_N2LBnqnq8ZZeH-20" edge="1">
          <mxGeometry x="-0.0606" y="10" relative="1" as="geometry">
            <mxPoint as="offset" />
          </mxGeometry>
        </mxCell>
        <mxCell id="tr5lUH_N2LBnqnq8ZZeH-21" style="edgeStyle=orthogonalEdgeStyle;rounded=0;orthogonalLoop=1;jettySize=auto;html=1;entryX=0;entryY=0.5;entryDx=0;entryDy=0;entryPerimeter=0;exitX=1;exitY=0.5;exitDx=0;exitDy=0;exitPerimeter=0;startArrow=none;" parent="tr5lUH_N2LBnqnq8ZZeH-1" source="tr5lUH_N2LBnqnq8ZZeH-31" target="tr5lUH_N2LBnqnq8ZZeH-6" edge="1">
          <mxGeometry relative="1" as="geometry">
            <mxPoint x="734.9466123978136" y="372.506896551724" as="sourcePoint" />
          </mxGeometry>
        </mxCell>
        <mxCell id="tr5lUH_N2LBnqnq8ZZeH-40" value="Load" style="edgeLabel;html=1;align=center;verticalAlign=middle;resizable=0;points=[];fontSize=11;" parent="tr5lUH_N2LBnqnq8ZZeH-21" vertex="1" connectable="0">
          <mxGeometry x="0.0196" y="-1" relative="1" as="geometry">
            <mxPoint y="-13" as="offset" />
          </mxGeometry>
        </mxCell>
        <mxCell id="tr5lUH_N2LBnqnq8ZZeH-44" style="edgeStyle=orthogonalEdgeStyle;rounded=0;orthogonalLoop=1;jettySize=auto;html=1;entryX=1;entryY=0.5;entryDx=0;entryDy=0;entryPerimeter=0;fontSize=11;exitX=0.5;exitY=0;exitDx=0;exitDy=0;exitPerimeter=0;" parent="tr5lUH_N2LBnqnq8ZZeH-1" source="tr5lUH_N2LBnqnq8ZZeH-31" target="tr5lUH_N2LBnqnq8ZZeH-13" edge="1">
          <mxGeometry relative="1" as="geometry" />
        </mxCell>
        <mxCell id="tr5lUH_N2LBnqnq8ZZeH-31" value="AWS Glue" style="sketch=0;points=[[0,0,0],[0.25,0,0],[0.5,0,0],[0.75,0,0],[1,0,0],[0,1,0],[0.25,1,0],[0.5,1,0],[0.75,1,0],[1,1,0],[0,0.25,0],[0,0.5,0],[0,0.75,0],[1,0.25,0],[1,0.5,0],[1,0.75,0]];outlineConnect=0;fontColor=#232F3E;gradientColor=#945DF2;gradientDirection=north;fillColor=#5A30B5;strokeColor=#ffffff;dashed=0;verticalLabelPosition=bottom;verticalAlign=top;align=center;html=1;fontSize=12;fontStyle=0;aspect=fixed;shape=mxgraph.aws4.resourceIcon;resIcon=mxgraph.aws4.glue;" parent="tr5lUH_N2LBnqnq8ZZeH-1" vertex="1">
          <mxGeometry x="901.0664044552732" y="256.96862068965515" width="69.61273209549071" height="69.61273209549071" as="geometry" />
        </mxCell>
        <mxCell id="tr5lUH_N2LBnqnq8ZZeH-32" value="" style="edgeStyle=orthogonalEdgeStyle;rounded=0;orthogonalLoop=1;jettySize=auto;html=1;entryX=0;entryY=0.5;entryDx=0;entryDy=0;entryPerimeter=0;exitX=1;exitY=0.5;exitDx=0;exitDy=0;exitPerimeter=0;endArrow=none;startArrow=none;" parent="tr5lUH_N2LBnqnq8ZZeH-1" source="tr5lUH_N2LBnqnq8ZZeH-34" target="tr5lUH_N2LBnqnq8ZZeH-31" edge="1">
          <mxGeometry relative="1" as="geometry">
            <mxPoint x="1022.2972502610512" y="486.09310344827577" as="sourcePoint" />
            <mxPoint x="1639.3595544726768" y="486.09310344827577" as="targetPoint" />
          </mxGeometry>
        </mxCell>
        <mxCell id="tr5lUH_N2LBnqnq8ZZeH-39" value="&lt;font style=&quot;font-size: 11px&quot;&gt;Extract&lt;/font&gt;" style="edgeLabel;html=1;align=center;verticalAlign=middle;resizable=0;points=[];fontSize=20;" parent="tr5lUH_N2LBnqnq8ZZeH-32" vertex="1" connectable="0">
          <mxGeometry x="-0.2947" y="-1" relative="1" as="geometry">
            <mxPoint x="-34" y="-23" as="offset" />
          </mxGeometry>
        </mxCell>
        <mxCell id="tr5lUH_N2LBnqnq8ZZeH-34" value="Redshift" style="outlineConnect=0;dashed=0;verticalLabelPosition=bottom;verticalAlign=top;align=center;html=1;shape=mxgraph.aws3.redshift;fillColor=#2E73B8;gradientColor=none;" parent="tr5lUH_N2LBnqnq8ZZeH-1" vertex="1">
          <mxGeometry x="702.6866063348417" y="339.4551724137931" width="79.26257396449704" height="69.82758620689656" as="geometry" />
        </mxCell>
        <mxCell id="tr5lUH_N2LBnqnq8ZZeH-35" value="" style="edgeStyle=orthogonalEdgeStyle;rounded=0;orthogonalLoop=1;jettySize=auto;html=1;entryX=0;entryY=0.5;entryDx=0;entryDy=0;entryPerimeter=0;exitX=1;exitY=0.5;exitDx=0;exitDy=0;exitPerimeter=0;endArrow=none;" parent="tr5lUH_N2LBnqnq8ZZeH-1" source="tr5lUH_N2LBnqnq8ZZeH-20" target="tr5lUH_N2LBnqnq8ZZeH-34" edge="1">
          <mxGeometry relative="1" as="geometry">
            <mxPoint x="957.8280542986425" y="486.09310344827577" as="sourcePoint" />
            <mxPoint x="1363.0630003480683" y="486.09310344827577" as="targetPoint" />
          </mxGeometry>
        </mxCell>
        <mxCell id="tr5lUH_N2LBnqnq8ZZeH-36" value="Load" style="edgeLabel;html=1;align=center;verticalAlign=middle;resizable=0;points=[];" parent="tr5lUH_N2LBnqnq8ZZeH-35" vertex="1" connectable="0">
          <mxGeometry x="-0.1458" relative="1" as="geometry">
            <mxPoint y="-10" as="offset" />
          </mxGeometry>
        </mxCell>
        <mxCell id="tr5lUH_N2LBnqnq8ZZeH-7" value="QuickSight" style="sketch=0;points=[[0,0,0],[0.25,0,0],[0.5,0,0],[0.75,0,0],[1,0,0],[0,1,0],[0.25,1,0],[0.5,1,0],[0.75,1,0],[1,1,0],[0,0.25,0],[0,0.5,0],[0,0.75,0],[1,0.25,0],[1,0.5,0],[1,0.75,0]];outlineConnect=0;fontColor=#232F3E;gradientColor=#945DF2;gradientDirection=north;fillColor=#5A30B5;strokeColor=#ffffff;dashed=0;verticalLabelPosition=bottom;verticalAlign=top;align=center;html=1;fontSize=12;fontStyle=0;aspect=fixed;shape=mxgraph.aws4.resourceIcon;resIcon=mxgraph.aws4.quicksight;" parent="tr5lUH_N2LBnqnq8ZZeH-1" vertex="1">
          <mxGeometry x="1400.0018343195266" y="300" width="74.76923076923077" height="74.76923076923077" as="geometry" />
        </mxCell>
        <mxCell id="tr5lUH_N2LBnqnq8ZZeH-5" style="edgeStyle=orthogonalEdgeStyle;rounded=0;orthogonalLoop=1;jettySize=auto;html=1;entryX=0;entryY=0.5;entryDx=0;entryDy=0;entryPerimeter=0;" parent="tr5lUH_N2LBnqnq8ZZeH-1" source="tr5lUH_N2LBnqnq8ZZeH-6" target="tr5lUH_N2LBnqnq8ZZeH-7" edge="1">
          <mxGeometry relative="1" as="geometry" />
        </mxCell>
        <mxCell id="tr5lUH_N2LBnqnq8ZZeH-41" value="Query" style="edgeLabel;html=1;align=center;verticalAlign=middle;resizable=0;points=[];fontSize=11;" parent="tr5lUH_N2LBnqnq8ZZeH-5" vertex="1" connectable="0">
          <mxGeometry x="-0.2562" y="-1" relative="1" as="geometry">
            <mxPoint y="-13" as="offset" />
          </mxGeometry>
        </mxCell>
        <mxCell id="_G8PxZCd2-lCqW2oRsN_-39" value="&lt;h1&gt;Data Lake&lt;br&gt;&lt;/h1&gt;" style="text;html=1;strokeColor=none;fillColor=none;spacing=5;spacingTop=-20;whiteSpace=wrap;overflow=hidden;rounded=0;" parent="tr5lUH_N2LBnqnq8ZZeH-1" vertex="1">
          <mxGeometry x="249.00254901960807" y="-49.99620689655171" width="197.921568627451" height="37.241379310344826" as="geometry" />
        </mxCell>
        <mxCell id="_G8PxZCd2-lCqW2oRsN_-41" value="&lt;h1&gt;&lt;font style=&quot;font-size: 24px&quot;&gt;Staging layer&lt;br&gt;&lt;/font&gt;&lt;/h1&gt;&lt;div&gt;&lt;font size=&quot;3&quot;&gt;&lt;br&gt;&lt;/font&gt;&lt;/div&gt;" style="text;html=1;strokeColor=none;fillColor=none;spacing=5;spacingTop=-20;whiteSpace=wrap;overflow=hidden;rounded=0;" parent="tr5lUH_N2LBnqnq8ZZeH-1" vertex="1">
          <mxGeometry x="-22.78057431256525" y="129.99689655172415" width="469.70414201183434" height="37.241379310344826" as="geometry" />
        </mxCell>
        <mxCell id="tr5lUH_N2LBnqnq8ZZeH-14" value="Extract" style="edgeStyle=orthogonalEdgeStyle;rounded=0;orthogonalLoop=1;jettySize=auto;html=1;entryX=0;entryY=0.5;entryDx=0;entryDy=0;entryPerimeter=0;" parent="1" source="tr5lUH_N2LBnqnq8ZZeH-15" target="tr5lUH_N2LBnqnq8ZZeH-19" edge="1">
          <mxGeometry relative="1" as="geometry" />
        </mxCell>
        <mxCell id="tr5lUH_N2LBnqnq8ZZeH-15" value="" style="shape=image;verticalLabelPosition=bottom;labelBackgroundColor=default;verticalAlign=top;aspect=fixed;imageAspect=0;image=data:image/png,iVBORw0KGgoAAAANSUhEUgAAAnYAAAIECAYAAACUvmMzAAAgAElEQVR4nOy9eXgd9X3v//p+Z+aco6PVsizLsiTLK0YGAzYJKSRgEpYsLVxukqeBQps0aUiarX2aPF3ofZLnyU1/TZvbJDe3IbQNCUkhDRASQggpODZrMAaMkRe8yLKRZdmWZVnr0TlnZr7f3x+znEW7LWPZnhfPYElnzpzvLGe+7/msQmutiYiIiIiIiIiIOOuRZ3oAERERERERERERM0Mk7CIiIiIiIiIizhEiYRcRERERERERcY4QCbuIiIiIiIiIiHOESNhFRERERERERJwjmGd6ABERERERo3Ech2w2SyaTIZvNopTCdd3wbyMjI6TTaTKZDOl0Gtu2kVJiGAaxWAzTNLEsi1gsFv7NsixM0yQWi1FSUkIikSAej2Oa0VQQEXGuEH2bIyIiIs4A6XSagYEBenp66Onpoa+vj97eXnp7ezl27Bjd3d309vbS3d3NwMAAqVSKbDaL4zgopXAcJ/w5+F1KiZSeIyb4eawlkUhQU1NDXV0dtbW11NbWMm/ePGpqaqiurqampib8OZlMkkgkzvDRioiImCoiqmMXERERcfpwHIcjR45w5MgRurq66OjoYN++fbS1tdHZ2cnAwABDQ0OkUimGhoYAEEK8JWMrvv1LKSkrKytYGhoaaGlpYdWqVSxbtozm5mbq6urekvFFRERMn0jYRURERMwQ2WyW7u5uOjo62L59O6+99hoHDhzgyJEjdHd309PTQzabndK2Tre4O5lbf21tLU1NTTQ1NbFy5UouueQSWlpaQqtfRETEmScSdhEREWcU13XJZDJkMhlc1y1wNSql6O/vp7+/H9M0SSaTlJWVhf8mEokCF+NbjVKKtrY2Nm3axOuvv86ePXvYtWsXnZ2dpNPpt3w8bzVSSioqKliyZAkrVqzgsssuY926dVx66aXEYrEzPbyIiPOSSNhFnFcEcU19fX0MDQ2RTqfDIPX8f4N4JdM0Ry2xWIyKigqqqqqoqKigoqLiTO/WrCaVSnHgwAG6urro6emhu7ubQ4cO0dXVRWdnJ0eOHKGvry8UckAYNxYsAaZpjjovgcuwurqahoYG6uvraWxspLa2lurqaqqrq2fUotTV1UVraysvvvgi69evZ/v27QwMDMzIts8FkskkS5Ys4brrruOaa65hzZo1NDU1nelhRUScN0TCLuKcIZvN0tfXFwakt7W1sXfv3lBQ9Pb2MjQ0xNDQUBiMHgi7fPEwEVJKYrEYyWSSioqKUFRUVVVRW1tLTU0N8+fPD3+uqakJLUxVVVVUVVWdEcvSW0V3dzfd3d0cOHCArVu38tprr9He3k5nZyfHjx8f8z1CCJRSGIYBEJ6Lmbg1maYZHvfa2lpWrFjBxRdfTEtLCw0NDWGiwETWpe7ubtrb29m0aRMbN25k+/bttLe3n/LYzheampq4/PLL+fCHP8yVV14ZibyIiNNMJOwizkoCEdfe3k5rayu7d++mo6MjXI4cOXKmhxhSVlZGTU1NGJvU3NzM4sWLWbZsGU1NTaFAPBtdV0NDQ3R0dLBp0yZeeOEFWltb2bVrF8PDw5O+V2s9YRzZ6b41VVRU0NzczLJly0I34qWXXkp9fT1KKbZs2cLjjz/O008/zdatW3Ec57SO53wgsOTdeOONXHnllVESRkTEaSASdhFnBdlsls7OTnbu3MmuXbt4/fXXaW1tpbOzk97e3jM9vGkTZB9WVFTQ1NTEkiVLaG5uZtGiRdTX19PQ0BCKvtlm4Tty5Ahbt27llVde4YUXXmDr1q10d3ejlJo04L/4dnMmhV0xsViM2tpaWlpayGazbNmyJXKxniYSiQQrV67k/e9/PzfffHMUkxcRMYNEwi5i1uI4Drt27WLz5s389re/ZcuWLXR0dJBKpc700E4rFRUVVFdXU19fz+rVq7nssstYsWIFS5YsoaGh4YwIvXQ6zSuvvMJjjz3Gk08+SVtbW1iaI5+zWdidLME+nC3jnUmEEKe833V1daxbt44//MM/ZN26dVRVVc3Q6CIizk8iYRcxq8hms+zatYtnn32WjRs3snXrVg4cODDlGLhzlaqqKpqbm1myZAktLS2sXbs2LDNxOifCjo4OnnzySR599FE2bdpET0/PhOufj8JOSonW+qwZ70wyE8IuIJlMcvnll3PLLbfwoQ99iIaGhhnZbkTE+UYk7CJmBX19ffzqV7/ioYceYtOmTXR3d5/pIc1qYrEY1dXVrFy5MhR673znO1myZMmMtIfavHkz999/P08++SR79uyZsrCe6dprs/32JIRASolSqmCshmHguu6odWHifQpaf82bNy/M6i0tLWXu3LlhC7BYLEYikcCyLAzDCD87yCDWWoflX4JM75GREbTWDA4OcujQIfbv38+JEycYGRkpKC0TlGjJtwoXn/tgf0+noF29ejV33HEHt99+exSHFxExTSJhF3FGOXDgAA8//DD3338/ra2t571l7lSoqamhpaWFdevWcdVVV7FmzRpqamqmtY3t27fzne98hwcffJC+vr5pj+F8E3bgCR0hRCjkhBBYlhUWIs63akkpqa6upq6ujgULFtDU1ERdXR0LFy6kurqauXPnUl9fz/z58wEvq9cwDOLxOFJIhBThdsYi+JyxzoPWOhR5Q0NDKKUYHh4Os347Ozs5evQotm0zNDREe3s7u3btoq+vL/w8rTWxWIxMJhMKu/zPnWlaWlr4+Mc/zu233x4VQI6ImCKRsIs4I2zevJn77ruPX/7yl3R2dp7p4ZyTrFixgpaWFm688Ube8Y53sGTJknFr7rW2tnLPPffwX//1X6eUjHI+CruxsCyLOXPmUFtbS3NzM6tXr2bZsmUsWbKEefPmUV9fT2VlZcHxCrKEJxJn+eQ/BBWvm7+dwIJXTH5Wcv7PSqmwbI1pmrS1tbF58+YwWenQoUMcP368IFnmdLuiV6xYwec+9zk++tGPUlZWdto+JyLiXCASdhFvKdu3b+fb3/42DzzwwDmfBDGbSCQSXH755Vx99dW85z3vYc2aNVRVVbFnzx7uvvtuHnjggRlxf58OYSeECBcotFa5rjsr4tsqKyupqanhktWXsPqS1bS0tHDxxRfT3NxMLBab0MI2nnWtWDRp5Qs+KaaVQFN8fLTSKK2wLKvgs4rHErwv+Jvruhw8eJCdO3cyMDBAW1sbL730Env27KGnp4e+vr7Tfh6uvvpqvvSlL/He9753RkIOIiLORSJhF/GW0N7ezn333ce9997LoUOHwr/P1OUXTPzFrlzDMML4o+J184VC8HPQWSKIZSqePGzbJpvNkk6nyWazaK1xXRfbtgvWy594pyI8it15p5OysjJWrlzJpZdeyvPPP8+uXbtOajvFx9yyrPA4jGV50lpTWlqKbdtorUkkElRXV7NgwQLq6+upqKigpKQkjCkLfs+n2OJ4/PhxRkZGGB4eJp1Ok8lkGBoaoq+vj8HBQQ4cOEAqlaK/v5/h4WFc1w3HbNv2mHFiQQxZ8X7kv15aWsqFF17IihUrWLNmDddccw0NDQ2Ul5eHHTHy9z2gONBgUnlWfNmI6YUquBSJRj2x8C7WmKJo34uPRU9PD4ODg2zbto1t27bx3HPPsWPHjoKeuDMdi5dMJvnQhz7EZz7zGd7+9rfPyDYjIs4lImEXcVrp6enhwQcf5J577mHbtm2jXp/pyy9fsAWTcyKRoLGxkcrKyrADRH19PdXV1SxcuJDy8nKqq6spKytDSollWcRiMQzDGCXsAkFg2zaO4zA4OEh/fz/d3d2cOHGCgwcPhp0vgi4Xw8PD9Pf3MzIyQiaTGXfshmEUBOKfTfGG+RafQDgFAfyVlZUsXbqUmpoalixZwkUXXcTixYspKSmhurqayspK5s2bRzweL9hmgZWpWGD41ivDNEa9R7kKx/WSAY4dO8bw8DB9fX0MDw/Tc6yHPXv3sHv3bnp6ejh+/DgdHR0cO3Ys3IaUMkxKME0zTCxYunQpK1euDIVcfX09K1euDD83X8iOZ7l8q4WdHkvIjSPulJhc2BVu27MiGqYRnu/9+/dz+PBhtm/fzvr163n11VfDLh0zmUELUF9fzyc+8Qk+85nPRPF3ERF5RMIu4rSxYcMGvva1r/H000+Pe0M/1csvmECFEMyZM4e6ujqEEKxatYpVq1ZRV1fHnDlzaG5upqamhoULFyKFHCUIXMfFcZ1wW4Y0kIYcd4KeaCJ3HZfh1DDZbJZjx46RSqUYGBhgeHiYtrY2Dh8+TNveNroOd9He3k46nQ6D2S3LwnXds0bUxePx0HIJnjWlqamJlStXsmLFCpYvX05DQwOrVq1i3rx5JBIJT7gqPe7xHcsNmX+eJyKbzYb9ZMciECDg9bAdHh5m7969tLe3k0qlaG9vZ8eOHezevZvh4WGSySQ33ngj69atY/ny5axYsSIUrEqpAjGazWYnLbI72VnNs/MW/Tt6jTFfLmYa3y8tRh/fyb6ftm2P2mfXcXGVS19fH2+88Qa7du3i17/+NZs3bz4tHWHWrVvHl7/8ZdatWzfj246IOBuJhF3EjJNOp/nWt77FN7/5zQJLyFic7OVnmibJZJIFCxbw9re/nZaWFhYtWsTq1aupqqpi7ty5GIYRxhHZto3ruiQSiSltf6oB7BO9f6z4qcBqkclkyGaztLW10dXVxd69e70yFO37ad/fTltbG47jhOUnToZTtZBMpTxH0Dd38eLFXHHFFVx11VUsXryY5cuXh1aUsWK3lKsKhF1wvMZyYee/dyKhrVxPNhULxmLLX2BlAk+E5MesZTIZXNelp6eHI0eOsHDhQubOnRuKl+IyIPnbyheN4zFdYaeKlJucrrAr+EBNsWe24NVpCrtiy3ggdtPpNMlkMlwv6BrT1dXFxo0befjhh2ltbZ1k4NOjurqaL3zhC3z2s5+lurp6RrcdEXG2EQm7iBmlvb2dv/qrv+LRRx+d0vpjXX75YqyYJUuW8O53v5vVq1ezdOlSVqxYQVVVFTU1NWMKqekUxD0TFMceDQ8Po5Siq8uz5r3wwgts376d1157LSxFEWAYvjg5TXF548UtgjeJX3HFFdx8882sWrWKCy64gLq6OsrKymbdMZ6tKGBkJINpGpiWgYEgnU5hmAaWGSOnwjS27RQ8mGQdF2W7o6xloewrPgWT+Hy1AqW862gsS+pUBN54iSD59PT00NXVxc6dO/nxj3/Mk08+GSbAjFc+ZTrX0zXXXMNXv/pV3vnOd075PRER5xqRsIuYMR588EH+9m//lv3790/5PcU38MDKFPzdsiwWLlzIunXrePe7382ll15KVVUVjY2N095+8BmznaCMhBDCC/AXkmM9x3jzzTdpbW3lqaee4o033uDNN99kcHBwVHD6TMcy5ScT1NbW8gd/8AfcfPPNXHTRRSxYsKDAMhpwshPzuY7tBvXsBELk9JbKW6BQlwm89Vwgi2ekC94n/ddF8F6dC8MTEqTw1ncdbyXLAMPfxrhXSF7iyHiu8rGYznkeHh5mcHCQjo6OsMxOUEQ52NZUhOJYVFZW8uUvf5nPf/7zs67PckTEW0Ek7CJOmYGBAb761a/yrW99a9rWo/Euv6qqKq688ko+/elP09zczIoVK0ZZJ4pdX1MRNmeDyHAdt6AcxVjYts2OHTt47bXXeP3113nyySfZt28f2Ww2TMIYy+J5Krz//e/ny1/+MpdddhmGIdBaYRi5cxK4NWHsumrnB5oJ/Z0+bt7lGQg8BQwCIzZkMpDNwvHjg9hZh5F0mhEnSwbFiO2EWdkjI2mkBpAIDXPLqxB52y5JlhCPxylNJknGBXXVJcRjEI9bxGIQ878+Cm8MFr7wm0Js48lMHfnudtu2sSyLwcFBDh48yDe+8Q1+9rOfhfGmueNzctfOxz72Mb72ta9FnSsizjsiYRdxShw5coQvfelL3H///VN+T3Hx1HyWL1/OzTffzM0338zKlSvDzgn5Ik67fmFUOX7NLfCy/EZ9dtGkO1uf57XyLC7h78X7plSBiB4YGKC1tZUXX3yRbdu28fzzz3P48OEZcdPG43He/va38zd/8ze8733vC8eRyYxgGQbS9MSdk8mGQk9I0GKaVruxNNFU7k7TmvenkpRyKldF4U6ovH81kFUwPAJDQ2nS6TRHjx6hf2iQ3uO99A6m6TiWYiDtMjg4yMhICtfRKK3RWuBqzUAmhSOCunYiT3gZSA2mAqkL499M0yIWs4hbGukOUV1ZQk3NXCorqygvL/OzwudSWV7K4roaqipKqCwtPPTBETEYfbhzmbOT5/wKIXAd75rMj3M0TIO+vj727dvHv/7rv4YC71Snp6uuuopvfvObXH755ae0nYiIs4lI2EWcNB0dHXzhC1+YcjwdUBBLY5pmWFds1apV3HHHHdx4440sWrSIkpKS0PLk4U8ao3xI0ptpdF4eocytGrzPm1i1J5iEwBJyTD2g/PXHfrVgTwCwM5mwX6iURl4A+jTEQTDwKQiU4qlzrHIUylXsa9/HK6+8wqZNm3j11VfZuXNnQYuwfPdquK0x6tJdc801/Mmf/Am///u/T2lpKaYpi0puqJyFSJug8rKNJeFhCI5/UGrDKNpX5WRRwYQvJSK/zIzSntLNI7TOSssT+HL0wQusUAovOVQpDSKDJb04NYc0ZoFTc4yB522reK2xyQk7B+jsHqD7+CDHBwd5s7Ob3mE4ePg4x3t6GE6lGBgYwlFeFrRCoqSFkIVlXwIrqAZ0wX7mj8Z3n6oJYuFQCOn6Fr7RSA3lyQR182pY3NxAXU0ly5c1Ul1Rwvx5JVQHxlkFQoMX4qlBaaTvSBbkxdz5x1EJRpVYKT7/+Rw/fpxt27bxz//8zwUxePmhGtNh4cKFfP3rX+e2226b1vsiIs5WImEXcVLs2bOHO++8k2eeeWba782vdN/U1MTtt9/OH//xH7No0aIwODyILSsoSzJeYJDIe13mJuFA2AXWEuH/l7+p4OqXItSHBZucaCIXFH50fuzT1IXA9JjMJpKfXRpYQk6cOMGzzz7Lyy+/zNNPP82uXbs4ceJEuF4g5ILSJUopWlpa+OIXv8gtt9xCMpkM3eDe7SII4spFhgkAZYLKcx8LwMhZq8CLEwtegsJzIPL/mPd3rUdX7Qj0S6kFNp4lTGlPMEiZ227wPkN61iYjPGYKhULjFlhxJeYYR3U65ISdDWzd3cHj/72BLa07OdY/gkjWkXFN0BItQAmZ+1lrDGmBIZH51tn84snjWj6Lroxx6t2pcfZNau9ztKMQWmEIFyGyxA1FbXUZDQvnUVtdyfKGepoXLmRR43zKyyDmf7LpL+B4Ah5A+6IO6f9FhA8Bcswvcs6a77ou3d3dbNy4kW984xts3bo1fP1kKC0t5a//+q/54he/OOXM+IiIs5VI2EVMm9bWVj7+8Y/z6quvTvu9weVWVlbGHXfcwcc//nGam5uZO3duuM7IyAhSSmKx2Ogb+VSvVpGz1XlSRKExURQKskB0KO3FPaWyecJQ55ZgGMX/JhKhfsEElAOm9F4P1/VfG6dQhy+NAkuhFw5/stJCaz1mbbHgtaGhIVpbW1m/fj0bNmxg06ZNYQFeKSVlZWV88pOf5M/+7M9Yvnx5QUxUvtFMCUC4eEfLwZMMJkLFCQxzCt8lSy4xILCg4f97IuO5JvsG0wyl0hw/foKhVJqBgQFGUiMMDQ+FYy/YF1/ZJUoSSNPCMi0sUzOnPElpSYLKykpKSkqpnjOHRAKSpVBmQBLfeqe986TDkTl4dlq/rEmgz8a73kadzNFmVwcv2eHQsTS79uzlhZe38cqODnr7M0jTIlaSxFHgKHCVRkuBlBZGcLz9fX4rhF24F0ESjnIQ2iURN1COjWtnULZLebyc8rIkzQ3zWdw4n4tXNtPcOI+GujjaxnP35o1lssCHfOuhchVKe0Whg+99X18fAwMD3HvvvXz729+mv79/wvFPhGEYfOpTn+KrX/0qVVVVJ72diIjZTiTsIqZFa2srt956K2+88cZJvV9rzdVXX83XvvY1Fi9eTG1tbUF5k+CmHlibRm9g8s9QwrMMabzJVeP9roCOo2mGBkY43tvLwMAAJ3p7GUmnGRocJJXJ0t07gEb6cU2qIBYw14rMm6CkEDQ2NpIoSVBeVk5pwmThvCqS8Rhl5eWUJBJUVJSQiEOJ5U1rOYtR3nhD6UMo6+R44m5qsfmjj0lRoolSioGBAV5//XV+/vOf8+KLL5JIJPj7v/97rrvuuvHrxflzthJeDJ0qEHYSoQuFXXAuguN/8Bgc7T7BgY6DHOnuYf+bBxnJ2qSGRxjJ2AxnHFw0rqPD+EAhRSjkwnEE58N3TSpXIbRLMmZgSkLXeElJgtLSMqqr51BRmuCCpgYWVFfQ2LSAeMKgdm7O5ZufPIB/mOUo33fu38K4x9HCLl8yCqBnBF7bfpAnNzzPlm07yLoCYqU4xFDSQotcmZFA8Kii2/PpFnZIgdIaoXz3J37BbgTKBVwLQwgMnQUnRWXSoKYqyUWrlnP5ZRdywYqFzCmT4bXuXe8agfKsgqLw84vdwoG1Lr/4s23bHD9+nKNHj/IXf/EXJ+UlyN/+7bffzje/+c0wfjci4lwjEnYRU+bAgQPceuutvPTSS1N+T/7kZxgGn//85/m7v/s7ksnkqD6gk2+MnLDJ93vmoYCUhr4U7O/qY/+hbto6DrGvsxNXC3qP9TGSyjCSHkGK0fW6iieeychNTJ47UjtZrJhJsqQEKxYjblokSxNUlVdQWpJgaXMDixoX0FA3l2RCMKc8J/gCd1YwgnBkrm9isoodvfmWrPG7ZOQzVhmSoFOG1jrskVu8TrGgDgSb49tCBYIYEheIAwM2uAZ09UB71wm2bt/D/kNHOHT0GKl0lnRqBCE1Uvs+VKHQSuDKeME5mEqR5IJx5gnkgtf9t2eGhilLllBRmaQkaVBRmaChsY6WC1bQXD+fRXMSVCQgLkG5kBjj2QLt1Q7ML2w8HoGgDUfvW4VffHUXD/5qPW1dvaRlkmFbUlJajgS04wkbV6nQejc5MyTshCpaz3+I0SC1RGIglUSiEDgI5YYueSGy1MxLcvllLbzr7WtYtayKMgBXU5IXVJdf0LiYicoTDQ4OMjQ0xL333ss//MM/jFkeZdTujFOP773vfS933303zc3NEx+PiIizkEjYRUyJ3t5ePvaxj/HYY49Naf3iyv/Lly/nnnvu4bLLLqO8vDwsdTDlOlPjJBjYeKLoeAr27j/Ktt0ddB4+xhvt7RztGyCVdcli4EqJxpuYDGkgxOgZW5zEN8Fz2RUKLa2dcAKR+HX5XAWuQzwmyKb6KSs1qaudQ2P9XGrmlrNwwTxqquewtGkxcyrKKfddvAlyIsV1NGjHq4FmyKKJzFtrMnE31tc9tEoqPapcyZjCTuQsURk8d2MwAgvoOJJix+79bN76Bvs6uukZyNA3lEFaCbRpoaVnAdKu47ntlIsklzygT0XY6THcfXk/KyXAdXCVjdJZEFlipiQWM0kaggsaF1A/dw4XrVzOiiWLWNwUx6JQcAcPF1PpTqIK34LKpnEUYCXoy8Izr+zhF08+y64DXWAkcbWJECaWaSKkRCs1hfZyY7x+ksIucKMG6xU86GiJIYSXdatzgi/ctnAYSfeDk6JubgXLm+Zz5dqLWfeOS5lfAXYWymLeg8RE7eRG7UrRegMDA3R1dfGxj32MTZs2Ad5D41gZ4BMVWl6zZg0//vGPaWlpmeiQREScdUTCLmJS0uk0f/VXf8Xdd9897feapslNN93EN77xDRoaGjBNc0qtlybCBQbSXr2vHfuO0rqrja3bd3Ho2AAnBrJgxjFNiZYCrT2XUq70ifQn//GDyKdPbhItSyZxXZtsNovjOl7PWSkxTBNDaNLpFFIrXGXjqgxau5gSDFNgCoPy0lLmVJazdHEzSxc10Nwwn9rqChbWJojLQqEXMJViwGHh22lYNUa9pgHh+NszQxejDRwe0rR1dPGbZ19h+652TpzoJzViU1FWw0g6izBMSpPlZJyM14orfxw6EBGjxxK4HotdksVIPxM5OM/F51Fob7+C4s9eHKRvKdQaw1eumUwG184QNwXlJRaXrFzG8kWNXLL6Qppqy2msnuZ1Gz6Q5EoPu5kRXCOOaRr0u9Dd5/LUM7/jiY2b6B6U2CKBaRgIKVF+Ruj4jCP6TkLYSQ2G9o+VULjSOydKqDCpVfiOaqklhvJq58l8MS0USmXRro0hFMoepql+Pje+51p+b82FrKiDmH8OwrcUPQROxfKslKK/v59/+Id/GFU/c6LvQ/GxbGlp4aGHHorEXcQ5RSTsIiblH//xH7nrrrumXWbAMAz+8i//krvuuovKykps28aQFq5ysSwD5YI0CqcmpR2kKHQDBRFoGhjOwq7242ze0srOtjdp6zjK4eMDJMoqUNJCiSSuFl5Wn9QIrUAoz+WHLHIxjY52Ozlh5yGEwDByIqKgwKu/YeUqlPCsMNlsltLSJG5e14jMSJqYJZHaQass8yqTlJfEaGpcwAXNjSxuWsCCmjnU11ZhiFwnAdOv+hLMY3nRdMGeeeOYxMqUO8dB9wFJsR9WIXHwBN3+I2k2v76D373yGvsP9dBvG4zYCkNaCC0xhOlZKwFDCEChtDcJaxGUwpChcCguMzM9YZezMOW7yCEvNC6IYRN+hqbw+r0qpXCUBiuGZVloO002NUhMKizlUJIwuXBpAxctW8iFKxZz8aplVMYJk3Fk3r+FBGV6gn9dby1hgfCOYdr1qsS07jnG/b/YyM59XYzYiqzjYpgl4VaV1hh5ZmWdL96KLZUnKezMYJihoFMF4k5LI3TLCiUx8oWdlmSzWZLlSdLpFEJqnGya0kQJQ8ODLK2by7vXLuVdb7uYlgvmo1Xuug0ylb3vjJF/5EIC8WYZhn8vMbAdm0ceeYTPfvaz9Pb2jrlf4/UNDlizZg33338/K1euHPfYREScTaSPA0AAACAASURBVETCLmJC/vM//5PPfOYzDAwMAFN39cViMb7yla/w2c9+ltLSUr/8hsYwR78/z5GJrTNhQ/ekVYqNZ6E73A879hxi/XOvsf9QN51dh3G1wEqU+PWyvEmroCixCIRarvhI4cQ2fauhnIK/dqIjpJUuHKMUheMKxiwcDKUQ2sbQDsLfh6zjUjevluWLGlk4r4rLV6+gvqaKhfMsSk3IaEgIbwyum8UwJJl0mniiFEdpjEDgjbPrgfwF5YkQYYDWuI6DYXkxkcNAxxGbjS+8wsYXt9A9mKF3MIU2YphWvEhk5H6WWoUCF0aVNhvTjXo6GfXxo15Xnrs4dLcr0A7lyRJWLm3islUruOLSi1g4T2Bor/SKm3UpiRe7+f30HY2vvAMZWJhY4gKDLqx/vpVfPPEc+w/14IgEieQctJBk0yNYwkVo5QsvwlpxuY/KXUdjMoG1GgrDEfKFY3jNBn/TMhTP4XH0Pzv/fSLv221ohR5O0Ti/misuv5hrrryUVctLMTWUCLCdESwzTpC3HhwTCo4YaHTus4VgaGiIbdu28ed//ufs3LmTbDY7Zp3Gibjyyiv5/ve/H4m7iHOCSNhFjMvmzZv54Ac/SGdnZ/i3qQi7RCLBt7/9bW699VaSyWTYrD6w0I2d2alx0X4oviSjNS4GgylY/+xmtmzbx869hzgxorG1l0Xr9duUfqZqcKfPL6ZRTLGwG4tJYpBOJhAvj8DyFMSRCSH8MRUlRvhWRolXV0yicLXAVl4Wp4VLDJtSS1FXWcqKpY0sbVrIkhXNLFxQQ115LrvTBDJ2FqHBNGJeKZYpCDutvAUzER7NtsM2v3tlG89uepV9B7sZcQTKSkIsgdLCE4MTFMmVvvtzXN5icTcdlJC4WpCImQg7RVw41FSUcNmqC3jb6gtZfWE91WVe8kh+pRQZ2px9eZJ3/RcnV9hKI6Vg9+EUDz+2gedf3sHxwSxGvBTDiiNVBlChZXKUsJuISUTdFI/CSb9TaIl2JHFDExdZ5s9J8O6rL+Had65lYY2FoTUxoZFeKWXAOz75os7bzmhXa39/P729vXzpS1/iZz/7GZZlhdm1U+Xqq6/mnnvuicRdxFlPJOwixiSdTnPLLbfwm9/8puDvkwm70tJS/v3f/52bbrqJeCwelizRyqsfJkflLASTnjfxORhhQP7zW9/k0V8/zd72LgbTNqZVhuOaYwbX5wuigt8LmD3CLrc9MU4mbp5bWPjdHaRAC1/UopDKxk6lcJ0R4lJSkrQoK0tQVV3GxStXsrrlAlqW1NHkizylVNiGavR5CD7VPwJBuQ0BQxqGHXh6UzuP/vq3dB7pZXA4RdWcWlJZF1dIMPyyIa6a0G16Ngs7gLTtEI9baOUQEzDUd5xkIkZleRnLFzdw9TvWcmnLYlbOCyrjje5pAYTiLhB2EJRXcXBRmDLGCPDYhu08+KsNtB/pRybKcYPY1KLjFFpZCz+lkDMo7IT/+QkrgXKyuNkhJFksaXPBsgZuvP5qrliznJp4ThgHy1ifq3VRcg8wNDRENpvlrrvu4nvf+17h5/tZs5N1rrjuuuv4/ve/T1NT00ntZ0TEbMD4yle+8pUzPYiI2cf3vvc9vvOd74z6+0TCzjAM/u3f/o2bbrqJkoTntgvqjwnhiTuB8LxRoWgJbt/epDMI7HjzBN+57xc88sSz7Nx/FKOkEoWBlDG0lHlWuvyxBBY7Xfh74ejRkxaBm/j1U+1lP8rdJ4Q/quKleEyedTJ8RSmyrkJIi0RZFSKRJK0k/ekMh4/3saNtPy+9/CovvfgiWdtlxZImYqZ34LUGtBjTahdUlAlcfTaw5/Aw3/+vJ/nvZ1/lYPcAaWUiY2U4SIbTGXReY9v8UzsW3umecI0JXpsFSDxXHwIzFgdpoqRFVht0HDrC1u07aN25i+6BDOVzaqkoMwskV6inBbjBs4jvOjf9nw2/gnJMShYvqmVRwyKUVnR1dXnWPeFXiNMGCJBa4xWLDhjTJE6xVDo5Tu7BRuBfIlqjBUhDoKRECcnh4/28vHUHbx46RsPCZioqrLAEUM7N64/d6wlYsB/BfSAW8+Ij161bhxCCF154YdQ6kz2Ytre3097ezvXXX08ymTypfY2IONNEFruIUezcuZNrr72W7u7uUa+NV6JACMHXv/51Pv3pTxOLxYjFYmMXGVY6N5MF7/fv1b1peOCpzTz0xDOMuILhjCZuxr2+lH7wudc9YgxFMqGlLu+zTtFidyquqJkktPLlWW6UVKSzw5QmLbLpEdzhE7ztwkV88g9v5qpVDV7XB6VAywndsWnXE3SuAb944nV+9qsNHB0agVgZGdfw3x+kSQaJEUHJlMmEgzqrLXY5VzpAruSMEAKhFZZOI0UWQ2gM7XDLTTdww7rfY36loEL6mlZ5SS/Kz7wYnfBSVFsG6B2Bn69/kQeeeIbeEYljS2JW0huDcEA43nGdyCp3pl2xE2zLxUUqm8o4fPj97+ZDN1xOpeXVE/RM/YKMrbAMWRCnWXw/CsooDQ8P88Mf/pAvfvGLZPx+zoZh4DjOlMZ655138p3vfAczv2dxRMRZQmSxiyggm81y5513smXLljFfH++J99Of/jR33XVXKOqCdQtdpb4bTnj3aoUgq7z4/B37T/Av99zPIxs3kyIBZgLb1hhGDIH0+3lO4Eqd0FJXsOIpvj47noN0eFzzMv6EJllaglAu9nA/jfMq+eyf/jGrV9SRlHhBjtrvnjHB/O5K6OyDf/neT3jsqZc4NmhjlZSTth2E9Jqj5YSdX68vjGyf6PhNIuqK9mc2Ep59Ef7P+zWwvEpPMbvSQkmDHbv3sHnLFrSMUbugngoLXBcwwBSEPYpFGGkncsdQaz+BRRC3BMuWNTJvQQPt7fvoO9ZHVXk1ruOghQbp+Bm6E1nlzpzFbmxyDlctDISwGEhl2LbjDfbuPsDChY0smJf0jymYxujrdqyWg0IITNNk7dq1XHXVVTz88MM4jpPrZDIFs/urr75KPB7nXe9618zsakTEW0hksYso4Lvf/S6f+9znxg06Hqsu1M0338y9995LRUXFGE+4QUEI4f+cBSSujmELzzq04Xdt/OShX9DRM4CbnIO2EjjpEa/SvTR9K523XYmDYPynbj2ZcJjUIjQ7LXZhfTZUwT4I8Eu5AELh6CwxMlTFFF/88z/lXZc0+jFLXoFkjYkwxt/HtIbt7cN86z8eYE/nMYzSakZSaUwpkEJ7CRKA9rN5QzntB+1pv5TJuGVjTvn8nFkK4geFQijt1XLzBa7yE4WEdBE4pNNDmBJMU3JB4wI+eM1VXHP5KpIJSFiBzPLLPXt+VkCGwahKgaNtpCGQwmQQ2LW/n/vuf5zXWvcjEpXYBthGFiX87hDjHcMzbLHzKEwSCvbfazfmZX0rx6bEgMaaSj5447u45b0tWGmIJby3aTHaYqfwrNFC6dBLkM1mMQyDp556ig9+8IM4joNt21MeqWVZ/OAHP+C22247xX2OiHhriSx2ESE7d+7kC1/4AsePHx93neLYtjVr1vCjH/2IOXPmhO7XwnXyLWle+yiNSUZIMsA9DzzNw4+v59DxYXSsHFuYaKEpTSRwHdvfjsAVhhebg4OYyGowaXLD2WmxC20tIoif8nIFBRrDEKA0BjamM0xSZvnzj32Ed12+jFIBaI3As/wIDD/gMW/D5CT3z554me/+4L9oPzoEiSpsLZCm5VlBhCSwvAqkP8EGlrtgwtb5mx1jR071/JxZchY75XdgAFC+sBNoYaKE3+dXCBAGrpLIeCnHunvZvf0N3nyzk6p59dTUJH0bnfDOTyDafT+5Et6vhvTOWcbOEjdM5s5JsHrVxQwOpug41IGWKjwXMoxFkyjtlwZB5OWZwskf41N/qFFCoAXhdzjoIRuMShgxzHgCLSx6B4bZuWs3/YOaxc1NlCY83Sv8ffS6pHjXo8az6gm8e1Q2myUWiyGlZN68eSxZsoT169eTzWbHHthYY1WK5557jiuuuIJFixad8r5HRLxVRMIuAgDHcfjf//t/j8qCLSboGKG1pqKigh/84AdceOGFYcNuKYtaBSnlz4a+RUMZuIbBoSH4P//+BE88v5WUYyHNGEiBkAZaS2zX8Yrjhh5HhcAtqIsFuZe1UN4sqz3Bo6QXpK39FuTBMvmUpidZzgx5TitvL3QcMFACDNPCMmJkU4NUxWw+8vvX8T9ufBtJf6Lz3KQOha4+3/KGJougNw0/+vkL3PfzDfSrONoqQQciEE98uMHxFAZa+CMRhp/MohBopBBe8V+hPX1StATnZ/xldhM8tHjPGzlRq4X03OMir8Sy9lIApIyhlUTKGClX0nbwGC9v20ZnzwCLmpcSTwgsDIQwfd+sJ+6CfHHvX4FpmAjlWUNLk3DZ5cuIxeO07dvD8FCKWCyOFS9BCYFyBVqDoQVSawS2J6aE50ofn+ATT+7an+xsegI0PznIuzC0v4D2gm7RGKaJo+GNfW+y882jVNUuonme5R2i8IufyyvWQnvnAjBDC7KmpKSExsZG6uvr2bBhA7Zth/eoiXrTAqRSKV577TXWrVtHTU3NlI5BRMSZJhJ2EQBs2bKFL3/5ywwODk64Xjwex3EcLMvizjvv5LbbbiMei4/fIkz7N2sEGhNtSA4Pwv/70RM899puMiRwpIHwW8kTZn4GEsYzi3gWh8CtmyP8LbQE+Tfsot9HrX+W4blc84WdP/n7FjknnUFkBrjp3e/gT//oekqEl1UYnhWhvY0Eh8Xr30VGCWwJP3p4Iz//72cYkWXYMu4LldxE54nkfFHoW02KYu1yjCMEJozBO4sIXK+66MGhIPZR+GU5vEUaJsIoQRkGA6kU7e0H2LVnL7F4GQsba1CAlRdxB7mjGJzL4F+F5629YMVCaqprOHLoMH3He1ESlBIoJb0kFwCp0UL7h34yYRfEweqxl0m+QZPau4PLZZL1AgzDIuvC8YERtm3bQXmynIYFc3EdjWUKwhLGQof3jfztB0LcsiyWL1/OwoULR4m7gvGP8bejR4/S3d3NBz7wASzLmuLIIyLOHJGwi0ApxT/90z+xfv36SdcNsspaWlq45557mDt3LlJKHKVwlfKMDcETvhZh9qArJVkBb/bBv/7nE2x4eQdZHUNJy8t6RSG1RktZ9DxfJBCKJprwswKXYiB2hPZDlrzfdeCmOfXDdeYQhDZHzzrhIpRGOg4JI8PqFY185uMfojQGhvRr15GzzXnnxI+zEhpHSHpScPd9v+KXv32GYdcEo2ScOoH+78WnY5Swyy+3W2z9EeeOsAsfPor+WhyDmv+z1ggJppRIKbFtm2O9/Wzfs59DPRnmzm+gtMQgLnPvC6LiDHKH2DfoIQELWNo0j0V19fT0dHO0d8Br6YYBwvC+TyL4lkhkUblflffdCEd8CuVoJju70/kOCim8cknau0el0iO07tiFYZWwakW9ny0rwxAFgfafX3LWuOCB0zAMSkpKWLp0KeXl5WzcuLEgjnh0+aRCdu/ezYIFC3jb2942xdFHRJw5ImEXwbZt27jrrrsmtdbl85Of/ISLL74Y8AqDxuJxTCnRaH8KV76FSOIKvEQJ4H994wFe3N6ONkuRsSSOcpFoDFwEUxB2RYiiH4L3Kq+i76h1z2ZZkT9+LXy3dNbG0jbzK03+8lN/zLJ6C9MXdW7eOzXKt/SZIASOlGQEfP3//YSnN+8gpQyUGUMYsYKSMNMXdvmibow9OGeEncd0hB1AOjWIZcWwYjHPbWuVkM7CzrYO9rYfoK52AVU1ZcRlTtSNMj7nWb1ieOd6/txKVq1axf6Og/QcP4F2NaZh+v14BUoIkAaiKBxhtAXt9Aq76aCCxBRDYpoGAsmI7bJzzy6GBlO0rFyOaQZ+WeX3Gc6z2uWJtaB3czwe55JLLmFgYIDNmzeH602G1prdu3dzww03RC7ZiFlPJOzOc5RSfP3rX+epp56a8nvuvPNOPvrRj4ZxdbFYDO/WCrmIoFwT+RHX61zw3fs28Pzre3BkEldIHK0xCAqZQFDfTgTB0Jy8sMuVA8nFdInAtXsW47lIPWudgYslXCrigs9/4iNccVF16HEVwq+WIQitNSAZSdtYlkGfDf9890944bW9ZMwkWAm0EfPi6vKsbN5hzP0uyRWHLpgQRwm7sY7zuSfs8o/FeK49IbyMYinAsrxSQK6r0MJCY6BFHGEk6TkxxPObXyGRqGRJ83xwvHp3OFlsBYYhC0RdIL8lYEqoLLO4+NJLebP9AD3dxzBNE9OMg2EiTNOLe1T6rBF2mqBtoEBp754QSyQYzmTZ1XaA/pERWlYup8QUmBjYeKbM/DHkd5wQQiClJB6Pc80117B161b27t0brjcZJ06cIJFIcMMNN8zgXkZEzDxRuZPznNbWVq6//voxixGPxZIlS3jmmWdoaGgYVYDY6/PqiTqvxZGJq02yAu796Ys8/JvnGBIxMjI2artS58p25Ne4lZNk4gVzUDBBBXXuctvIb0KfVxrkLEUFmanCwVIOdv8x/uiW9/GZ29eRwI8799Fy7LD3jILv/vhX/HL989hWNY6IjVnwGEZPeOOW0hhVIHrslm6TFzA+NxEFx0WS6/HqxcIpIZE42PYASZnlhret5NN/8iFKDUXCBMOSGGIi4eTZyV3gaAq++d3/4pnfbcWsqMUxE2SF8MqhuLqgFE1YRsfP7j3VcjTF4zvVySV/e8pVKAGmKbAM0OkTXHPZYr7wyT+iLCEpkX4E4Ri9ZIvJZDKk02muvvpqWltbw3UnaznW2NjI448/zkUXXXSKexYRcfqY3UWjIk47P/jBD6Ys6sCz1iWTSa9GVHFXCfIjrLxGSkLAhqe38cRvn2dwxEZosFTWXxxM7WCqQNDJcfqmRoA3CSvhTW5or67f6ouXcfP715EEtJ3Xm7RoPnPwukmkgfseeZaf/fp3KGsujpScp1rrLUWHxspc6zWBQmjvQchSDhJBReVclJHkN5t28NV//Qm7jqWxY16nELdIbyg8d7sN2L6oM4C6JHzpUx/h3e+4lFLDRWWGwE2DbYeizruWgq3kNz2bvUhDkogZZNMZMgpGZIwNr+3j//7oEQYzioztTrqNwCUbi8WorKzkoYceora2tuD1iTh48CA//elPT3lfIiJOJ9Eseh7T3t7Oww8/POl6wVPvihUruO6666iqqgprRRWTC82WgMnWN7q49/5fcGLIxhUxvxZdsKjQ4lZY0DbvstQyt0wDzzpXuJztSA1CuUgUhlbElMMdH/wD6qq8adnwE/byhVp+v00b+M3zu3nkiWcQJZUoM4HCLLLazNhox1giigmsyEIDrsPwcBpbxHDjlbz8xkH++e4fs+HVI/Q64IjR9tD87NngZwlUlcDn/uwjXHHpMpKmjcqkcJVXnDdsi6Z1KPDOFnHvOC7JZAnZrEM8OQeVqOL5LXu5+75HGHYNr6iP8HPow30qTJLI/3fhwoXcfffdJBKJSUVdwC9/+UuOHDkyg3sVETGzRHfb85gNGzbQ2dk56XpBbModd9zBwoYGHOWClBgxq+B5XyIxMJFYKCU50pfh33/633SPJEiLOEbcFxJ5i86b9AuFWFBBv9BlVbzowK3l/z5a0KmC5axGeNYd07Wx0sPc+v4beOdFdZRS6H4C3zGnc5mTALvfTPHgr59h0E1gixgZR4ESCFeA0iitRx8/Chet3bEXpf1FTLictxRfr4HYEEENNs8Sq5RCa4GNhSNL2Nt5grvve5hHN7xBv2+QUoCjvcVAYeAg/DCILBoHLyt63hz41Mdu4arLV2DGNEo5mAikK4jFYugiJT8Tp0cXLTO+PWngKEhYMZyMg7IFQ2nJs1sO8o3/+AV9ac86LQRksk7xu4FC92xpaSnXXHMNf/qnf4phGJOKO601O3fuZNOmTTOwdxERp4dI2J3HPPTQQ5OuI6VEKcWyZcu44YYbmFM9ByEk0gj6txahXECgZIwnnnuF7fuOkNImwop5hW2RBcv0LsHz+3IVGhKGiTsyzJL6at537RosnSuFEVhgoCg2CWg/7PD9Bx7lza5+bOnF1IUN7N/qHYnw8d3qeXFtUpp5ItAkXjqHI/0pfvjTR/m3BzbSMeC5070SbjYSx++g7Im7IG1JChsLm7oy+MQd/5Mb3nkZpYZLZqAPC01qcAjTDKri5X0PZ3lLt3wkeLX6jCQnRjQvte7ne/c/ykDWt2CH7Q0Lu6IUU1FRwec+9zkaGxu9tSYRd47j8Pjjj8/ELkREnBbOnm9xxIyya9cufve73026XlDr6dZbb+WCCy6YWNQBuC4usLMrxYO/fpasUpiGRAg9eWB2xKTYIymqSkxu+5/X0zwPlATXK+SF0CK0tBlaY2ivlt+wgp/8egObdrThilwv36lkAkacLnJiSglQUvktQvKSj7RLKjWMUgYp1+TRp17gH7/3IHuOuCggZlq4fqEg7zHJJWedUggcTBSLKww+8aEbuf5tF1Aec3HSw6hsFqGMolCHMSzjsxzDkEghME2LwZEs//277Xz/ofUMu2DKwvInhTUWPbLZLFprysrKuO2226b8nXjyySfp7e2dyV2JiJgxZv83N+K08MgjjzA0NDSldZctW8ZNN91ESUnJhKJOAVgxhm340UO/oetEFmUl0EZ+bbNI3E0HpTWuUl5tOq3AznD1713GtVcuwcnPCM7zNnn5J14nj7SCx57exn8/9woyWYUbJafMKgodhXmxYBqE0JimhZUowSWGMkrZvG0f//jt/2DP4Sx9WXAL+otIjPzvpgacFBLN4kqTz370g1y5ZiUxmSUZkzhhjKyfQHMWCLl8wjIz0t9nK0FfWvPIE8/w6JMvM5AuvtvkR5x6xGIxLMtiQd0C3vve9zJ//vwpfXZXVxdbt26did2IiJhxzq5vcsSMMDQ0xGOPPTbl9a+//noWLVpELBbDKxM6NoF8e+al3Wx8sRWZmIOSBq6fzXmOlTA7rQgtEf5EK7TnZsum+lm2aB4f/P1r8TrFZr1OuH69OoQn6hSgtMGwA3u7Rrj/0acYtAUZ1+vtmk/Q2zVYvHZSeQvFS8RMMF4Mmlfvzlu83wVoiSFNhLCQRoIdezv5X//n+2zv6MfLuVA4ronAyo9Y9TZoGKCyGGjmlsLH7vgDVi6rxZJZVCaFVHmjCM53wfmfveS7TA1DYkiJNOMos4Lv/eQJfvvyXlxgJGVPGEAYiMOlS5fynve8Z8ztF+M4Ds8888yM7EdExEwTCbvzkFdeeYUtW7ZMad1kMsnVV19NRUUF6XR6wnUV0DUAjzz+DNIoIRFPogW40lsipo8UBqZpobNpLJHhsoubWFafwEWhlY2hFdKXCBrIZMH2614MZOC+R57g2GAWMxYnM5L2txkp7FlNgaiSfjiE5xqNx0uYU72A9q5evvMfP2V35wi2YaENA9v2kgW8mtJeVjqYeP2XHWJA0/w4n/iT/0F1pYUpbHAzXlKRUF4pHTmBmJuFFr1C8SUpsUowrARDtskPH3yC1/b2I+IWtjPxdqSU1NXVsXbtWkpKShBCYBijyznls2XLlrDFYkTEbGL2fVMjTjuPPvromKVKxqK5uZnLL78cy7JIJBKjXpdhMWKvptZzWw+wa3835ckKnPQIyhd2iqhe2vTx7C+e1cbhwguauOn9V6FQKOViGSUIpRB+HKQrc7XNRoD1L23j+a17yIg4ZYkY5aYOz1VooYuYHYxhJRvr/BgKRoaHMWSczu5+/vHun7Dj4AiZLMQtM8z+VkLiChNHWDjCwsbyMmbdES5ZXssnP/4R6uaX4eo0GhtEFoQnUsb8ns5CUVeM0F5coikNykrL2Xewm3t+8it6RsCKMW6abiAOpZRcdNFF1NTUoLXGdSeui7dnz54ozi5iVjL7v60RM0p3dzfPPvvslNf/wAc+QENDw4RuCeWHbdvA+uc248aS2K4KW46F6Jyj6OSY3a6hmSN3nBzHxbEd4jHJlW9bS+PcKpJIXFfh5geF+667RAykAZ0n4OdPbGQwAwoTbIeY9Ce/iLOSoDqJEIJEsoyUI9jRdoh/ufs/eXnHIQazgPasTF4fCoGDV/4DQCIoMQwSwLWXNvLh962j3LCR7rBntQuTJsxCIVdQdmh2k8lkcJRLVkN5TR2v7X6T//jpRlKqsCtLMcH9bfny5ZSWlqK1ntRi19HRwcDAwEwOPyJiRpj939SIGWX79u20tbWN6nE5VjZYRUUF1157baGlrkDfKa8PI17m5a+fbaPt4CFc0ySDImVnkFpiKDmNC22suK7zJ77Li63zf/Hr8hlC07ywjqvf8TYMPIucZfht2QwDDAMtcl1wM8DPfvUs7YdOEIuXIrVEOW4uyPyUGav48Nkx8c9airNQw/jKYPFKo2SUglicrONimXHipVXs6TjO/U+8xJZ9KYSkII4yOCsGENMQc2OYDpQr+KMbLuGOP1hH0k1hZiUlRgWCEgRxhDC8+pV4ll3v9/xEjbERkyynEy3ASljYWpE1TLLCwDUsntm0mZd39qDG0Wn597/a2louueQSACzLCjtVBEs+6XQ6KlQcMSuJ7sTnGdu3b2dwcHDM1/LFnZSStWvXsmrVqlGvFb7HQAEDI7D+2ZcYzrogBVm/RldQ9HZaFAfwnyXB3DOO8LJhpetyzTveTmONFzUlyZVyUL4zPDjEKQWtO4/zzIuvUFJeTf5XXKvpnohiIvF2pnHRfus9rwWfZcWRVimv7nyT7/zgp7y0qxcFZHWuO20oqvKej4SGmIIPv/9d3PjOK7CUQ2ZoONel5Sz+rim/Q4cjIF5azkA6yxO/3UiayR8PS0pKWLt2LcCkrljwuvdERMw2orv0eYRSipdffnnS9YQQKKW49tpraWpqKnox96P2BYUL7D3Qw8HOI0gMXFV4+8zvaBAxMbmeol7XDHtkiPqaSi69eGVYrCF/yT+kGhjKwuNPPc2x4yf8oHtvSiXNWQAAIABJREFUye9TGnEWMcmDTV9/P1JKTNPkQOdRvvvjn7OnF7ICsniWOgv/zOf6/XkZ1MDcEvjIhz/AxRc2gd2HQRpB1uth62dbB51d1Flw/eiiMabTaaxYgh17D3DgqD2psBNCsGjRIhKJBLZtT/p5e/fuPYXRRkScHmb/NzVixujp6aG1tXXCdYK2OqZpcv31149Osiiq05B2PVfs717aSt/QCI5WU+65GDE2Smu0djENRWlMc+XbVtFcnytiIXEgb5oNEiYc4OXWA7zcuhMrXuq5mHxXHlpG5WbOQUqTSYQQxONxzEQJb3Qc5f/7vz+kZwDs8GvoF+YVOmfyBRDeddM4F2695UYW1iYxSCNFNk9IyjAB6uxB5lzQpgGGSd+ITesb+yZtc+Y6LmvXrqWhoWHSGDuAtra2mRhwRMSMclZ9XSNOjZ07d07aG1ZK75JYtmwZZWVlxGKx3ItKF4g6BcQMQccJl13738Q147h56qGgPlrEhITN2LVGKeXFNymbmjLJdb93GeUGGEpjhKLOz27Fr0ML9GfgkV+vZygNthYIwyrcPoG4O3vdbOc80+j4oLXGxVtGMhmySuKYpby0tY0f/fRJ0r4nMasDU13RU5kGU3sWvYuXVvJnt9+CxRAjqV4kDq7j4oaf4eIId5ZntkuUKDx+joKs6/XefWnr9lDsKsDVo6N3DdNg6dKlXHTRRVP6xM7OzrA7T0TEbCESducR27dv58SJExOuE8SVrF27lubm5sIX8wRaMEUMOLDtjT10HT2BkhZKSE+URGLupNBaY9sZDANSQ31cfMFSljSWEAfiUoEv7PCKnoS/Abz4yk72dXSjrCSYnispLDocfdXPWZSbJyyERdW8Bfzmty9y30+fo09DxhczDjYKPepSkEBlHN6xtpn3rHsHprCRWqH9NFINuNKrczfrHwp8y3R+2IcjTLJYdHb3cuRYCpj422DbNhdeeOGUBFtvb29U8iRi1hHd7c8THMf5/9l78yC7rvvO73POufe+pd97vQJoNBr7QhAkQRGiRIqkRclax5tsJ7aj8SSZSjyuJFWZqvyR/JU/8sdUTaoySaUqmRrHE4+dGTu2pEjWjEzJkrXQ2khKpAgCJAgSILGjAXQ3en3rveec/HHufVu/XkA2wEb3/VRdoPu92/edd7fzu7/l++O1115bdT1jDL7vMz4+Ti6bW3ld3E3/hZ+/yu35MqFNjbr3Thw8khalJNpEFPvyfPLjT9LvJX4WscTp4gENCzdnG3z/hz+hZhTWzyGUh7YCayKkpZlsnxZAbF6EFEihicIGBH38+7/7EX/9tyeJJJSxEMsSaWjl2iW9hTEM+PBbv/FZ9u/bSa1SJpfLAy1vspVmw3rsWiZncn4bMBqEwlhBKAKu3Zzh4uUrzb9Z7jZlreX4I8eXVQtop1KpMDs7uz5fIiVlnUjv8FuE27dvr7m3oVKKJ598EqmWPz2S2921W/O8c+kqmUKBRiNCskJeyqpP/BvcG3APkNIjk/ExNdc+7CPHd6GN6/zq9OqId76bwMoNixLw2lsXeeviLWpGYvAQKIzRrYlp3Zq6p8do42KIGjVnfAVZphZrfPm57/LDX1xAI6i2zqIu/REX2lfASJ/gD//T32PbQECjPO1eF8KlYbBym62NQjOvlPZaL4m2gmuTs00vd6+rwRhDEARs37Ed3/d7rNFJFEVrFntPSblXpIbdFuHy5ctcvHhx1fWEEBQKBU6cOLH0abVtMpAWssCZsxe5MbWAtpZMxl+jTMIqOnVNodQeyyZFJmEvASaqk5OLfP7ZE2QkKAtCC3ppxhUCJ0L79y+f51Y1QPh9Tc0tEYfFRXuu40r7tsdijWhbkkl9a2sN3kts9yLaKqdjXUIhBULGx1wpkIIaktzACDPViH/75W9w+vx1DJm407Npee0E7lgbD9/CTh+efGA7X/j0kwTRPDJqILWrao8i2+yruuzSQx+zWyuzmU/aY1l1fxjbcxHNRceLG7MnwRcgjUZHhivTZRZwFcMJve4qY2NjFAqFVccTRVHaVixlw7F5Z8qUDs6fP8/i4uKq63mex7PPPkupVOqdYyLAOll7yg1469wlIquwVpBO7O8XQxRpKuVZDoxv4+NPHMcDFy5r6lW4/p+Jdl3Dwukztzlz7hqRzLvXjZvklUwv762EEDYufpK45nEede3x7pVJ/uQvvs7kXITzQclmN4oOz50Fq6Ffwhd/65f5xFMfxtc1ZBjhCY+cn8MT3r3/Yu+RRGJJknRckdyeq1JdwQ5LHl5KpRLbt29f9TNSj13KRiS9828RLl++TL1eX9O6J06coFgo9swvMUAUO25mFiLeeOsdjAzQ1q5jZ4OtibQgdJ18oHjyIyco5jsD284nJtFtuVJWwE9f/gXXrl0Dk3oOtiqJAZOQSNxIlQevyMkz1/jacz/iNs5bZXEtAJuPYomBp4z70Rh+5wu/wp4dwwRoZGTIquC+CMWuxNT0NCvdBo01GGMYGRlh7969q+bYpYZdykYkNey2CFeuXFl9JSCTybB//36kksve1HR8b5+vhcxV68hMDiHUOnQ22NoIDNKE7Bgs8eSHT+CLtnS6mCRHKtGtuzgFL596kyCbS0NCKY64FZ0UCoTCyj68/Da+8twP+P6LF1iI3CnV6NLftfHZFaHJKsH+XSV+9VNPkZchplpGV+v3vcj4/Pw8jQbNB6ZmzmH8i7UWrTVBELBjx45Vt5cadikbkdSw2wLUajWuX7++pnVLpRIHDhxACLGkT2LSRFtKZ1ScfP1NqqEhjESs+J6eTu8Pg9ANDu/fw+6dAy5s1tVewgKRts0J6cc/P8mFa7fQGgZK/SjRluvUnvMU50ClbC6aWY8ikayWJNmYGA1IjFQ0ZACZAf70S9/g0s2IOuB5IKwFEYEwWGGb5RUZAX0KPvnUo5w4tpeMaRBWFxH3WbqF0QZrLFIIlPKoVipcunR12b61QoimMPHQ0NCqHkpjTPpAlbLhSGfiLcDs7OyaDbtisbi0jVgXUkJFw5WJKepaEZE0CU8Nh/eDBDLK8uDBPS1vXZdRV6mFeEoggMUIXn7tTUSmQJDNEDbW0g0zZbPRLKqIc+tsIvcBGOt0KY0ALTwmphb48y9/ncU6bWLVnYUvAoky4BsY6oNf+dST7N5exCcE/d6NGLvGAom7hRUQWUNktEtliPXWrcU9tMYdd5L7WDabXXWbqccuZSOSGnZbgDsx7Hbt2sXg4CBhGPbMyUvS9+fK8Oa5C0QorFxdFiBldYQ1DJX6eOLEo2SThh9dE2Eh69PQLpR08tQFTp45hxYeWLmsFyJl89KsKI1bfxkhWxWmIkISIUUDaZ0GXV0rXvz56/yHb/6Itr4kTU1K8MAqsK4dXZ8PTz62lyc+/CC5wBDp7haDndXq7VW73ctGIIoitI4Nu6jtqUlYrIj7ZMeCz8VicVWPXVoVm7IRSQ27LcDt27e5devWktfbw6zJ74899hiZTAbf91d8Yl2ow6WJSaxYvZ9iysoYa514sDA8fOQAe3ZmUbZNM6xtUpQ4j2kd+MmLr9KILAZJGIUEftBr8ylbiJZsSNzrVUTNn6WFQmmISsPy3Ld/wk9PX0aLVgqFxgDC5dHFi67XyEj44m9+moPjwygbYSMTV5nefxgDWseLMU29u3ZPoom/21o8dikpG5HUsNsCXL16dYn3rftJNPm9u41Yhw5VfLaEwMmzl5mrgxCqqcGWsjrdel2RtlghqdZDpIWHDo7S70Mm9h40UxdFK+Fbh5bZGrz5znX8XB6pJIEfoMOwxyembGYSSY/W76bjemxKfsTr6DCkr7CNyUWPP/vy3zFZ0TQQNKzBGtE0dBJUJosCtvXBF3/9U2SExZNOH04JjYgfQKyx6DVUzLaPp9dyd5HU6ppqLSKvIJdRCOE6UAgEVlh0pPF9n3q9vqaWYkEQpAZgyoYjNey2AO+++27P13u1zOnv718x/JBUZN6cmkcL5yG63yvlPkiy2SyekNgopFTM8cCB3agV96dBKMHJ09e4cXsBgxeHwtJ2YSltNIXCW+eEsNIJ9wqF9vK8eWGSr3/7x1TwscJDSVdN2zTuDOiGBQ05D54+cYBnHn+E+sJtvLgwJ5Y6dp90P9wH7HLXSNyQLO62I4Qgl1u5pSKkhl3KxiSdBbYAKxl2sk3ENpfLsWvXrhWLICQQWpi4ceO+17S6p4g4HIZp9m4FiTEhWE1GRBzes5MHDu9ecTPV0GAVvPTKa1jhuR6e8eFK/aZblyWerxW6thirkcJifI+vfvcFTl2YwSLpyNJs8yzruMqgEMBv/eon2DboU61W0FbFHmiDsm6B+7EvSVvhSKwGoKRaU+eJIAjI5/N3c3ApKXdMathtAW7cuNHzdWMMWrsnbiklu3bt6lBb7zbckpuzNjA1NdXscJCydoQl9qa4JPdapQphjazSHBwfIxenyWm7dCI0uMrGW7c1b71zkUojbMrMdFYbmjW2dkvZerirWKMx0ufmguav/v33WKgvPd+kAqXiNmDxmycOFfnE049RL89ircaI1rnWHcbdyCRD7TUBWmuRSq7JY5fNZtdkAKak3EtSw26TY4zp2UqsOwxrrWXHjh0MDQ01X+/luYuAchWmZ+bI5dtvfOmptCJWImJvSvsE6HmCwBeM9hd44rGHmz6TJL2uHYMrWDz15nkmbs2SzfejEa7rR9wrM813TIGVc9Zs7GVrCEE1CvjZyfN858eniMssOhHJvcI9bDQM/NrnnmbX6AC6sYiSuvlXVmz8e0C5UlmSbyy7rrTk3rgWgy2bzaah2JQNx8a/ElPeF7VajVqttuI6UkqstQwODlIqlVbeoIW5hQb1er3ZHF6QTCKdIZ+Ubty+kR2GnU9YrzLUn2N0uLDqBdmwcO7CFbTwCK3o3N+ply5lBSyxnp0ELSUGKBUHWKxG/O3zP+ft6zWM7PoDS7PAAMCThj2jJX79889AOI80YZxaIGOB5I1NEAT4Uq040uSBtlKprGl7aSg2ZaOx8a/ElPdFtVpd1bCz1iKEYHR0dNWnVCFgauq2y7FZQ9VYSidLwlU6AqM5ML6DbYPO6FM9vHXg5tnFMrxy6nVq2qKtQONygpJq23b5mpSUbqzL8iSUseeuUSeXyXP20iTPPf8KlW6ZumYbC0cOSQA8ceIIR/cPI2tVPKuweOj7wLjry+bIZDJulO3VxPHSfu2Uy+VVt5cadikbkY19Faa8b9bisQN3Q2vPr1sOAUzdvk09bGCXhP3S3K6VsDhviREtz12lWiEbSPaMbyenlugRL+Gtdye4OrWAVX5qwKXcMd1yO1k/ACupa8V3f/gS5y/PolVLVLj5wCAAYYkwWBoc2jXM55/9GFlPQJxr90F2lVgrQeChvHjaW+HyMcas6b6ZzWZTwy5lw5EadpucarVKtVpd0ZOTvL5t27Zlt5Mo0wtgcnIarUEkOTXWtTC6L+QOPkCMgFBKwmYlsmFgaIh8MceDR/eiTRLyaq8jbGlP+MDJty5RNjmsVFirkdaJrFrjtMQSWr/H/UPt/ZXcntKb5Lh2H+87QVrwtUQZSSMKkb5HkMlRrhu+8q3nWQSEhEjr2MCzIEOggSAii6TPWp59/MMc3jtOo7YIto6wIdZqhBHNRVrZsXywGKQXkQ3ssjZdEoa1NmJqaqmoezdBEHQoC6SkbATSM3KTU61WV80VSZKF+/v7V92eBhYWFlxTbemRnkJ3huvl6RBAtbJAsS/PztFhAglySfp6awqaqcGFqzedfqBQqccu5T3TXlyRnEVaeLzw6llOvb3oHiuUxMTvts5KiwICAaNDWZ564jEEDTJSIDb4w53AEHiKTNZvU9+Lsd3Jhc6bvhqr5iSnpHwApLPyJmctoVghBEEQMDQ0tOr2DLBQrmDivLyVNO9SliIwzQlQWoOuVjlyYC9DpUxb63bcT9ZgdUto9sqNaS5evtrc79Ya6JKcMWmOXcoKrNjhwUrKNcNffvUbzBgIZHJtG1yH6ADwsAgMBiXg2Y8/xt6dg1TLiygUG31KyWQyFHJ96CT80ANrDUp5zM/Pr7q98fHx9R1gSso6sLGvwpT3zVqKJwB831/16TPpOlGpVLE2NeruFGmdR84zcVjUWJSNOHpoPwAN2pqJJz0sjW7+euP2IsklmxpvKeuNEZAvDPDm25f48UtvM2vAIBC0Jd1Z19guCWYOF+BTv/Qx8so9qIgNLEMM4Pse2VyWKKJl2LX1xoXkmpNUyqt77Pbv3393BpqS8j5IDbtNTrVaJVxDD1Hf99ckyBlZqDVCVwiAXfr030vxvof6/ZZEGJQxKKJmJ4pCLuD4A4fxAA8Va2rJONlOoPwMlbpl0cK5S9eYL1eaengS2dbH1y1SWNRKWeEpKcsiWaxFLNbga994nvky+LgexUKAtW4BGVfXQgb4pSc+xI7BfkxY/SAH3xNjLUIKjLXU63UajQZSSjoK+pPKXyEwkUZr9+BUrdaX2WqLPXv23K2hp6S8Z7b4TLv5WYsWk7XW6Tv5/qrrag21sOFulnGYUNrVqzlTnJdOESGsC8UKoxkdGaSY83sEsVoVxtYT3FqAN9+5TCM0Tt4kDoWnpKwXzmZTCC/LzdtVXnj5/NJcNJHIGLtHkBywfyzLY488QNYTCLPkLzYUhUKBbDZguUtHeoogCBBCLBEy7kUaik3ZiKSG3SYnaRm2EtZa8vk8QRCsum4tdHl7KCdqLJyFsh5D3QIYpDXNAglhYf/4TgYKyYW4dD+GoQYB1QiuTNxaVt2/LZLU+broXFJSOkhagsXXsPQFMpNhaqbBj3/8GlOTtE4s0UCKCIFFIJqOrgzw67/yGTwZYay73zSlT9ruDRtBDmV4YIi+PHhq5fXq9TqTk5MrrhMEwZokolJS7jWpYbfJWatXJ5vN4nnequvpCOqNCCUVGtPSuXq/A90SSKxR2GSGE4Ydw/0UMi7cldTEGmhaYr6vsBIuXp1itqI3vABsyn2McEUDSimkn+PNty9y8swlGjo+J7se4CTQCN25e2RccOKRQ3jK9aEFiOLiHqzGWhGf9x/c+Sutob/Ppy9wfXB7Ua/XCcOQhYWFVQ27tQi6p6R8EKSzxCZnrRpL2WyWTCaz4joW50EKI5fkLyRY2+oVmRh57UtKG9YjtDnqUQAYhK1x6NBujHGh7MTgc62fPIzwaOAmzsnZGgtVl9QNreIJJQSqh/Ge7v8UoNMj12vpIqzVXbtApalj+Mmrb6A9CDV4ZEgqYxM833meM8CnPnYcYavUogqRjbDWhW3vaf/iru8npUVK3P9E7BzKEJA8SC35Yxe1kJKJWzeZuj1NqydFsrQYGxtL5U5SNiSpYbfJWYsXDlzxxFpCsY3IEBmNJs3xulOsAGMVVrgwdiGfYdfO7ah4Nxrjqg0ttum5E0AVmLg5hbEbv2VTymbAYIUhknDyzDleOjUXe7iWetzq9RCjNQFw7NBehvpzBMoSBAohJMJorNUYqz+QSm5jLSaulPCVYLCUxUMvY9i5/GFfKSrlMgsLCytuO/XYpWxU0llik7NWj53neat67MCFKqLQeeykEPTKC0tZHiEsypNEukGpv8DOnYOt93pMfAKolOHddy8Abp/fiX6g6VpSUjppnR3CdgpkWyS3Zmb56c9eIQIS0SSJ83gpIJfx8TxFI9KMDOV45smPIKMGUaOOaGt18kEWWIVhiLEWPwjYtm1bnB0IUY8EEhXfLydu3KBWXbnKd3R0dP0Hm5KyDqSG3SZnrYadEGJN6xqtnQiuSc2E94KQFiEs1mpyuQxC0vTYudBYZysxCdTrcPPmjQ9mwClbiFZRD7iexrXI8vKp1zl/rdzz4UDHEihKKTISnv3oCfrzHiaKK+cFtKaZe/94YWOPnbUWz/O6uussHUvgOWWAmzdvrrrt3bt3r9cwU1LWldSw2+Ss1bCz1q6pglYqhZIeQsplvEbdOSnL56hsPQxCgTER9UaZg4f24xRmLBjd4eFo/QVcu3ad27PzIH0XDIt17Hrl1qVsbaSSHUuCiSVyEoRw2m7aGCIdEekIrSNX7AAIoRDSY2BomFu35/nZa6fpJf6hhFO1c//D4X1Fjh7YhQ3rsWdZIYRA4Za7TqyXmVxKAoXyM1hjKBVLlAoFWg9NvcdTDyPOn3t3mYqw1r1s3759d+ELpKS8f7b6TLvpUWqVuv4YrfWqQsYCCDwPtZpWQMryCIOxdTIZn+HBIr6ERLNO9Oj1ZIHp27fRxqBUermmrIyNW8oli1Iqbj9n0VFEo9EgiiK0MXG/Z4mUqrmEYYgxGqkkQRBgZID1Al45eYbZRdvT1kke8CTQL+H44QNkA4G0xuWVCukKGTD3NBwrrEtdSPZFodBHX77PefEwPQ07bSHje1y9enX50lkgn89x7Nixuzn8lJT3zNoy61PuW2TsWVstcVnrtSU3JzdxIUQqcfIe0NqgTUShL8PY2GicxO1CRcvlzU1cv47RGuEL15RdilQQepNiRNzLVbicN3uHz95aLw0vJueWVAprDMYYwiiKr3fTuqaNRUSaKJKYsI7Aw1c+vjWcOfcu1ycmGT+8vG6bAKIIjh97gMK3X2BxA2gVSyUhcvtkeHCAvoICGy27vhBu9evXrze9l70YGRlJu06kbFhSw26TI6WMW+isnNuSPNWuuI7bIGIZkdyU1bForI4o+Dm2DxRdJyNig9nKjgxzA4TAjZlFtF3ZmBN0Ro6kXSp3IrvW6Za7SMJXskfukWluYeVj37797vGmDwJrwwhQcbidWCsSXFV1x0Na3KIveV9awNQRscSIwKAbIb6yZHwPz/cYHh6ikCtSKpXI5TP4Xme3mYzyCBshi/U6YUMzPzuL0XWq8yGv/OwFnjj8hRXHHniwf9d2dgz3U55YBJFsPzmnPoB7h4nwPRjoLyIMruZ8mXuYBBYrZarVKkmHjV4cOXIkrYhN2bCkht0mJzHsVuNOpQiSCSb1HN05EsNgRnJw+yAZ3CSOlU6TuG09DUxX4eLNOazwwFqEiMNDsUfH6YQl67f+2gqXg1ev1wiCACmdxIoUOI9NGKJ1SL4vS9hoUG9UCesNitk82misTbyI1slWeBKDhySDUFnAoHVEoZBHIggbEeVaFZnJIpREJW3TYg0zK2QqZL0KifagjPuxirhLibKgJVjlTHOdFAP4rhFdo1Yj1Bah6xSVoZQT7Ns1yv49O9m9c5Dtw0X27tpOsS9HPpMn8CS+B9qAjNsSt1/H7T/Pzrm+xoIIzyZexOW9ywrYUYTjRw5w+fJLaN9vk+i5m4UT7fe41udEkUZIyEjL2OhI/F2Tdbsfh9x3uvDOeW5P3VpxzMeOPbgmeaiUlA+C1LDb5NyJYbe2UKyKZU5S3gtKSgSCwXyOvAJliD0vibcurkyM15+twkwlBBl7PkQrjGQFiDaPjgCqtYZLVvc8PAGZQKJECBasjiCskfMVA4UMvpdlcGiAwf5+RkaGGCz1kw98cpksxWIf+WyWmZlpytUKi4tlKrWQSjni+sQUNyZvUQ8llcosjcigZEApn6Mchli8eJ79AL00m4LEI2cwgI40VhiX5yoExtTBaEoeDI+OcOTAbh49tIejB3YxvrOPjII+P2n7ZRBx4zmtG+jIEFhQeAiV+I0TkrJYy46Cq3oVwhkx1hosvTvaSFr13EcO7KWYP8Vcw53epnPL9wQrkgIJi9ANDuwZdR7y5ti7R2MxxjI5Oblq14kHH3zwLow4JWV9SA27TU4mkyGbzbr+riuQSAKsRvsN3Vi7rNBnSm+EEHi+x9DQMH7HA3/szhLJ9OiYn68zNzeHUj4G5zlxArLg6hEdBokQiiDfB8ZiTQOjQ7JKoMMqQ6U+9o6Ocmj3CGMjg+zZs4dt27YxNppB0fJdWBsHXEVycxh0RoUFa8BXUKvDxFSDKzenePm1s7x79SbnL16l0ijjK5/INLBWgpTo2KazyI7Q8D3tRnAfYGQr2A2uslMLiYamWLDTmgupVcp4pk5GRBw9sJuPP/ERnvzIhxjfrvBivTg/rlJt7XJJhI6tNA8hrdNE7PnQl8R24zSBpe807xW9DDwDHDx4sKkJd3fp/AxB4iFOXjBIYyj1+YzHHjvV3DO973dvvfUW8/Pzy35iEARpRWzKhiY17DY5/f39lEolZmdnV1xPa70muRMlk5t57OFLnXd3hLUWTyqKxSK+Irbh5LL7sVKpUF5cROWG4tCoC+UamxiAsSkgDMIYqtUyhXyWwYE8pWyBA3t28tChAzx89DDbh33Gcu6jDC7U28zxIzbs4s9dYrCL1ou+B8WxgMO7xnjisTGmF+DtC7d55dTrvPTKa9ycWaRhBJoAVOCqIlPWjMRgk31mk4xHg2cjdG2egazi8ePH+fhHP8RHjh9kWx+YBuQgVs6xCM9dp/WwQSZ+gggj7XLqmsZNb9pN7u61Vs/DtYSRwFOKXC7vngLuEcLSZnm6SlxtDDass2vbGAP59u/T+3tIKXnrrbdW/Jzt27czPj6+TqNOSVl/UsNuk9Pf398lyrn05iyEaMogrEbGF3jJnGMMqNYp1K7WkfYp7Y02BlOvMz4+jofLbwKX5OTyf5yZJbAIBBMTEyhPYQToCDzpoUMNNkJJhRAGbTTVxQWGh/p45PAojz78ACeOH2P7UD/jIx4e0J3C3manAW0GXddx60wfN0l8C4QbaUFAvgS7Hh3i2Uc/zoVPfZQfvPALvvH3LzMx33DjxpLzJPXqYpyf1xakTcP6AEgj2wSqW0ZdGNXxpCArQhrlKY7vHeYffPIpfuVzT5ITrS4Qsun9NUjVMs0yvkTHe9vzAiydRTQr+U17+vKWHC/THKt7OhBkPSgWId+Xh5l2w+5uGPhtqQuiq2gofvgxUciubQOUsq7T7UpPo5VKhYsXL65YcDY6OpoadikbmtSw2+T09/dTLBabxQ7LPXHXajXq9dWfrn3fhXfRlfW4n6dDAAAgAElEQVQe6pbBk5DPBqtOqhKYn5nFGoFNZitjERg8LIG0mEaFB/bu4diDT/PQA/t59JExijnIx5FdD1DWIoTzxhrkChIavc4N25kp12NObK+VfWAsy9hvPsVDjzzM17/3Aj9/423myjW0UaCUM15s6sFbmXiPC0NWKaSt0p8xfOyjH+ELn3qKRw5tR2sXFr+zPbl8led6YoFIs6b7yd3DfU9rDIESjI70k2H1b7+wsMA777wDdFUgt3HgwAFKpdI6jzclZf1IDbtNTjabZWhoaEUtOykl5XJS4r8ymQD6clm0XkAGbT6f5oSd5k6thIqLWYrFIhBXQXYZO4LWfpycnCTSGhOGoHykbwlrNfpLWR7Ys5NPP/skDx/Zz/4dilCDp9xFnWxNYzHCdITexDLirLD06Nmu97r/znS85/AizRNHShze/Tm++aMx/p+vPceiFgg/wEadtmESpk1z7hyJ5IwFlDGY+hwjBcnv/8an+cLnPkxRQGTBTxx83ZaKaBXitPZoe/5e51G8czMvCQzLzr9NCnjiB4pGA2q1yhJJnbtHPK62sH/yLNSXy7B/fOea8oEvXbrEtWvXXAW5lD3TU44ePbrmjj4pKR8EqWG3Bdi+fXlR0YRqtbqqYSdwE0o+n8fEyvWdagGpN2YtCAnZbo+d6PiPZAK+PTeDMSE2qpLxInJonvnYw3z86Sd46PAuxvudMaBwHpxOLAqLbc89ak7Mjm5DrWu6viMz3QJCQy7jBjKag9/77CNsG+nnX/7ZV5iYnkUFBbCek9AQCrMG8eytiCBCETGQt/xX//lv89lnDpMBGha8OATbsdts2/+i7X/a5T1M01v7XkOxOn61edYk13ubIWlxaQNho8EHMcVYZCyxYhBSojzJrrEdazJiL168SBiGK7ZYTCtiUzY6qWG3BRgdHV118jTGMDU1tez7SV6OBwwPDoJ5F4nCmK5WWPETukwNvJ4YaymVSmSCdoOqsxDC/RwBHgvlKrVqje3bcnzyY4/wW59+mgPj/WS91sUrmtpndBX7CWgKGxuXxxeXC1ohXKK70Qgh8UT7rcB1J9DGTWxSCKQSsYHQ/kGtETePdpdx2Qd8/sQeRnO/y7/80y/xxtUFbNCPjxNrDq0z7oQQTiNtlZQ7u0I3gPsdYSUKQSbwmJubYaAo+cPf/3U+/8xhIhuihUAIr1nkYmXLwwfxi8Y1VhAi7oiVlDwDIKmHEcr3mudOt+mSHGHNUqMv+T0CsoCOLKorKTOxJ5spG42uT1jNg/ee7xu9/04IS6GQY/u2wZU/1lqMNvziF7+gUlk+zWRoaIgDBw68xzGmpNwbUsNuC7Br165lDTshRFPq5ObNmytsxSBieY2RIXeTbG0zMUzuTQ7PfYswWKMJggy+30smwnlUmkoNgEfIr33mGX7rNz7Pib05JG5Sbe7pns074/87PHUyXlfHISoLKDyZNDVr/YlCxvqHrduDxjaNx+XEaXthtPvnQ4fG+G//8e/xz//1V7k+E4L0CLUFLw4Nbl577Y6Q0iOsVSn4Ef/1P/59PvPUQTQaSx0ImnZzu+1O28/WOocoAoSKHxEshNq1yipXPRbKNWbmFigvLlKPOq9ZbSpkswHFYpFsNk8ul8f3PTIZCAIX6s8AizVNPlDNz99YgXTT0oTUIeNj4+SC7oenToQQlCtlJicnV0xbOXr0aNpKLGXDkxp2W4CVNJeSPpJhGHLlypVVt6WAkZEhEAajTdck33bzXO7JfMt78gyZjE8u4/TjYidLFxKshxLw3/3hFxnfvQ0buYq+Rt1SxTTDnStWH8fv9YrYJY3DDJ12oMWF+2JnHVK5SlmBIDnUUXMLSz5qybQpFVgrMdbw6LHd/Bf/yW/wL/74L7hRhkxhqDmSJMfOIFf12m1myuUFShnDFz71BP/gqYP0AQ0UiDwWg7AW0YqxNkmOZaic7EkZmJg2vPXuFSYnF7l8/Ra3Zua4PnGLUBsaYYMojAjDsOPzNRqkE7gWQhH4QWzYZcj7hmP7Rvin/+UX8DMKr+s4LTGFmlW+d9/sa/mRE+PNde0IG1UeeuAQvg+rPXTOz89z5syZFaMbR44cYXR0dJ1GnZJyd0gNuy3A2NgYAwMDy2rZJdWyt27d6ngtod14s8BgfxFPSBomRKlsK37WM5s7pZtM4OEHvS+9Vu6ShwSO7N7mDEDpLlYvIwj16mng7TlUifHoltbfGuDa9QbzC1Wmp+eZW1ikUi1Tri5SLi9Qq1UpFIvksgGlQpFsLsvhw4cYGsgzXGxJprjGVr1FJGrVBtlcgDQKAfzSEwc4f/2X+ZOvfc+FCrVxgsqdEd4tg5CiLbxs8D3NsUN7+Ee//TlUZKkp93oURRT8jNtfxOrRsbSHxi0RMFU2vHzyDV58+RRXr01ydWKWyAYYPCKUyz2TIvbU+mjTutZdCFZhrUBZHyEEtYUk73aBwFaozU6wWP4COWXJZTfmwXK9ciUQ4hGyf88Y0HqIXY5qtcrExITbRg+vnZSSRx999K6NOyVlvUgNuy3AwMAAe/bsWVGkWAjB1NQUYRjiu8fbnjdCAQwMlujryxHVW34aQWfhRBpZ642wEcVcH4V8pkPVvz27rl1WxEvMMSmbWmFJkUQzfJo0jI/jmUYYBKppeFXibU5VYaZmePPtC7x19l0WyjUuX7zB7HyFubkyQnoICTbuSuC2RYf3dbBUZOfoMA8fOcCxA+M8fGiM0bgXuo3izP42gpwrEpFxW6kM8Ju/8jSvvXONF187RzbI0RJMkfFDRtv+khvTeHjPJPuy7VpRnkIISVibY3sxw+9+4VOMFaEVS5cYP+NWNrZ5stQNoNzxnVyAn/7sNM//5FUuXLhBpd4Aocjmt9Go1rBSkAlyrp+vNU6cWkq8IIe1llBrrLWuVZlwIjcWS5BrtUfJmoh8PkMuB0UpqIcRgafACtfn2MkxUmtApG1cOapb3/cuVMgue3YIA1qzY7CPvaMjWBsnk3QNoakDbeDUqdebhl0vr12hUOBDH/rQ+g0+JeUukRp2W4ChoSHGx8c5derUiutNT09z+/ZtduzY4SbYtklExJV4Gij25ekv9TFzo4IvEl20u3Pj3kwI6xbP98gs43RbEsrs+WpvDIJGZPBjy28BmJoJeefyNV4/e44L127xzrVJ5hZDFhcrgIfEB+Uh/BJSCKxqeW+a221rz3RxepGJ2QXePHeB/pzHsX2jfOKpj/Cpp44ilXD9R1ewxQyWvozgP/rVZ3n73HnK9QZCZtE2rvrYYoLFUaTJZn3X8q9W59lfPsGHjo6iARE1kJ57yJKJTzR2kRrrZAEXgZ+cvMn/9zd/y5vnriC9EogCft5SrZZZWFgg0g08T6I8TVHUyedy1KMG0zNz5Ev9aMDPZFEqoFavdwiNd5PP5VBxuqaUS09i97rTxQzDLsHzZgXtvblPCBMxvm2E0RGFsK5waTlBbCHh1VdfpdFoLLu98fHxtHAi5b4gNey2AKVSaYlSeuKJa4ZhrOX69etcv36dHTt2uHWkaNNrcutJYGhAMdA/gLm6gFBuLjZxYYW4B/k09zuZjE8mWHkdE4e1JbJVuSh6tPpqrg861qO5beDsuTleff1NXn3jbS5fv8nUzDxBvkQUJ8sLmY//VyCU89S1mXMdmZPxy5Fxyf1GChajkPqiZuKVt/nF21c4feUT/Gf/8VOMyLi1Vff4cGdQFkEdePTIDj56fD/P/+wcVmRj41G2db/dnLTr1AFYIQm1IQpDdu0Y4unHHmDAh4a2KJTrlNBeBKNiuRIBVeAvvnGSr3/7x1yenmNgeIx6pYaJGvhS44mQ8fFhdu0YYffO7fTnPAaygr5snpq23Jopc+nGFGcvXuXStVvYbJ/rcrLMg4TEUCj1NVvSKdlRgt3EU1CtVGOB4lVO9HUjqcaPH0SMRhFx9PABCnFXF3eBdP2Vdu81wpCfvfSzFT/h2LFja5KOSkn5oEkNuy3C3r17e77enksyNTW1Sk9ZgzWSggelfA5hXUN6EB1N6VPjbmWCIGi2+HKYJb+1d4cQNp4+RWcqelLskMxXIfDc98/y05+f5s3zF4hQzC5WkUEer28HkRUoTzQ9JpZE0NWgrEs2F9Ys8diYOMyGsHieQiqJlYpIa/y+DIthxDe+8xMWFsr8D3/wGQRuOu9lHhighJv8P/fME7x+9jq3FiKk9JZIb2x2jADleYSNGkI0ePjwER45uhu0xlfKeVM7ymss1oQIGVAF/vWXfsxf/c3zmKAfFZQolyuIqELRMzzx+HGe/dgJ9u/azs4dEmmgJMGzkES3NTBrYGIavv2Dl/j6N/+Omsm04pNdCAuFIHDpffF2TPyGbX8UEFCpRdQi2+p5e48QQiCtbZ5LRw7sQeMeNkzs6exQZxLu696YuLFq8dgjjzxCNpu9W0NPSVk3UsNui7Bv3z6CIGiGGhJjrj2HbnFxsVlAsbQFWeyxi389evAAP33lDErW0cIDgliNPhFBTY275RgcGiQiDs0KZ5653ewqQpOpvOkrbYD0DEJJwrb3Krh1z1y4zYs/f50fvfAqN6bLGDwQrr9skC1gkVgRh6Gsy7yz0rjPUR6RDskJi66XyQrNQF8e3/fJ5XIEQUA9bFCp16iGETUdsbBYQZAhm8lhtSFqaCIJf/PcdxER/NM/+Aw7vFhPTbYZhjij3wI5JM88eoDvHTvC3798lprVSBm0ynG3CkqBiNjRH/DxJx4m44NEdXpmRas0RUgfA3z3hct8+RvPE6oSFkXWa9AoT/PpJ0/wxd/+PA/syeHTusGb5GRqkyexQF7CwW3wT373CQgX+cp3Xl625ZxnYO/4djxAx/m3oivLLblbTNyex3hZiCSi7fi7ldbP2Guv8hbE55uFyCgGSgPs27OLLJ0e6PZK8iRt4PU3TnHu/FvLfk4+n+f48ePrNu6UlLtJathtEQ4cOEChUOD27dvLrmOtXfWpNcm1GxookvEEEKGFdKFDmyTBp0Zdb9Yu/SCJw65xLlUygwlcCE4CJ89P8fwLL/Hyq29y4fINsoUhjAxcRW3TYI+FhG1rBFbEIUEBnq+I6gtIWePBg6N86umPsH/3OOPjQwgBvhf3/Qxdsv4bZ85x+doNrl6f5q1zF5mbLTvdO6HoKw7zgxdOcuzoA3zxE3vw5NJAXXNKtwZfSD7y6DFeePUs5WqdTNbf1GeOoKtJPaB1A6sbbB8Y5Ojhvagl4fZOw8kgOHN1gT/5869i/AK1usFDY/QCv/7ZX+K/+eJn2ZYDG0bkfI9E6LpT1KRVruLhPHe1CA7u24O0Ly/rsQMYKORWLFx2tagwu1imERmsUHHhRPs2785RTjzYThdRM7p9hJH+vtYDEssXW7z11vJGHbjuPceOHVuvoaak3FVSw26LMDo6ysDAwBLDrrv66/Tp0x2VsZ3I5v1557YhMh7ULbSLaaRG3VpYbh8ZpI2n9UQ6xqkUY41ksW4QGcnZaxW+/d0XePnVN7kyMYn1PILiACrw0XWWnb2MaDe0DL41NBZm2JYXfOGTT/Nbn/sEA32Qkc6At221DCbnPCFHnj6M4TBlDafeus7JNy7w/E9eZXKmirEKaw1f/ev/wIkD/4SH9mQwS75qy/CXwIeOHWR8ez8z529SQ5LJ5DZ1d4kmwsQVzj7lRo3x0RG2DcoV+5lGwJyBr3/7h1y5OU1hZDclT6DDKqViH7/za59lMAeBiZxKYaMK0gfVFjZt4jyjVguscukV5y5c6+i12ouh4WEszlsX0TvcHkYwMzNDo9HAz/S6j9w9jBWgI5TVHBzfxXAxfp3kYab73BLUajVefPHFZXvDAhw6dCgVJk65b0gNuy1CqVRiz549vPvuuyuud+nSJaB3uX+CAIYGC/ge1CPTJokRpQLEayDxnsnYhdDs6NDUcmvPq3L7M5IwH0m+9u2f8K0fvMjNm4vUQkWQ68fzfYQfEWmDEJIVDl3TW+Sb2CuoQx5/6BH+4W9+gv6AOGxl0UkLMkQS5HK5U5UF8vkivoInj41x7PAYTz7+GP/uL5/jjbOXEEGGG5MzPPe9H7HzH36aQhAroMRj0oASroJaANv64fD4KG9fuEFQ6KMeRmx2MTtp28Lpi/MMlfo4/tBh+lj5m2vg+rTlx6+eIciXqNdDrBTosM7Y/jFKRXdDN7qG9PtcUpkVYE0ccuzlNXOyOGcnDCffeKdnGNYYi4wT80qlUuv1tny99q0aAwsLC4RhiBfYe3o0jXXfICBk17aBpqHsAgq9L4wwDHn77bdX1Lg7ceJEml+Xct+QzsJbhFKpxKFDh1Zd7+bNm9Rqta78uqXs2umxfdtgM39Kxsn3nQZJr2WLI0zTqIEuo85KbFXH1pez+iKgDnznJxf5H//ZH/OXf/33TM5ZyPaTKZWwfkCEIAx9tMlg8BAdfp9EHy4pkmm1fhMWPKl45MEjFALIxHWxBhHr4Dnp4dZoLdl8DkMDSYMAwzYfPrw/z3//h7/DiQd2Ua8sElqPn7z6BlcnDToO3QtB03I1uO8qgYyBRx/YT9YTRI3aFmot5gpVMr5HIRfw4AHXHSapOO1cE7R1Ic7nX3yF2wsh1guIjEEYd8QuXb3CG2euuGpVL0eif9fU2MEiiNAkNrYH+IRCMlODrz3397x7ddrlZ7aRGDvGWIaGhxgeGopDyq1uIcm4ibddr7tCrGzu3htC2rhuJwPFgMcePtRMZ0DYjqIJ2VZEcfr0aS5fvryst87zPD784Q/f7aGnpKwb6Uy7RfA8j8OHD6+63sLCAteuXVu1H6gERrcPxbIctLUPSnk/iIyKZ16fCMHl25r//d98mz/686/y2jsThBTQ5NHCa5OlkHGD0LVdzrLtJyU9Jien4/pLu6o57oz3CIFBEeHh7IbxIfjY40fJBJKGgetTC7x46o22CT+W1elIojdkFTx6dB/D/QWq5eWbr28GXBVy2wvCIIko5QJKeY+4xesSjIF6vUGtBq+fORdXm7qwd2QMys9QaWj+5js/4MKtKlYo14e3vWcqBhn7Yp26nKAKVAU89/wb/N2Pfk4oetcyKyUxRlPI99GXC5qh8uXEo8uVMpWKO5YrPRyuPxIvyBLVG4xvG2H7QF+8P50R3ev+ZK3l7NmzzMzMLGvY7dmzhxMnTtzNgaekrCupYbeFOHDgwKrhhOnpaU6fPu0q3pb0gW1V00kBe/aOYZu5OyaVOVkTnRNMcz9LAcqCZ7HShd3O3Qj5n/7n/5uvf+clLs8sIorFNoOuzTyzSb/VtiIJsXRxH9jy2Fk8Iu3x9jtXuL5ol62G7KSBJGoKJ0dYlHB5eR8+8RCF/gK5vgJa+Zw++w63K/E31gYV11DaZBzWQFRjdLDI6MggmYy/rIDs5kFiYi9m4uUe7C8yWMwjltHwEwIymYD5+Qpzc7NIBSYKyWZzTnrG86ibgBdeO8f/8kdf4uXLZUIlWGg0Wsc73rSPpIamBtwqw//xZ9/jT7/yTar0YWU+LqxpGUJCCISSGGMolUokTjghl1bEJszNzzM/P48QctUHxPXGWjfmRx88xEgxebFlsLVfI+CuvxdeeKHH/a7F0aNHU2HilPuK1LDbQhw6dIiRkZEV16nValy4cAFg6Y3Oimb7KiVgbNsQytC0HO7t0/n9ibUi9q4t877WCAkN4NTrb/P6ucuIwjA220cYV1Q6o6C1CEwr4rbSZ7f9nBy2ahjxzpUbnDo/0TI5e22n+VrcGdaKWD7ZBWwj4NK160TWEAkNQYa3Ll7iwpWb1Ns2I3D2a/OXyNCXhf179yIi7RK3thLGUsjnyOc6i0raUQIqNc2ViRtMTs/gexmiKMSYEOX7aA2ZfB8y28/r56/zz/7XP+bL33mFOZujjk8kMkTCJ0Qxi6CO4qdnJ/kXf/QlvvK336dsfVQ210qYS9IFLOg4OG91g3zeX1U+2gLlSo1yudp6TXQ/ztwtDPV6lXxO8cDBPWSTy6zrNtYu5bS4uMgPf/jD5uu9+OQnP9km1J6SsvFJiye2EPv27WN0dJSrV6+uuN758+ebP3fc7ARI4wyCADi8Zyd5IQgbFqECQm0Q7ZnysAU8MHeCxGqfSrlBHgh7zJJCuUtSWRjsz5Ep5ijrEIQHFqRJWr7H67dPxrR1FInz7HpNxEaAlK5fqJ8PmKk1+Fd//g2GR/6Ax8cVSW93a9pUKkTyT6ath7ALzGpcHuA3v/9TZhYW0dJ1kri9WObyxARPP7ADrdx4ZNPli9t4Nk8E7B4dR0QGMu47bfbK2HadwvHxcWfPtlekthm/1RDyOcVcOaJWBy18pNfmsRUCtCFQGSJtuTJd5V/9xbd47vmTPPah4+zbu49CscD8/CI3b93i7Lm3OXX6LAvlCvn+7Rgkka4jhfPjJt0/jLRo3cCF7OscPbzbDWkFb50AZmerLodSCAwGI0ysdQn0EMBeN4RBRxVGhofYu2ebk0RUtAq62lokWmORSnLq1CnOnTu37CY9z+PjH//4XRpwSsrdITXsthCFQoFDhw7x8ssvL7uOlJJz5845qQLf7/kUmzScH+kvsn1wkNnri0jhIUy0RKcrpRNrBY1G1KUr1qn9p43rHOUr2SZRImO5hs6JUcTyKHe+z51pUdd1stksVyYX+bdfeo7t/+hzHNyRcQnyPZwUumFRgftMbZ3+WejDV791ipdOn0eLDEYYrJAYIbkxOUOZtjZj7d46nNCdETC6bYSBQo5Zo9n8gYRWbqSNCxBcvYxw73R7mHDGc7kSoiMQgSKT8dDaYHXkDK3YAyW9AGMUNas5c3GS0xe/j+95SKXQUdT0qksZ4BdyRFbF17hpeuqIzzNIzhJNLoDBYnbVI6OByek555luI2mRp+6qvW7oyysO7dvFjuEAYTTWOskgJwYumvo9ynPn8HPPPYcQAqUUYdit9gcPP/wwR44cuZuDTklZdzb7HTSlDc/zeOihh1Zd78yZM0xOTvY06tpfGej32Tk2irUaIS2elz4nrIYQgnq9Tt12z99OUsSauF0T4Pl3vj9bIq0r5Nk134tbi1mLkopXX3+Tf/5//imvvD2JBBph20ZjVKCg0QANtRDmQvg3X36JP/3691ik0PTMCAvSSi5ducls1YVqTetrtsah3bp79wwyOFzkXgTsNhpJeL0XidfUAJXFMsrz8KVCa5YYTwlSKpTyyGazFPr6mpqUmUyGbDZLNpvF932U7M6Bk63ymdjLJZVAWkM28BgdGXaO1mW8dUm49drETUJtkdJzLb4wS6po7wYCgzR1Hn34CAXp9oM7z6UrlZXKjTDubmIizS9+8QustURRXFLSdc/76Ec/ysDAwF0dd0rKepMadluMI0eOrJgvYoxhZmaGmzdv9l6hWebofhgeLoFoTtspa6DRiOjhHAAg0rqpkO+plmG3UnJ3L9bqwQuCgFqthjaaMIJXz1zgf/u//l/+3TdfZWLBSWxEos0ws0AQMBfCmxfn+OM//xZ//a3nadiACBkL3EqkccbBjVuzLJbbqmtjwy4Rx0misjtGoL+YAWGwxmK2QL6mEWBlqxBGs/S4GWPxnBQdtVoVT7hChsTztlLIWuuIRqOBEIIgNu5qtVrTM9XrPmCEdMcmHkeSSpHzPQZKhdW/EzB1e47I2Nioc8UYyibFVXfnPiGkQFoY6suyZ3SYiibufBKnJliLMbFGonTeuitXLvPKK6905AZ35wl/8pOfvCvjTUm5m6Quli3Gvn372L59Ozdu3Fh2nTAMeeWVVzhx4sSSG13Siiqx8MZ2bcdSx1od5wmlcdiVEMLljxmW21Wt7hNKWAaKfVQXDMpzXXhXzV5fjTYBaWstCIPvxd0BlMQrbOPtG1Uu/NXf8c0X3+JDDz7AscO72TlUIqqVAbh4dYJTb5zj9fPvMltuoGWA0BFZpQjjASoB0vrM3K5x49Ych0f64x3g/uto8xS/tmtsmNfemcAkene29X3vWl7WPab5NURcSCIlfcWCK1EwGiuV6/iR5LlZgy8VVrf2gTtuSWixte1mfqV15rJSCinc74mUhx8EzfUjrRHSa17jLggu0RKUlXGFrKSyOM+OPeMMFjNJ6UxPNHBrGmYWFkF4rvDC6qTLLcLaWOx6/RBSEPgBjbBBtbzAwSMHeOjgMDLUhIBUrhZbCCfe3c6LP/sZ09PTQG9ZlqGhIZ555pl1HW9Kyr0gNey2GPv27WNsbGxFww7g5MmTy7zjquUkCgQMDZcoFrNUKiGIlRoipSQ0tPPY2R7dlpRyOnYGyOVyaGMwRmOsAq2Rd3EfWzwi6SG8LDUkr79zi7cv3KAYKIpZ8NCUq3WskDTwKFdCvFweaHVTSHLnRFyx29CCGzdnscf6Oz6rvXgA3I3ogYN7ee6HrzVbVm0FrBVUKpUe5o57pf14Z7M5rDYICUq8P3GhxCPaadA4b50EF5K1Tn/QkzDQ10fgrR7imVkoU6k1kL7C6DalRRt3qFmxadqdY40ljJwHMpvxObJvjMBC4Cl80e0fNFgNQrgea9/73vcwS3veNXn88ccZGxtb1/GmpNwL0lDsFmP79u2Mj48v+76UkiAIlmk91pZgHTO+e5TB4RKRDpGbxa1yF2nm2NV7e+xcyNWF3vr6+vA8D+V5eErheXez72YroV8IhY8g4ymUCqg0LLfmQyYWNLMNwXzkEYosNlsgIogXDyva9PWsC8U2QsvFy9epNwt5bcdka4x2eWTAA0f2OukWaZdWU3edd/cvnfvIGOs03wBPLTV6kpc8CaVCATA9rrPO6/JOw/bdmGZI3f2W8T2Gh4pkVzn9LDA9M8f8YhnPy6AjpyknhUUJi8Ku3zFMijsENCKD1oZ8JsPxY4fJiriNXa8xWgNSMHt7hpOv/GLFj/jMZz6Typyk3JekZ+0W5OjRo8u+Z4yh0Whw7do15ufne63hdKnihO/RwYDhfA501NXKKmU5Go0GjcYySXZtaGOwicfOtPZ7N+tfhc9pq2kAACAASURBVOxyoYx1uW4iCBCZApHIEsksoQioaGgYQWglWkhn1MXhu/ZxhTri2s2bNKLen+T0xNy5FAjwsXGbrDZvUlNU+X437tp6eVj3v9aGaqXeI8Iel8G0eZ1yOQ8pLcbE7f6kaOoRxoHb9z3C5rnUFrL3pGBooJ9gDZf37GKVxZpBej468YYlhRisrrV4p2PVCMIwRFhNzhfs3rHNFfZGGh11d5KQCCGJGjVOnjzJ5cuXl912Pp/n8ccfX7/BpqTcQ1LDbguylr6HV69e7anvlEzgAL6FQQH7Bgbp83PLVuktQZjlly2AlBK1jCegPTTWl89QKpUw2hlZLqdKuTyseEkm9fZqWOgUMO4QMza2uUgL0kgUKu4M67wrSItV1knnKUtkI0LTwCiBUcol2FuBlcJJm8RSGxqLiA0WK1x9TSQsU7enKVdbOiftfTOkbOnbjY0U2Tc2hgxDpBCd55PYJJ1NbHL9uBZwJpJEEfhAFPW2eixOgm10bJi+Qh5joo6KZmstFu1yMIGO23ryefEiUR1LQrNKOl6scKFTaUEqyfBg/6p5Owa4cnOWxQiE8unry+POhfXrE91d3W2NJZPx0fUKTzx2nG0DueaDgVSdzfASvCDg9OlT3JqeWvZzDh06xPHjx9dlzCkp95rUsNuCHDt2jEJh5Qq3mZmZHnl4LU8DxJIWERzZO+407NKwxZoIo7CZF9SNU8V3kieZjHvNxJN3gqW3MbeedH9G4hGyIil4cKE1adu8aW0YAVqAlYLFSoXpmV7eX5C+Cz0LY8l4sG1oAGI9xCScKO36eno2DNaFvefnFlloQJJXZ2KjOLFrLWCtpn+gj4FSHmPduWP03TB0u1reSYGUkr58H60RLv+XC9UGQmWIEkmRjvcTOZX1QVrI5XOYKCLrwWOPHCXw3HkjVa92Zu61arnMD3/84xXvV08++SRDQ0PrNtaUlHtJOhNvQcbHx1cMxya88MILQHfOTucpIwTs27+XfMHHsnp4caujpIpz7Oqr1ge2FTBuGEQsW5EsSthYuKTXAtKTzC7Mc31iit4t1p1Om5TOoN05NoqxGqnA81x3iw6v0/1Ol1fa831mbs8xPR3SS7YwWVtIyWApy9DwAJgQIS2RjuPb67h/OtP3JNY4jcN8X3ZNDxHz8/NIKTH/P3tvGlzHdd59/s7p5W4ACJAACIIbuIoENxGiKIqiKEuyqcWWY+eNX9uS7Uzimnjecs2kPB+mkpqq+TTf8iXzTpwaOzNOJXIcR3EcOd4U0TK1S9RGiuImkSJFUaTEHcRyt+4+Zz6c7r4L7gW4igTQP1aTxO1G397P08/yf8IwqBAWOpyuSUFMnWe/OJLHKxXomz+btf3zENI8k+KXAsYOcidOnOStt95qathJKXnggQeuflsTEm4QU+BJmXC5tLe309/f33Be9cN3586djR/GVSEy24b29hwdHS14foFEz645UY6cV/Yol8uNloiLJxrVodw8vXibGHFVIV8gHoBHCyVOX7jY1LADY9xZErpnzcQ0n69ciyrK4ZsqRGFUAQiL4eFRRoaLCBp7YKv7ALe3ZeOcQ62ru3Rc2fGJzlX1OTMeUrM+pTW2lLTmWpqev+rrMp/PY0kZSqxUwvS6zut8LRBAynFwhGZp31zmtBmZnfEvFcmLL77AsWPHGnaaAJODnOTXJUxmptDTMuFyWLNmTcPPo8FUCMHRo0cZHBysnacr4THC6rOu7ha6Z7dTLA1Nmzy5q2F0dBRfmYyogMg0qhQMCB16sYDOmbPifDhugv6pUoiaKSJqKBHK29ZorvlKc+78cNxXtum6gTlzu7AsRalcMKHGGm/UZPfamb6p0RQZxL6Cjz7+xBzDagFwbbyYAJYUpGzo7e0hnXYpFvPIuIrWHBehq/1TjfPaRN0EDYy7KrQ2ItYtLbmmg0UYdcUCzp07h2WbjhPjSYlcEVVFNEIbEezyaIGMI1m3cjEWE4upFEpFXnz51VjXrxGbN28eVzkgIeFmZzI/JROugg0bNjRsAaar9K3Onz9fI3tS/8YdDwgWzO6ZhZuq7Xk6lulTIDEeUfJ3dCSqj+p4uWQ3j8euOdXeJYPEtlzODw41rYytJpfNkGvJorWPqjEDr10C/o1lbE6iH/icPnWW0iUcn5453VhCk8tk6uZcn+OjAkUqlcJxJi6JLfrmpUWGrcqUCq67x86W0NM5iw1rl9Ok9qSGY8eOsXPnTiDUjKzDdV3uv//+JF84YVKTXL3TlIGBgYbJwVrrOKfuwoUL7Nq1q3aBaOSuGsEdC/r65pHJOrXSFA3CddOdK80zulkFe6NcOy2iKQoxhppqlkTYDifPnWO4PPFVMKM9R3t7axhmjAgrbafC46quClxaEt9THPvgOMVC5PWstVCqi4MXzptPa2sOITRj7istJyysudzCG01ANpfGta2GVbFamfxIgOHhgKHREZACpEBLSYBu2Kv4apEqbMNW8liyYD5zZ0C2thFHQ15++WX27t1r1tHAeOvr62PTpk3XbkMTEm4AU+BJmXAltLW1sXr16gmXe//99+P/179xK6EIMOryvV0zaXGcKdP66Wah+pjfrMZdLXVVlUKAlJwfGmGoMLEx0ZqF9qyDDnwjvRKFLq/rNn9KiLEvOVqAFyiOn73IkGfCsuMxqx26Z86gWCwiQ8Hq6py4a7adUR6g0mQyGSxLNDx3Suk4p61YLGKF3rrr7V1WUgE+KcvjzttWIwFPT3yVPPvss/F91CjHbsuWLUkYNmHSkxh205jNmzc3/Lw6bPLyyy8boWINEmGqInVlcIoMu0Wzupiba8OqeriO6R4AY3S1xkzTnbD/Z9QG1JwLddXdBK4Xus6TVu2diRpKKSEZLpc5PTg8roFmATNs6OvuQPumuETrAKOQFxCMm6F3k1Kn0TimwARFScNpT3BiGPzIEV4X045asM1yYeWiuQSej2Onqr7o+kifCKnJpFOEne6MFI+qTBFawdmzlb6rUcuya33NKt/HcRxkSuD5Q8yf28rt6+ZRKPvYQo0Z0AJfUy77BL7m4MH3agy7emzb5p577mmYopKQMJlIRtJpzPr16ydc5tChQ5w+fZqgWnetWnJAS4SCdlcwp2Pm1NQbu4FUez4aGso3JRUj3YjnQjHwOT/YWMsuQgCuhLasWyVGPLVD+UIItG0zVPY5+smZGtM10rOrZ8WyReQyDoRFKiIsWLle+atGE65x7U69kaS0Nl1S9PXp95tOZxDadG8JdJnli3pob4U210Y2CBZbtsCSFp7nsXfvXk6cONHUm9jX19f0ZTchYTKRGHbTmKVLl04owhm1F7Nsh6BeNytECGhtgYXz5xIVSEipa7wVUS5WgjHQhLy0QS+qLLwZvXXVVOdQVZ9lrTXSkpRKHucGL0y4HsuC1tZWgIpOG7VVpJOb2iIHITW2YzEyOsJ7h4+EuW/VCsWVjLhQ1Y9Vy5ewoHc2fmm0oTE3Xk5bjUf1Ei4pITVaBw37GgMNPw9CY76xyPWVI4SAIMAvlZGBoMVNc/tAP9kJ9sOyBamUy44dO2qMznov+MaNG+nr67vKrUxIuPEkht00ZvHixSxevHjcZc6ePcvu3btBgGU71A5M0hgpwrRE6uqaBVS8TDe7MXIjqO8gcTnLq0lQFTs2GGYo+x5DF0cm/H0LyGZzCCEnRRXw1aK1RgpBsVjkxMkTYQi78t4UKvkhUdgEuEB3O/T1ziTID4EK4q4g8hJyzK50Gy/1VFxPb53WmkKxiFcq4AjobG1l2aJ5lMpFyl6x8faELtAjR4+y4/c7mq5bSsnnPve5JAybMCVIDLtpTEtLyyV1oDh48KCJwwiIEsCEsBBVNWgKWNG/jFwuDYRtfcJE6kZvx9MVM+hFCeaRJyP802D0rDEEb2ZDp0mOZHTeVQAXL16ccDUWMKOlBceySKfNtSS1nLJFOVoZP5xjpzj+4QmOfTiCF+nCCRAIbAQ2ATaawCuSAgb6b8G1osBt1XEfrw9zKD48Ns9vvA2UKFVpKdcMISGby8aGar1eXrVu3tWSyWTQ5QJ3bRpgSW87Odcm5TRv06IVvPjCixw4eGDsvPCeSsKwCVOJxLCb5tx+++0TLnP48GFTQBER6ddBHB4CmDnTpqurCx2+tSeMRVd5VS7lEEWG4PXQAbt+GK+ujERzfZBYjI4WJvxNBaTTadLpNMoLrpkxcLMShKF2y7IYyRd4461dSNvcVz7RvRWFoX1sNASwalkfHdm0KVSIDtJ1yrHTWqPGEce+To7Chji2gy1hVnuOZQt7sak+RmO3UVrG6Hx7z9vUVCPX3U8DAwMsX778Om99QsKnQ2LYTXMGBgbGDT8IIdi/fz9Hjxxp+MIeee18oCMLC/sWIKSM3/SnjrDstUEIibQklrSa5i1Vc83V+z9FItkLpTWWlIyOjsbzmhkDgYJsLkcul5vU+36pRMaFbdsUCgUOvX+UQgk8DaY5Qq0WpGWBrQNWzM2ytG8BZgmJEtevqtwYQQLZoFfXp9rpLeysMTR4kQW9naxfs8h0mgjtM9WgajrwNadPneUXT/4CKZs/5x555JHrsskJCTeCZMSd5sybN2/CPLtz587xwbFj48RSKoIXc7vacQjwA59Ai7DVUSWcNtU9MNeDT0MX7FohiUJ8JvRnZHQVWA75YmnC8gcNZDI26bRbVTwxNVFhLlosDWI77H3vKMc+vkgQQKqmMUL4giQllm0hgfVrVxp5oeg4X6ebK/AvT2ZGXsfrVWtN2rVZ07+YrjawNJhGdo0RQvC7Z37HsQ8/HLca9rOf/ex12d6EhBtBYthNc3p7e7n11lubzhdCUC6Xef3NN0x/xQYOOFmVbXfrioXMbLXxlIeSFgEarUT81j/dqc05jHKPwj+TOAcxzttSMv6/VqGemeXg+ZKRUZ9Tp0vN1wEgAnKtLloHKDUFDLtxNBtlVWdTc5xSjOoWDn14noxN6IlSgA2kQacxZUomF3Fg5TI629M4BCgCfN1MK69C06rYagmjGInWgkKxRODruJetkJUJKv/OmjkLp8r7f63TBwQK5ZeZ0ZZm3epF5kiEyXsmVzXckKoy3MDz+Pm//htB4NV1M6nw4IMP0tvbe822MyHhRpMYdtMc13VZt25d0/lROGz37t2Uys0HZTDDz/zuVnKORoaiuglXz2Ty2NWjtUZioYVktDD+9QMghMZxJI4z/R5NCpvzw2Xe2HOQoiZ0b4dvUrGxUrmnejpnsHblUrzCEFIrctnstdmQukKYUqnUsEtDPem0IJPNxqF3ra79M8DSPgNrV7F88WzKkbZmGKJt5LU7ceIEO3b8HtCknPSY+VJKvvKVr1zTbUxIuNFMv6dnwhg2bNhAtsmgEHmXTpw4wUcffdR0HVHVW2cbLJo/F6kCVOBVvAZJZwmgzmN3CctX55lNVkNZSLO/xWJjSYpqJJJUKkU6nZ60+3s1SGnz/rETnLkIBS8SOgm9a4Iaw252u2DjulV0d+SQKIZHJq46vlyEEHhlj3LZn/B6zaRhxowZqCAwFfENerFeDRJF2hbcunIZbRa0hi3VEM3rdZ944gmGh43Mjm5QALJ27Vq2bNlyTbczIeFGk4y0CaxYsaJpf0QhBEopDh48yIEDRi5gPO+RC6xc0ocISuhyKcyvux5bPTnRWsfHI7r5agZM0ejDyY1Wl6dr5joWtuNcxy26eUlnM5w4eZo3972PdKgtB2hwCG9bO5/Fc2ej/GJouFz7gpNy2adUmjg/EiCXzaKUQkpr4oUvE6EVnW0Z1q9cOmZbajJEqo7Tb37z2/DaEyg1NhT71a9+FddtLpWSkDAZSQy7BLq7u1m9evW4yxSLRY4ePTrm81q5YpP7s27FUjKOJOs4CB1cNxmGyUo6nUZok7NkER3DitKXCozlF6hKo/Jr7Pz41BBhlw0pLUZGRsjnR5suG/VDtSXY4Q5LLCwEljDTVENixZMQFq6Tpqwlz7++h3y8VJXsc9110JGBtUsXorwijiXDQoxx2rDVa9tFNOvXrCXlss9wKFWjdSV3rtELXkd7BzpQlPJFcumcybmsmhrn8l0aQgdsWLWMJbMh6pIb7WVoulUtDM9sf4a9e98hCHwsxgpet7e38/DDD1/RtiQk3MxM0uEi4VqSTqfH1bOzLPP2/eqrrwLNc74E5pk9e9YMutpa0KpM9eCixNW3FZrMCA0ojZuycdyJFe4LBcjnzfB+qS3IJj9RAnx1FfX0CeMPjRZwMlneeHs/Rz72Y2O3kZEmgRYJa1f0Mbd7FinXGqc+9NKJe9RqiZQ2Ra/MhYtDl7Tm1pYWIPT0B9fmhS565ZHKY2DNClKYfN7atZufoueS9uHJJ59kcHAwXkLXyaFs2bJlwhfahITJyPR4WiZMyOrVq2kJH8rVVBtwL7/8MmfOnBnzOVQ8d5aArhmSpUsW4pUK8Vv09ZJimGxorUilUqRSzUONwhJoBUMjPqOFEsKyQYqGDeEnH2Hv2yZPnppCzSnooRsPjURYNqMln7MjRZ59+fXKi5CO/4qRGANn9S29rFy2lHKheQ7jpfaGrUc6NsWSx9nzg/gw4TXY2dkZi2p7fqXg4kq/X4St0oQK6JzZzoa1S8LPoVbm0FxQnm8KdD44fpRnX3gWJUyf4YBgjGH61a9+FTlZXeEJCeOQXNUJAPT39zfMszOq86a6rVAocODAAZMnJiXlcnnsioRRe1+2aAHl0SEjWxGGX6aGYXJ1aB3gOBaua1UN07puGWP+FIvFuPBgejNdQvkKITTpbAZtpdm5az8+YSB2nGsg68LGdcvpak0htUKFLeuqaZjnOoEXVAuwpMTzfAZHRic8CxJob01haR+037BY4XJRSoEOkMrjc/dsprM13LZwY6rfLyUSS0qUX2bHjh0cOnQoXGbsdixfvjwpmkiYsiSGXQJghIqb9Y2NHoznzp1j//798eeu69Y9NDXgkwL6+ubROWtG3EIrEBgDb1qj0JTItThYVtTe3Xxa0bOAQAVYEgJfUSp6CCmvySA5aajZ1bo8sKmMUGhZxlMlUrkZfHjiHC+8dgxPQbNuqyXPxwHuWjOfBR2CwCtR9gKUkKRSGYTQSGGKVywEVvWfqOezsKqqtc3POnyhUFrja83QiMmNDMa5DCXQlbXoSAUQ+Ehpm++QAinMNDaPL5QqEfWTmau1wi8VmdORZevtt8aOS4E2+ak6bmBn1iYtfK14+umn44ryRr2qt23bxoIFC67kLCUk3PRM8SdlwqXiuu64eXZRsvQ777yD1ppSqbEmmcKnAPTNn00u46B1kHjqqtAYj53j2mjGr2IsFotorbFEpSPmdCLO9ZpOCD8MH0oC4fL8q7soaRo0yzJYlo0AZmZtNq9fRcYFdIDWmiAwGXr6Cq+d6PhLIRjJF5lIhVAAHS0urSmJFBUL8PI7zlTuCcuyKXt5blk8lyVzqytfjVxQbUhfIoTknT3v8OKLL+L7jQWus9ksDz30UBKGTZiyJFd2QszAwEBTPbuIl156iYsXx9PLkkDA3C6LpX3zEVHM5Cqq4aYSWmnSmTSpVO3nUXWf1hpLWgQKhkbz+Aq0FAToKZSnGO9t1f9VZY4ALepbnEyPnsOqbh+PHDvBsRN5PMBr4C6zw8UzKYdNd26kp7MDqUoov0xQ15JNaCMZUplocF+GPuTwWhNYIB0uDo8yNDKx17ijvYOWlhZsy27Y63dsrp35Pqmrp8qy0k3hpmw+f/9dtIqohVi0Q1Q7ugEolz2effZ5Tp46gRZ6zATmObdx48YJ9yUhYbIy9Z+UCZfM8uXL6evrG3eZd999l3PnzpGqt0xCNCYsIhX0L51vqvTCMGKSK2aqW13LMe2QGoRXVaAQwuQOFQqRxMTUC8OafRq7X9U1AtMq/FyDRIYvRMc/Ps3Lb7yNAAIhmnruFLBgbjtrVywl55gK0kD5ocBxs8d8xfCSNH7xUkphSZuLw3nyBX/Cl4tci00qlUJaobzI5YTPG8iw5AsjrL5lGSuXdobLjL8K3/d56qmnTA5ek/fIBx54gM7OzkvfroSESUZi2CXE9PX1sXTp0nGXKRaLvPnmmwBxUUU1JotHkxKw7pYl5FI2qAALbbwL09xrJ6Wkra0t9s6JeBKI0E0ipEkOL+RLBL4y1X9KY93EqsWibqo+z56nEErT3tqG47qYkFljyRwNFMpQKpqKSjUFjdrxqXoka4mHw5vvvMeZPIzXZS2qkP385+6hPWWRtgUZN1WjOad1UCOHooUMvXjhOiIPHsSedqUFWC4XhwsUSsGEVcvZDLS2toSFVabXrFai0je4CQIVfqeKK1kRCukVuO/u22lJUXkPqNmIys+BH/DMM8/w/PPPV4w6XTv19PSwbdu25gcyIWEKkBh2CTFSSm677bYJl/vVr34FNPKoCFSYxuyi6e2cQU9XBxofmjTgnm44jkNHR3v409jworTMz0LC8PBwmCs1eY+dDBPzI5kXO24SLxFibHcCBfgeeL5fZfjJummKoiv7J1EoAZ6SvH/8E3bvPcIIjWWHoyNiAbfMT7NpYA3KL1MojNQtEf6kx35WQ5VRbjzIkmKhzOhIvvnvRL8qoLVlBoFf3W3kMs5b+N1aSCQ+C2a3sXlgGcoDXR/arUtRtWyLp556qnG1fsh9993HwMDApW1LQsIkZQo/JROuhE2bNk3YYmfv3r0MDQ1h2Y3bBgk0goA53VkWLVyAWUqhVONk5umEbTt0d3cDIKtEh6MQVzQYCmGqkCcNDboWRFItlpQEAWSyGdyaVmGNvbelkqZY8mDaiDI3R7guH58f5NmX32Q0lKmL5HAaGXhp4O5Nt9GSzSBDYXEVig1f2uO+Kic2/L8lbUolj/MXKrm1zdIqBDBz1iz8GsN8YnSVKLLCVMUKrfjs5nX0zoCcy9jrIfox/Jq3336bX/7yl2Pnh2QzWb7yla9UvVwkJExNEsMuoYbVq1ePKwPgOA4HDx7k2LFjDefHL9FCYQG9XTOxRYBQAq2sqS9ZMQ4SRUZquma0mAjSOHaLJ+DCcJ5gUpeFVkL1WmtSqRRWPKiqhsn1AEWvHIfyKtfLOG2yphiyKjzquGmyrbN4c98h3j5wgrIGmnRwkYAKYNPaHlYsWkhQKpoMO13lgQuNJj1uSkRlnpAmjFv0YWho/LrYyHRsb8uifC8+90pMcN6qPYQiFDpXCkeX2RR2mvD8AN3ohpGgfHM0fve733H8+HGcJn2GN2zYwGc+85lx9yEhYSowfUfZhIb09PSwYcOGpvOllHiex1tvvdV0mbBUAgSsWjKfDkdiawsCB6WNNlY0TXWU1ghp9rlcKpDyC7Q6God65XxqtD2KAo6fGwVpYVkWUgjEzXy4opyoBtsoEQilyaUzZDMVQ6+R10drGLwwiB8ERketyoS5qff/GlEfJlVCgp1iqKDZ/sJOpDAh1wBznwXUmkxOoLF9eORz95MVGlnO42gfcyRlxTNm1o4WqsbIk7pKzFgoo6eoNSKV4/3jn6AZ31tnA3O72nFtjdQq1sMz/YJ1fJ0oWTWJqFpW4jppY4iOjrBp9WqWzpuNHYBjydp2aVW5dcI23u0f/OAHWJZVeWGoy6/78pe/THt7OwkJU53EsEuoQUrJXXfd1XR+qVRCSsl//OI/xl1PlGu3ZH4PczpnUMwXpmR15+UgtaKjLUvWEnVRIglamJCZMuPQ4CgUAiN1IhEIPbaJ+c1OoJQRV9YagaKtNYdjQdxWrM5A0Bijw/OCMXlS08Goa4QKFL6CQLh8cPwMe49eoISxacZkXmpQ5TJpCRvXzGLd8iXYgYcMgprCiEtFaqNhB6aIYqRUmrj7hIK0BSnHHVtYVW00NkEAquzRkXXYesc62rKEAsuNfzEq4Prtb3/LBx98gFKqYU5qX18fX/ziFyfY+oSEqUFi2CWMYevWrQ37xoIJxfq+z9t73mZoaGjM/Lhhdzj1dFosXTQfx6rWLJu+dHV2kU6njSxMk7svUDA4GBnRobfuJpeKiYbdajkMKQQqMJWYlgiY2d6KLSaWbykWixRLHsJKHk9Ka2NcSYsPT55i+46XKFPx2tXjZFIgISPgyw/fSy6XwdcBCFWpdB33UqrNxVPKR1rGSB8ZGZmwLlsKcFMpUqkU4jJzJKWGkcERLK1YvqiXdWsXGgFiGe2pHKNbZ7ZR8dOf/hTP85peWw8//DCLFy++rO1JSJisJE/OhDGsWLGC5cuXN5wXhTlOnjzJyy+/DFQP1LpKNSus7gTmze2ircXFlo1DddOJGe0zcN1QW7XBsdCh7N/w8DCe78Uek8ngrdNV/8bGgw7QOsASATNa07FZP56hWvY9PN9DTNOOG/UorU1unHR47Z39fHQ+YEhXrp9KNwbAAuUZr9naFT3037LIfKA8hBy/00kjopC51jrWVYw+b4bruriuG/+e1hqt9CVdw1nXoS3lsnbFIrpaG8jW1a1CSskbb7zBU0891Xyd2Szf/OY3J/zuhISpQvLUTBiD67pNk4yj0EehUGDXrl01CfCeXyZ+pdYmwzsINCtWLMSxNaXiyLTTsZPCaHhJIbBsi1xLBssKQ04NBHhN5wn45JNP4rZtKhoYb+rWE+ZRomHsOVYBlvTo7pqBhFDmpF7CxPy+Aj766CRCCKSU0y8EG1cXhx1Q4yppCZbDidND/Oezr8RdF6IrotoXLjGh144W+OxnNjGjxUVoD0tUNO0CzFSh1lNX/wImhKBULnFxONxMJdANbmUhoK2tjZkzZ1EsFqvWHW5nfC3rMXJJQgN+mdkdObbcMUA6/DxAoLVAqbCrctWvaa35yU9+QhDmZDZi69atSaeJhGlFYtglNOTee+9t+Hk0MADs3LkTqHhfHNutDA/hw9eyoKe7nTmzO2jJpseucBohhSSbyRoBYqq9VmpMEtno6Cg6UCasrSvD7s1s2gFVRl0lj06isPGY19M14a8HAZwfHDQxvYmqKacRU5KvqAAAIABJREFUQggQFoGV4qkdL3BuqDoUW3WMVACWAgIksHHdXNatXEyxOEpwBV7fqJ+qEIJioUixUKmMbfRiIjDpGq5rKlNrBZIn+n6FJTw2bVhP35w0kb9WhIJJ5hjomv6wR48e5ec//zmO4zSUMZFS8u1vfzvpC5swrUiu9oSG3HrrrcybN6/hvOgB/dJLL9XJnoTZ//GCYBHQ3Zpi5YqllIv5GumF6YaUktbW1jg/asxYIzTSNqbbyPAwKpg8x8p0CxjbC1QKgdKK7q4OumbNmNAw9QI4ffosQsiq/Z88x+FaUZ1KJoWI8+ysbAtnzo/wm6efaaB5ogCf6HhJIGPDZ7duoLtrFiWvcUuwcb2iUpgqWinIl4qMjBrRYyEgUGOz/ASQSomqloOhcV5npEcVsTVfhaJzVitbNt1Kh2lYEx8MIQRCRBJBCq01Sin+9V//lePHjxMEAZ7njdme/v7+pNNEwrQjMewSGjJv3jxuvfXWcZcZHh5m3759lQdq9CTWqtLvMwwX3bJoIVlXjA3TTSMkilzKeDVF6IWLDKF4bBXgaxjJF/G0jvPVomFxskUmfaXw/TLzenvIZcdfVmEqgc9czAMSPYk7blwviqUA4eR4/tVdnB32w+tBobRf8zCPJE2yAu5Yt5BlfXMQ/miNZEhFL6/6N5sPCVIICnmTZydk4zw7DbguOK5A60iMZWLNPKnB0j533dbPkgUO+aJpViN0tS5xJPAiUIGpfv33f/93s5Ymmohf//rXaWtrG+f7ExKmHolhl9CUZuHYiFKpxHPPPVcJgUjLPHcDiBJwlG/jK+jrmcXcWa3Yk840uTqCcMDxA5+0m6J7RgcOpqqxdigy+UOBNj6XcyN5fGEbHTMUk6GdVmSAQpSjZXTMvMBnXs9sWt3x9yAA9h8b5MOzIyiS7gBjCPPvrFSGD04N8x+/f9n455RCKQ9NEIawLYQwnYW9AHISvnTvRubkQPt5CEWLqz11QlXEoCMR44BKCFUIQb5QqMqbg1TKqcmzi85tNg3ZnA2ijJA69LY1ruxWSmFLCEpFOjI2f3D/ZtwAbEuHune194k27SmwbIuf/vSn7N+/v+nh6unp4Q//8A8v9ygnJEx6bu6RIuGGsnnz5gnbix04cIDR0dHwp+qRwvzjOuYim9/Txtyu9mkdioXIM2E8EQ2rYrUx7gIhCcTkvz2F1NiORd+CuTRuQFdBASfPDFLGQQOWMIK2cZ5hVbHAdMWybQJtUdI2L+zczZFPBikpkNJBREJDouKXkxKKJbhz/RLWr1iEg0IHRrC48sJgaBaSNSLbssYr1uw21oRtA4UfeuyoDcNGhSGhEWnZAscCO/BYt2I582ZncPFwbDOvFmmKSJCcOXOGH//4xwwPDzc9Vl/4wheaVvcnJExlJv/IkXDdWLp0KatXrx53mT179nDo0CEAdLlcEbGrVobX0J6C1Sv7r+v2Tg7CooK6O0+gEKgxOWqTBqHC9lW1O6Z8j7nds1i2aGH1JdGUY8eOo7XClhIprZtev+/TxiiWaGw7xdlzF3nuxTcoKRdL2Bg/sB0LDoHRs7NscCR84eGH6GzLYKsiUlctVXfOqsO1UZqAsCTqikLjzV7kjHEnNeSHLpBNaR5+4B4sAbZtx+e93k8dFWy88sorvPjii02/ta2tjcceeywpmkiYliRXfUJTOjs72bRp07jLnDlzJg6HmBZh4aM4HI+98AU+78GSxX3Xb2MnGc1uPCnCJu9hKzKYWK3/5sTsYakwxILe2fR0ZmncwbOW06dPg5ahJIohzjNs0iN1OiG06UYhhcVI0ePZV9/m5NnRsLWYiFuNRZPCaNrZwKplPaxfuQxXK0RgbsyaqtUxDcoqaKVNQcsl29njDS2hlIs2IVjtFRhYu5zlS1pxrPE1DoMgoFgs8k//9E/k8/mmyz344INs3rz5Ujc2IWFKkRh2CeNy5513jvvWGwQBTz/9NH6pHOqshZMSaG1CQVKALWHRwk56e7pRKiAIB5a4Z6wKpylOsZSPk8GFAFHzRyMxhp3WGltYk+aYSCWRSsbFMUoYL6SjfFYuWUBbplZzrRGfnM7z3uEjSMu6ImmOqY4AhBLGK6olwslx7NRFnnv9HTSVetg4zTX8N1INzFjw9S99gc6WFF65aDo1INFCVnrEhkLCQun45/iulqIimB0+ErSsL4+oL8Ro8LM214rQEuV7dHW0sO3eO8jYE3t0LcvihRdemFCQ+LHHHpswjSQhYaqSGHYJ47Jx40Z6enqazvc8j3fffZczZ85gp1zMJWVFugQgogARtObglhUrCPyAdDodG3cJEWHPDglWlTEtqwRrJ9st25pN0b90IUF54i0/cuSI6W4grDhhP2EsIrwetHbxrVaefv419h8bjA256grq6qwIC1g4x+b+uzfhl/O0tbWZFyslru+Lla6+bqvEl7UkY7ssXjCXDesWkmLia8TzPP7hH/7BtDdrcn185jOf4b777rtmm5+QMNmYXKNEwqfOpcievPvuu7y5e5fRvELUanCFsh6WMAbLbRvWk8lmKonYQjGtJFD02FvOHCvzua+Nd9Oy7clp+IbepCiDa/H8XhbO7aYtRSWZnorxESnkeF7AO3v2mHlax90pZGLc1aIrBpLCphBYnDg9xK+f+n29imSMDJe2gBzw+Qfu4ZYlizl3/ixxxxAhY4mU64/x1kltCmS23beVGRLSTOyx2717N9u3bwcay624rstjjz3WtNd1QsJ0IDHsEsYlm81y9913N50vhGBoaIg9e/bQQK+0BhtYvjBFZ1uKfGEU2UApfqqjqisW40+rvHFeGQewhSSYRALF1Witw9CeYvHCOcyeZQyOSFx27C9Awbd479gnBNpqbMxNJ+N/AnRY3qCExEllsFItvLr7IK/sOQFUjOZKsYoJ0kZXWd9MePjeu0hrr7ZKXY/1CMfiyFBTPHGlA4dWGhF+p6UVG1atZKB/SfgyWBFXbsYTTzzB2bNnm+rWbdq0iQcffPAKty4hYWqQGHYJE7Jx40ba29sbzrNtG6UUv/vd7xnNj46p6qxk3WksoK8VVi2ehVcaRksx5ZPhhRAmN0laXBwa4eS5c4zVxzdIwFEKB1g0fx6OJRANB7AbeNtGHtYGk5Am/0sHYAmBCMoMrFneNIAsCbtvCNj93sd8cLqEknUlFtUezmlu3GlAWxptGY+mhcAvlcmXAk4MC3770tuMqkrY1eTZBejwT1DVhOyzm9awbskchGcKEIx2Xdg+TEcC2gJbSCQizrdTWsemV7OzYQGWrCp+CYszlApA+ARBGVtCxpE8uHUjc9sgg8k3He/KPnDgAD/72c+aGnVSSh577DFmzpw54bFMSJjKJIZdwoSsXbuW/v7mUiVCCA4fPhzLnjTDCnXI1q1YSMYJdcqmEUrA2eFhCqp2UKwW1hdSIoHO9hbSdihjPEl6pmqlkdLIYuRHhpjV3sLi+T3YEFZcNjjfwviTDhw9wdlRDx13CE24FCxbksq2oN1WXnxjD2/teb9ylHWlyrX66rGAeR3w9S89TGtKIlX4qtEgTQCMiLDWGsdxyKQr/Z6bnSUPatp7ReLEUlqkbJuWtIv2RlmxuJc1K3pJxzdAVOZRIfArxujjjz/Ohx9+2PRYrF27li9+8YtN5yckTBeSJ2jChHR2drJly5aG8zzPQ2vN8ePHeOnFlxosYYIscf6OhrX9t9DT1U7gFYxRo+W0yLVTQnLm7CDFsvm5kWo/YXi6p3smKVuEQrKTBxVWQFtBifWrlrNoTg4bUKjYdwRV+6uNFM7+946Qzuaq5ky+QpFPgzh/NbxfbNto/dmOw4XhPL985hXOFTGFCH6JqG+JRsYh3Oio9q+cz8plCxBqFIk/5v7ToeSO53mowBQ8ZbKZWES7EQJByTNdaaSUscc6Mu5cKwV+mVbX4/MP3MnMCbp9Wbbx/B0+fJh//Md/HHfZr3/96+MWeiUkTBeSJ2fCJXH33XeTrnpbb8Rrr78KhP1hm1xZUsDc2Vnmz+5AFYfROvgUk7ZvPBcuDlMsh4OtrjJfwhZcSGPKzWzP4VqhOtkk8mwGQYBlS1ozNhvWrMQh9EhqYUJxMcaIKGk4OwQnPjlPvujXiOsmTIzWmnzedH5xUjl27f2At975gNEAhLBQVQZdvd93Vgvcv2WAGS6h127sS4QO5U+U1riuSyqVMjqLTSpoNZpy2aNcHlv4IzWooIwuF7h93XIGVvWQkuP7osvlMuVymV/84hecOHGi6XJ9fX184xvfGGdNCQnTh+QpmnBJDAwMTNiFYvv27Xx07HgsqKtRxmiL39hNwnSrhK23r8fSoesqkvmYoi2joiII13G5cHGY0VJgpCiiNCQN4Ic9nUwOU2eHZEnfbLzSKAhFKuVgZO30Td2ZQgUKrzTK4nldbBpYWEniFwIpnVCpr2JiWBLe2HeYMxeHKQeCQAuUEgRa12jZVVdaJ9QeD8d2CAIfy8lQDFx+/ssdFMrgB6b9WHR/RRmtkXCxBWy7ewl3bViJV7yALRUWGgsRT4XRPI5lIZQmlUoxa1YLoJDWWIMs+rlYLIetvmSobVmhmB+lJWNz/+Z1tNjRlqmmHkDXdblw4QLf//73x9Wl+/a3v01vb+8lHbuEhKlOYtglXBK9vb1s2LBh3GVOnTrFrl27CFSA53lxKCZCgukCqmD+7Jl0t7ehtbqpDZVriRaSfKHE6XPnGVtAXOtPcSUsWdhL2jW3aBD4Rt5B3rwHS0mF5UocS3PnhtW0p4zxgDZafFLLsJ8pRPs66MPed48wXFZY6RxaUOPBnbQt1j4ldOg5M/9KHDvD4cMf89sdu9CuVZEdCq+vSOsu0rdzNHzu7g10d83AbjAaSCmxLZMe0DlzJmnXfCaavIJpNKOjo7VdIaJqW6GQlmL1yj7uvLUPW1W8ekI09tzl83n+/u//ng8++ICgSUuznp4evvWtbzU/SAkJ04zEsEu4ZO69917sCSRKfvXr/8CyBI7TqIGUMtWxOmB53wIWzjVv2HoaXYZDo3mOf3SyTgtWhS4Y498KMHlqa1YuJZNNESifcrkctmy7ubFsyaxZHWwaWFOTJSfqLbZwVz748CK79x6g6AOWjRAWQljIcEq4PJSn8ZXk3596iY8vVsuemF6+1eaYBFICBtb0sm7VMkrl0ZrOIUqAdKSpxNWaub1zL+lOHRoaYnB4qMFLiCKT1vzB5z9Lmw05147Xp8cEig1nzpzh8ccfb6hZF/G1r32NBQsWXMKWJSRMD6bPiJpw1WzcuHHCB+hrr73G+fPnm87XWiGERXuboH/5YqRWCFTo2Zsc1Z9XikIyUgg4dW6osRcqTEzUOsABlszvJeNItPbx/PK4g9uNxEhgGMFZUcyzvn8ZC+e2GcHZqFWVrtZVkyAkHvDC629zdqiA66TwA920MjPhErHAbW3lk8ECP//Nq/hxf12JQCKoDePqoIwLfPGBrXRmJVZY0SMsI1gsLaNHiC7ROWtGzVfVnynT1sxiuFAmP1pECIGSCi0qunVbNqzmthVtjIyUqzpdyBqDs/o6/9GPfsSBAweQUhIEwZhuE+3t7Xz729++0qOVkDAlSZ6iCZfMggULJmysvX//fvbv3w8YqYKaJuNaEODG+T3rV6+kLW3jl0cAhaf8KVdIEQm8SmFGyZJ0OXD0BMOjVQtVLB4AbGFC1r2z0qxavhSpPHKZFNZNcLcav09lQ2w3DcIinc0hg4B25bFtYC1tDgzlTaitWq1Q+KZopKxtPhmGtw4eoRDYWFaajD02hyqqphTSTAnN0UJRsgJGlYdvOby48w3e+/AcAQKJg1A2gkoY1vyShQg0G5bO4AtbbkUWCxQKJYSwUQJ8pdCqTEcGblnYXVOzXI8CisB7H5yipW0mWAIrbYMt0b6k1Urx6Bfux/Igm3Zij171uqqNuoMHD/KTn/wk1sqsT+0A+MY3vjFh7m9CwnTjJhgqEiYLUkruvvtupGx+2QRBEDfolvWWiDYFFFKYgWVO1yxmd7ZiaR9NQDqXu45bfxOgJbaT5uTp85w6N1QRKq7pBQt2WGBgAVvuvB1XaCwRgA5qOwXcBJRKJaQlKRXyjAxeYNncLgZWdqN9yGVN2L7aWA8CRals5G/eOXSMT84P45tMvLj9XMKVEYSFNb5WBEJy9uIIv3vxdTyMVmCppDB2k47/WLaF8sukgYfu3URvTzs2AUoFaCVI2S5+OU/njBSzO1tqzk/9lRj1pj155jwj+VGU0gS+wiuXUaU8mwbWsLA7TVoEWLZoWCnleZ7x9CnFP//zP3P06NFYE08pVSNO3Nvby3e+851reAQTEqYGyXM04bK47777JlR2f+655yZcj9QwZ7bFysWLaHEthNB45fKEvzfZEUJy4cIF9r37ftyw3Xjs6nXbzP+XLVrAgp4upPLi5HZ5IyKyoW6aDH120f904CFUgC7lmZGxuW/rnbRmIW1DTUe0sDjTTkm0FAyW4NWduzl37kJcgQlVHrpwSrh0BGApEFrhax9P2rzy+ru8/d4gJQ/SaRm2eouWDz1mUqK1pndOG/dtGcAij18uIrUkCAClWbxwDt0dmdjj14whDz48cZJAC7QSeEVocTJ0tAoeemATtlXRpqtGhn+iytd9+/bx4x//uGnBBCTeuoSEZiSGXcJlsXTpUjZu3Nh0vhCC9957j71796Lqe50K00NUhDp3EtiwbiUZSxEEvgnrTeUcK6EIlIcXKPYdOoqCinFXk0ZuJg0s6hKsX7UcrzAS5yPeTEjLQnsetiqxZEE3d23qxy9DOajkzitRyZ4sA7YDR08Mse/QUbSyiGT6tJ64V2hCc6SS2MpUHwN4Cj45X+R3z71F0YdCufaNoLqjhBACV8I9d99GV3sa4ZscuGK+QM51WDyvh6xbuUqrz5LE+AAVcPLjUc6dHyWdzSGEYEa2hfzQebZuWsfKJWmcCW5vz/PwPI9/+Zd/4fjx46RSqYbL9fX18cd//MdXdJwSEqY6U3gUTbhePPLII+POP3v2LNu3b0dp1dADIzFeAxtY0ddLb+cMUJpSyZvyeVQSRdEr8+aegxw6pSgDFS3X+ppF4+jaeud6ejo70H4p9GzdAONHR31EVWiIGQ+jhSDnWujiCPduGqA1i/HKCGPAmzCsQKMIMCHBUeD1tw/y0SeDpNwMQki0DlB6rHcm6T9x6Zh7R2LhgLDQ0sFy23jupTc4cOg0litimZ047F0VJxfA4i6Hz92zEYsyfjmPrRUdLS3cuvIWXB3K11A5L+ViESD2uB44dIyzg3mKBR8JFEfOs2jOTL76pc9S3VekGY7jcPjwYX74wx/ieR6lUqnhct/61rfGbXOYkDCdSZ6ZCZfNli1baG9vH3eZ559/vmGz7mgYEdr0jp3dLlizfDGOJQnQ08Jf49gOw2XFy6+/bQbI8C4M/LDIJDwOGjOQ9i+ZyW3rViGUH/ZcvTGIqhy4SA6jVCpRKg6zZEE3m29fS8oGS1YEbKpV64Lw54/PBLy4czfFwEIJiZSmelJxc4sv3+zoOFAuEVqClpSKAYWCYseLb3BuuK5HsRA1HWIE4Pvw4P1b6J7ZSsqFdMpiTlcnS+bNI9Xg3KTT6bifaxp479AxPF9iu2kcS2KLEvdvvZ2FncSV0eNRKBT4m7/5GwYHB5sus2LFCr75zW9e4lFJSJh+JIZdwmXT39/P2rVrx11mx44dHDhwYMznFYEDY9hZAQysW006nUZMA90yWwosJ8Wop3h+5+uMeODIyPCJOnmGnTgwXk1Hw9bNm2lrzYEKkDewxVhFvsRsYy6XxisV6F/aR19vGktqBGE1rKx0OdAoFKZB/Bu73+aD46dIt3aAtqty6aaDWX99UCI06oSZpJbYGtBlfK146c397Dt8esLuHRkblnSl2Hr3BgqFc6BG2XTHALPbZUUnRZvevyo8Xyos6DlfgD3vvIews1jSJV8YZdWKedz/mfXkAFdMPODs27ePJ554Ii6YaMQ3v/lNli5deolHJiFh+pEYdgmXjZSSBx54oOG8SK5gaGiIX/ziF/Hnjbx3EsimYNmS+czp7ACvOLUvSC1Bu0iZJpVu46NPzrH/8CkKQFlBozzxckmRtmHVklZu61+KQ4DQgcm1qxOTvf7errDvqCD8boVXLjF7Vjtb7lyPIzHN5LUy1c+64uUT4Zkd8uClN/chMznyhWp5GxWvM+HKqTfcbNsm3drKmeECv37mBTwBgRDxVJsrp2Llnfs3r2fp7BZ6ZtjcsW45XokxMpPRdwnLQQMHD5/k3PkRculW/LJPT0cb2+69gzkzBUX/0l5GfvjDH3Lu3Dksy2pYfb969eqkJ2xCwgRM6XE04fqxbds20ul00/m2bfPKK6/EP0fVbZEBIjCjvgBmz4Db1i7FpYRUXjy4NJomNxKls6ggh++lKHs2v3vpVcoYm89JWWOMM+lIVABtNjz6B/fT1ZpBe2XwiwReyYQwhSKQZlJSxRWskeF3rdCAJyWeBC18Y8R5RRYt6GH5kh4knumbUZUnKRTgaxwkaeDltz5h13unGCz4Zt/C6yEy8Iy/cuz2i9BITGiM1CYIawltPLpSo6XAk5Ki0li5Gby27xC/f/UIBYznNK9Db6oi1poMggAXWDWvhS2r5nH3qrks6HKwUhj3cSyCJ+KqWqWhBDz/2m5GR8s4WFi+x+2rV3JH/y2kNLh249zQ6he+nTt38stf/hIwz4tGL4N/8id/knSZSEiYgMSwS7gi+vv72bRpU81nUhq5Aiklnufx9ttv88YbbxD4AY7jmEGkykMjtEmot4H+pX1kHfPZ1EWCtlHKMv9i8/rbB/nwrKbgg1flsYuMGCHMZKFZPC/L/VsGcCljCYUbykboyIN2jQ25epSAQJrvMzmSilxacsdtq+mckQn7kVYRGmOWLcA3xsR/7niFoaJGSBukmDA0mHA5KKrdalHkNBCSQEg8abP9hZ2MKJPv6NdVrSshUSrAV4os8OVtW/niA1vJOrE+Svx2VaNnJ+HjQdhz8BhuLodfLjJ7RoZ7Nqxldithbl4Uuq39Tt+v9Iv9q7/6K06dOtW0w0rirUtIuDQSwy7hishms3z+85+v+UwpZXqaKlMNe+bMGZ555plYqDgIwoblVV4poc3gs25lL3O7Zo41DqYUCiE9ED5K+mgkQxfh3558BmGDY4Gu8kvWGncCS8MXPnsXq5b0IoJSTbGJpRSOUpX8t2i6DvsAILWNpaC3u407NqzGiFJELp3K90aDtKdhz4FBjhz9ENd1YokNCEN61217EyI0kp173+Wtdz5BAu2hMKKRozHnIuW42GEItG/RIhYvWtx0fdG9qgW8sfcDjpw4i5IOShfYuKaPrRu7ca3Kd0fFHdUopQj8gP/8z//k17/+9bht87773e/S3d19pbufkDBtSJ6kCVfMww8/3PRBG4V2fvOb3zA0NGRaAoUP+eqQmiWgWIaONNy2ekXcWUGrKerLEcr01QpFfrFzvPn2QQ4fzzOsotDY2H2POnb0zoLHvvwguZQ02naoSh7b9fZ2hl5BoY0Qrq0VG29dSfdMh5HAQ4et5o1nsvZXAxte2PkWF4aGsW0nER++ASgko57g6RdeJh9AlPamw1C4RlD2TdFC9G9zQ8tIq5R0GR94a++7lIXDaHGY+XNn8aUH78ZR9bp3US/kyjrT6TT5Qp6/+Iu/oBhKpzRiYGCARx999Ep3PSFhWpEYdglXzNKlS9myZUvT+Vpr3nnnHXbt2kUQBCaZPnx3j1ABpC3j69m8YV3cD1VrHRs4Wul4mtwoLBEgRRD3ji2WAs4N5vnV089RCg00rTW+72PV2T6WMJISd67r5WtffpDWFPjFUVpSLpYC104hqfRVbTRdLUGgsG2BKhXJORabBlaRAtKWRaWpVAVhmXDr8U80O3ftNbp1Std0QKim+lxrpU0Cl6r0G064crSQpFva2PXOQQ4dOYMl6gKjCqS0UIBtO2ilq7yqOpasqZQ6C4Rw2Xf0LLv3H8LzNe2tDtvuvZ0lC1pxqM2L1eF6ovMY5dD93d/9Hbt37wZoavB/73vfo62t7VodioSEKU1i2CVcMa7r8tBDDzWdr7XmwoUL7NixAykkvu/XDeaSQHk4gAvM6W6nt7cn7liRSqWmgDFXj6oZ7ITroC2b5196k8NHLwKmx64QgrIfoJQmsmckmsArkQIe+8LtbNu6ibT2UOUSrusyOpK/7ltv2xZ+2cOVkpVL+pjTPRObqL9t48eJAN585wCnB0fRcupL2tzUWJKLoyV+s/0lBuMOftp4YeOfzAVX/zKgG+jQlYCnn3+VwZECKdfiloXdbNu6DsuGsleq1FoQ5vv5PlJKAj9ASsn+/fv527/9W4QQcRVsvXG3detW/uiP/ujaHYOEhClOYtglXBVbtmxh8eLmeTgATz/9NKP5UZNXpaOOBNIk4SuNlKY4YO5Mi7Wr+5GWxLIthkeG43XElZJTCCXA03nK+OSLFr/6zXOcGzLtGuywMMKyBNXjnBVaxhJ47MsPsO6WJQSFEcolRa6lAy2u7y3tui5p18GVPqtuWUTPDBcb44kVsUlQy6khzXOvvEG+rNGX+cjRdVPC1VEu5ElnM+x8531e2H0MD8IAujl/lqhUrwpEVZxWGC9rpJwNeALePZHnrf1HKXk+rRnJHz54F20ZTM6lmwqVGdUYsz9QAaVSiccff5z3338frXVNFWzUqSadTvOXf/mX41bgJyQk1JIYdglXxUThWIDDhw+zd+/eMaE0rbXpNapMzpkD3L1xDVnbQym/RjYDQl20a7z9NxZl2mkh8aTLa7vf5ZXd+ymGuUlR1WtF60OBMpWFLjC/A/70sT9k2cI5eIURVFCuXbeOqoyvkUGsJdoHr1SguyPDHev7sTGenpoqyaqfAgnvHj3JwSPHkelc0lniBpPN5Ui5Oc5czLP92dc4NxQAYb9eDZWK2rF+zO0qAAAgAElEQVSiisqk1cWTB7zy1n4+Pj1EqTjC7QP9bNmwglxVimV1BxIBuLYTr++ll17i8ccfN31qXbfh9j766KNs27bt6nc8IWEakRh2CVeFbds89NBD2LbddJkLFy6wfft2hBCxAyBGitDLZMRSVy5IsXJBK/nR87jpLEFNU6qpIGAra/4vhIUSNtguowr+6ckdvP9xgZIGCJB4QBmJb46Q5YJSWKH5tGZJjv/5zx6lv68LXRrCEgFYYEuFFJXfUyIUmwg7E1zRlmvQpQDH9+lf0sPyhW5VqC36W5o9lEYGY9iHnXveZzRwKOOM8dg10yf8dASXpxla4pVgNB/gpHLs2XeIF17db+4oKcASiPAFItKoi+R2RHiiAuB8cYSigqMnRtjx0ptcGM4zr2cmn79/C6408iYScBQmiZbaWunANxp1f/3Xf82JEyfQWlMul6lnzpw5fPe7320oVJyQkNCc5I5JuGo2bdrUtCG3EIIgCNixYwcXL15sOF8IgQ6tvS4b7tm8lowj8UqFSrPyKUSN3zKU+VACAmxOnBvm5799joKGEc9ofFlxtjpUD5EWJjfxloVp/pf/8TGWzZ1FUBrBlZpU2gEpjPhvzbdfuXEsMO3Psq7DhlUryApT9NKMADhxDva9fxJlp5C2y9Q7m5MLhY3GRguJEjbbf/8y738Utu/yYaLzYwHpdJaShu3PvczHZwbJZDI8cN+drF3WRib6dR2+qjUo2LFsiyf//Um2b98+7nf96Z/+KQMDA5e9jwkJ053kKZtw1fT19TUNx0bh1xdffDGufBuPErBpw20s6u3GDrwpJ1hcVQ8cS7tEyeJKSHzt8PQLr/HEr9/Ed1IEOIAkbv4kJIiKHlg+7yOKsGpRlu9955ssmdNBafg8hZE8yBSBsAlEaH6JsEX8FSerKYQK6O2aydo1K/D82rky6kQQLw1v7T/C+ydOxd9/uUZldbu0xIN39UTXnMKIFh/68CQ/ffK3DBaNJI1CImhc4GIBWhXJINl/8Djbn3uVfNlj3erl/NdHNmP7Jey4UkIjZJWeYtRjVilOnz7Nf/+///u48ibr1q3jO9/5zrXd+YSEaUJi2CVcEx555BGy2WzT+UEQ8OSTT467DhEG6nrbLDasvgUXr0awWNWHcacg2rYpBjaP/9tveXXPKUoKjF/ODLZxC65w+ZlZG+n75CSsWZTl//zf/huf2bAK4efxi6OV9WIG2OAqDqDUoMoFli2cS0+nhTPGXVe7bg288+4R8oHAVxrll6dYjuTkxJwDSSBsRKqF51/bzTOvHGLED+VMxqtw1hIdAEGA1Iqe9hRf+9I2WmxNq+0CutZFrDW6qihCSsmPfvQjXnnllabSJo7j8Od//ufMmzfvGuxtQsL0IzHsEq4JGzZsYPXq1Q3nRQ/wn/3sZ5w6dQohBCpQDR/svvLwNXzu7jvobHFxZdToXoK0UEqgtI6nyY4UIp4QJnNOOjkKOs0//stvee/YcGjauiBM4rmmkpumFbRlbYQCV8G8FvjLP/svfPORe0kFI/ijF2NtwJLnE2hxxZ4vgcLyy9y+dnWYP9V4uejj/UcH2bXvID6WKZSp60yVGHmfPiIMxWskATZl6TIUSP6/J37BgWP5UEcRSiVvzOCgAA8LaZkWgH/2tUd49MHNbLqlnRnVZ1RAdSm31jrWStm7dy/f//73K5834L777kvkTRISroLEsEu4JnR2dnLfffc1nBc9wD/66CN+9atfASbPRgVjLQNLWLQI6O3MsXRhD0G5RKC1MXqmRSzOFFQgUhz98DT/zz/8nOODUNAVg8mCWOA3KpiN5EayKZiVgT/9yt38H//rf+O2FQsIhs5g6zKuBVfXsk3RO3sW/bfMw27i1PG16XnrA/sOH6NQCkwepe2OaSeV8OkiqBWFVtiUcbBbZvHJUJkf/eRnnLpobLJMyqEUx9qNMSjRWJZFSWkyjuaeTet4aPMAuapqdVXtrhOAFEjLinPtfvCDH/DRRx8BRqeynlwux/e+9z1aWlqu9e4nJEwbkidtwjXjoYcemlAd/sknnySfN0K6qkH+nBSmW2p3G9yxfjWWFPiBj7QknvLHLD+VMAOvkSixtUCLFPuOnOH/+n9/xumhgNGyjyQA7VeE3WL3l4gHTynACeC+9XP43/+nR/kfvngPs+wSKX8UW5fBL1+Rt1NqWN2/nIWdzZdxwxH+kzy8vvsApVIJKSWOnUJYdoN+sBXX37Sw228SopB+KRD8/+y9d7wV1b3+/15rzcwup8I5dDggRQGRarArQayxYokaFbteTTSJMdEbe665uXKNiSQx6k+TKMZfYoslxRKVaECNwQIKoojSRPrpu8ys9f1jZnY5Z5+CAh698/Aazt571qzps575lOeTFQ7aqeDNJR/w6GN/JrwtYwW+doNG4yLJIkmjZJbKpEXfXglCeuYXySs4vwXXqJvO8OxTT3PPPffkZqfT6XbbdcoppzBjxoztv8PdhNaaVCrF1q1b2bx5M6lUCtf9cj93Inz50FlSW4QI24SpU6cyfvx4XnrppQ7bPPfccyxatIi99toL27aL3DHSgIchbTzctGbS7iPp328BrRt8Imi0+D/xKmLCUk9CkZWS+W8sJXbvo3zzrJkkbYkKhZrzWrIQLCMB1wNH+Zazwb0tLjr1q+w7dRLPL3iD+a+9xbrNLXhuBqFs370dxFT5EY4dW/QkLpPG70bag6RfRoASgXYoBSvWbGXpB2tozWRJOH6dYM8NRaaL15Hb3wg7FIa25FmitUtzawrHsvFUnCeemce4sbuyz56jCGXrBBIPF6FdjBTY0s9uNp6L0Bosy2+pwQhTFGLhZjJIpaivr+e/broJzwui+KQsEiQGGDhwIJdffvlOkzdpaGhg7dq1rF69mvfff58VK1awbt061q5dy9atW9FaU1lZycCBA9ltt93Ye++92XvvvaPSZhF6PCJiF2G7IR6Pc+yxx3ZK7FpbW3nssceYOnUq2WwWx3GKyJ0QAkuAHTPUDapg4u5DWfH313AzkrJEOZ7bXu/qywIDeIHGnJaA0HheBikkL73xPt49j/Htc46ntlySakpTWRELrHW+Rl2oERfqGtsqyGQEJo2oZtyIaczY/ys8M+9lXvnX63y8fgsyXkHakwgriRECKRWywF+XyWQQQiKVpLamFxN3r0NJP8heifzjIySV2vOJ3ZL319KclZQly/1AQC8LxkUJjTFezi3ry26QC7iPrHY7FoU6gsZ4WDIgYtrFUw5b3AR3PvwXqoecw5DaChwPyh2fj2utUTgYqYOywCKI+xS5ezhH6oI/WkgEkl/dcSfzF7xC1k0H6y62GEspueKKKxg9evR23+empiYaGhrYunUry5Yt45133mHJkiWsXLmS1atXs27dupwXoTOUl5czdepUZs2axSmnnNKhqHKECJ83hIkqa0fYjli2bBkHHHAA69ev77BNXV0d8+fPZ8CAAUgpix7yOpDkELhkiPPcmx/xkzn30eJVoEUMXUIR/8sIV4IR2i+/5mUQGY9ejmDvPYZy/unHM7jGIa4gdGX6xErRVUpCCrCB5Z94zH/ldf69+F2WfbiahpYsKReU7YCw/Dqhwh+wlZQ0NTXxtYOncvWFh5Ag7wEOaUKhyt6WDFx92yP847UlJMqCWKlAqw+hC9zAIanrvoXm00u1RAgRClR7RiDReVKGi/BaUV4T+0zejcvOO5NhVZDxIKEMmjQK1eZ8tRGcLpEQtWDBKxx++OGkWlNksqUlTqqrq5kzZw6TJ09m8ODB22QVc12XzZs356Z169axcuVKVq1axdq1a3NWufXr128X16qUktNOO41bbrmFvn37fqa+IkTYEYiIXYTtjlmzZnHvvfd2OF8IwV133cW5554L0MZiF4rxunjE2WTghz/+Hf96ayV2slcJwd0vCQISp7RvxfKERCsRWFP8jASVbcJKr2Pm4QfxH+ccT4UC33bWVry4a7OXayCt/SSHFas2sfT95bz97oes3tBCfVOW+vp6mpqbAFDKIp1O8x9nf51TjxhHvIs1vPlBA1fe/GsaPRvthVY4f588YfnJMEV9dF9bLyJ2nw2FVUfC+y5H7IxG6gw2GuGlOem4QzntxL2oFFAOaDJB/djuE7uGhiZOPOFEnnv+eTzPRQhTMhtWSunXIY7HSSaTVFdXU11dTWVlJZWVlTiOQyaTwXXd3NTS0sLGjRtpaGgglUqRyWTIZDKkUql2+7YjsP/++/Pggw/Sv3//HbaOCBE+DSJXbITtjrPPPrtTYmeM4bHHHuP0008vyozzB4U2VSZdmLbvV3h/xXpatYcushN9+SABjB+GLoxEChspNAiDpWDUqF3Y74C9iOU0ZANxv9yA3QWpM37ckxVzEMogEUwcVsNuw2o4dsZU1jVAQwvU1zfS3NzCxk0baWxoYMuWrew7cVfsTtaggYyBpStW0JJKYSwJwnf+uTm3rS7RQ+exfRF2FiRKxnCcGA1btvKnv/yDQQOqOGz/0X5RCgNqG++9u+++m5dffhnPy2JbDq5XOpQiTFpIp9PU19fz8ccfb/PW72wbxUsvvcSFF17I/fffH2XxRuhRiCx2EbY7UqkUhxxySIexdkopevfuzeOPP85X9vwKyipUug+V8TUeFgZYuRW+f+1trG9yyWDjfkkV0AQaW/tOVQ8LjYWQBjeTwiFNXZ84l547k0ljB1PRZnwNikL5UihdrCekUL5ttFCgQpZctjABt21NgsL2LpABfjj7Xl547W2ywsKxFZmsh1ExYokkGAvL8sl8JpsBEQov+z3JLiqNRBa7z4a2dYKLrOVGQkaTcGIIA6nmDYwY5PAfZ89k2oRdQGva5zWUvtqMMbz66qucMPMk1qxdA2iktDDG65SAdSRa3B0UxvlJKXOJGt1FuO5tHRJ//vOfc+mll27TMhEi7Eh8eU0fET43xONxvvGNb3Q4X2tNY2MjTzzxREnJEx95ktGnCvactDvZ1pYgq/LLC0+CJ3UuHk1qD4c0/Xs5zDr1OPbYfTBlfgIixvhuLS/Qf+3OeKTbfJOQi8xTaJ9OmuAvGsv4MXkOBMXNOn9oNKWhusJmxv57ctxh+3PSEQdywmH7s9/k3Rjap4JYtgGvcT1u0ybiwkWZSEqip8AYD0OW5satGLeJqiT0r60iGyQW+Nmq3RsyGhoauPXWW1kXCJKDf9/vSDtCWHc6rE9d+Ht3lgOwLCuXldtdknn77bezcuXKT7nVESJsf0QWuwg7BKtXr+aggw7igw8+6LDNmDFjePLJJxk+fHjBr4XVVIWvhA/Mf7eJ62bfSYMn8ZSN0X47LfPxWcIUZ/31RAgjc+TUCJ1PKoBiKRDjoDRYbgv9e9mcdtxXOWT6eGLkLWeW6/lJDgWyw6rD3Tdt/hZCtm8G+czGTvan7eoyrsfG+gb61PTCA7ygv/oUbGlIs3TZh7yz5D3+9eYSPtnSiI6V4ckYrnAwQU3cQqudFnkrXWSt2x4Isq6Dc1tksQuSJ+r69WLqhBFM3WMUu9b1Y0h13HeWa7eEFEnxd6012WyWefPmceyxx+bqwZaSNymFz2KxC2GML6SslMp9r6mpYejQofTv35/q6mpqa2uprKxECEFzczMffvgh7777LsuXL6e5uTm3rWECUWeQUnLXXXdxzjnnfOZtjxBheyAidhF2GC6//HJ++tOflpwXi8XQWnPPPfdw6imnoo3Gtm3yzCL/gPeARg9u+fXfeOaVt3HteL6kmDK5CgzQs4mdgHzgufAtVb6Gm28J0UJjpOsLFGsLS7tUWhlOP+EQTjx8Ckn8rFYDKGNQrosSEilV/qhtK7HrKCO1G6QOStlvfKeth0EFnXhehoy2ULaft9vswftrmljw+ts8Ne9lPt7SgifL0FhFa9QCjBEojJ8p/QUg7j0d2gTl68KQB+MfW2UyKDIcOWNfDj94X/YYEMtVKHY1WDJ0xud6yvdRYMcNz8769et56KGHuO+++1i4cCGZTPdkij4rsUskEvTu3ZtRo0YxatQodtttN4YPH05dXR29evWipqaGeDyOZeXDy0PSuWnTJv7xj39w77338uSTT3aLiIbbfMYZZ3D33XcX9RshwueFiNhF2GF46aWX+NrXvkZDQ0O7eeED/JhjjuGPf/wjSqog1q49sdP4g8u7q1v49nW3szEFsbIEqWwKoVRxqSTZZmDYBimNHYlwq6QOdepcQAfEznd8GgGxhEG4GbzWVhy3kVknHMLJX5tGjeNbQ3RoMdH+cGo8D2XbeK5BWSJnMVm6dCnDhg0jkUhg27Zfn7dgoAqP//awkHQHubxdA57wYwIzwEeb4E9/e4GnnnuZtGdjlINWCo2Hr2ds+cSDFNKAEXZE7j4DhJEkkzFam5vIZlI48Rgm3cCUsUOYddLRTNy1Fou8Vbggh5ZiYufhR1WGxM5fSrZ5cdiwYSMvvPACCxYsYOHChcyfPz93HRpjchaxcOouKioqqKurY+DAgfTv35/hw4czZMgQRo4cSV1dHYMHD871L4VsE8ebR9t1CiFoamri1ltvZfbs2TQ2Nna6HaEbd8899+Sxxx6LMmQj9AhExC7CDkMqleKkk07K1YeF9kSid+/ePPjgg0ybNq1NVqzIid6GaNVw3a1/5vl/LUFVxGhKtaLs2BeH2BmZ284iYick2jgYAen0VspsjUo38o1jDuGM46fjmDTltl2k+Re6KAsDvsPPL7zwAhdccAHl5eVce+21HHHEEcRiMTzXyw1wnuuhjUYptdOU/v0N9Q+GR57cpYEF/17H7XfP5eMtLahEJS6CxuYWysorUdqvauofr1hE7D4lhBQoFK6bJeZYSJ0Bt5l9Jo3mOxfMZFAiEJou4Y5vT+wMPrHzM7g1doHdLt+BMb7OnG3btLS0sGHDBlauXMmyZctYtWoVGzdupLW1laamJtLpdNF1bFkWVVVV1NbW0rdv39zn/v37069fPxKJBIlEAsdxcGynHXkr7Kuj39oOf9rTSCXRnuaOO+/gW9/6lv97B9a7kNjV1dXx7LPPMmLEiI5PQIQIOwkRsYuwQ/H73/+eWbNm5URBSz1oL7vsMmbPnh24YtsjfBhngJffaeG6m39FfTaDsR2Esnz3Ulti10MIXQhRuD25WDqNkeHA6LshhclSrlJM33M3rrjgRCoAT4MlfaulEqUHovC4vvbaa3zjG9/gvffeyw1aBx10ECeeeCL7778/Y8eOzVnwMpnMp1DPbzvAfbrj7FfKgJasIWEL0sDbyxuY/cvf8sG6Lch4FUZZuJ6f72sZPx7RSBURu08JbYzv2pbgZdPYIs0JM/bi7FMOpsqBRNiwJLErBRNcDflGbYldOp0iFgt7bvuqFvTSpvJM4e/hvFIvHyHZ6urFpNQQVyoDVnsaIf2M2kwmg5KK8y84n9/85je5F6BsNtuuHyklNTU1zJs3b4dUzogQYVsRPSEj7FBMmzaN8ePHdzg/Fovx8MMP89Zbb3XajzEGAey+W5Kxo4chdZZ4WKOyMAGhh8KU2L78bxpJBosMltvMnuN25cIzTsQyYDyf1KU9n6vqNiOtslRukFq6dCnnnXcey5cvzw1YSinmzZvHt771LaZPn84555zDvffeyyeffPKp4oG213tgSADigYRdAhg/opJvX/ANJowagm5uwPKySFwkbkDUu5+VGaE9pBDYSiDQZLMtHHLQ3pw+82CqHVBemtACl4MxXaiBC2SQ4BROgZM1N8ViCYzxOqw4UShR0valLyRNoaVaa90unCAkdcYY3wodZN6G07Zk4kolc/05jm8BPPnkk0kkEnie12HYgjEG13W7HZMXIcKOhrr++uuv/7w3IsKXFxUVFaxdu5Z58+YB7S12ruvS0NBAv379mDZtGq7bPvOu6KEvAVXOO0vfJ+0aNPmYK4MIhpmeyPKCDI+cxU2gMWjtIU0Wz2vGZJrYZ8IYvnnW1xlS4Q+2lvDFSHTgZWq7d2GM0ltvvcX555/PwoULcxbOtnF1qVSKRYsW8ac//YnHH3+cxYsX09zUTENjA7ZtY1kWlmW1ywh0XRelFJ7rtUvOEB1na+C5PhvtqInUAiX9uCzjZVFGMbhvkpraASxe9DYtrSmEEjlSp0WhEHOEIgQi1gJ/ansPaKkRGKTxyLQ2MmH0MC459zj6lkGCDJYKbaglytKF914gqSPaeGRNxkNICcYUVI4RuQZCiFyGatu+SxG6krtXIGVS+Fvh50KS11H/HX3vaDsGDx7Mgw8+yIYNGzrsO8y6Peecc6ipqelyXyJE2NGIUngi7HAce+yx3Hnnnaxbt67DNvfeey9nnHEGo0aNKioH1JbkJYAD9qrj7/+o46XX3sEqj2GEwlc/6blvzCUtikIQlzbac7EsGLHLIM4+6QiG9QKhtS/PLHz3lQxiDkth9erVXHPNNbzyyivd2halFO+99x5r167l3nvvpaamhpEjRzJ06FB22WUXhg0bxvDhw3OlnBKJBIMHD8ZxHIzpWvQ1jN+TQuJ6LkILlFTIUvHrxj8O0pKgPTCK/fboz5rjj+Cu+x8mZSRZYfmF00Rkr/ts0HjZZqpimrO+fjS7VPkubik82sfQkWNwxtM+6ZEChG89JggPUApEUAZFu1m/XrEwGPKWuJ2N7bnOWCzG6NGjefvttzsUPDbG0L9/f8rKyrbbeiNE+CyIiF2EHY5x48Yxffp0fv/735ecL4Rg5cqV/Pa3v+Wmm27KWZraWe4gJ6g7/cD9WLJ8LfUpgbT8LEpyqnc9F1rk44wk4GmNEJoB/Wo498yTGT+0Gke7SGEBll8nVmqEUX6WYpvxd8uWLXz3u9/liSeeALo3qIUWuaamJqSUuULptm3nYogcx6G6uppEIsGRRx7JDTfcQFVVFbYdVorw96OQq4XuL2Upv1g8tJvvW3SEPwWn1x8uLYQMzq+Bow/dgzffWcJLr7+HUEGeppE90xjboyERMqzNq9FuKwfuuyfTxlSTyno4tg70IgvumzCHKXSTBta4VBaaDCxe2sjSt9+hftMnzJi2HxPH1fgxk8pCCYPsYfGtnwVCCMrKyjrUswt/GzhwINXV1Tt78yJEKImI2EXY4XAch+OPP56HHnqoXfCxlDLnpvnDH/7AhRdeSF1dnS9A3GZ8CL/GBEydMJCnBvdl4bsfYywLhcLLkbuea7kLxE4AUFqTSdUzoq6Wc74xk6nD+4CXRXguOJZfbkv4mbO55JA2yROXXnopjz76aJFbqDOExdTBt9x5npcTcw3PTZhYsX79eoYOHcrXvvY1qqur2/WdI5mhQLQQGOE7AtdsTvHO0qUIoRjQrw9DB/cn6fiOwtxpDZZvt8UCYsAxhx7A4vdWsbFFIyybLqqNRWgDbfw4N0XgNnQz9I4JjvrqPqRdKLNDUZO8rl0uG12AFoKM9i2lyz/cyMLF7/HPf69g5ZpN1G/ZStyCt5avYr99J3HYYftSXS4pE2CJ/GWqIDjPHZy8tie/LXEvYUhss5fFiweBqwbh6yCKAqkdtj1K0xhDQ0NDl/fVsGHDSCaT29BzhAg7DhGxi7BTcOihh7LnnnuyYMGCdvPCoOgPPviAuXPn8p//+Z+ItrIlAYzxiAlFnwQcesBEli5fSX2qGc8IrFg8iC/q+NFtPqeSZNL4A60wfr1NJQxuppGahOakQ/fjoDEDSQKWskEF2cHKt2wJKBjc8sflm9/8JnPnzs19LyXv0PZ7IXnTWuf+lgpKtyyLOXPmcOihh2LbNplMBiMUoH3x4bZ9u9Cs4NW3N/Db+//Ix+s3kE6nKYvHmDJ+DPvtNZkD9hqF9CChDbYSeAGxC8+YT0U0Npqv7D6AfafszoPPvoxQvcl6BmGpqAJFJzChRTh3jDRCKP98ZVPsu+coxo/oh20MxhVI6dvBjTCYsPQXgTUZeHP1Vv7w+N955a2lpNIGW5X5Gd4VVWQMvPtJIx/+9Z/8c/FH7Dd1AscfMpbejn8tOIF33ZbkS6KYghWE3wvJmyiYwu8GtPYvt9AYqLVGGBepgvsj7FD6+66NL6VjgBYPYgpSrZreia5pXTqdzr1wbtq0ieXLl5c+1sH9ZlkWU6ZM6bLfCBF2FqLkiQg7BbFYDCEEjz/+eLt5hW/DK1eu5NRTTyWRSHTgVvSV85WA8opKln24mnWbtqDsOBrRlmuUWPzzYwVSCKQRiGyWpAUJmeK8b8zkqIMnUQZYRUHnIYJRro1u849//GNmz55dUmC1K3TWxnEcXNfFsix+8pOfcNppp2HbNsYYLMsKxlk/s9I3hcj8Jkp45Ll3ufWO+1izqYVWHLDLaU5pPlr1MQte/TfrNzczZsxoYkrgWKEbNp8U4oEf5E8WhYUqr+bfi5bQmPJIVlTjudnIG1sKovgCEVIipUAp34KddTMk8OVNxo8cjMwlDOQ68DmWyKc+zF+0nJt++Tv+/d5atrQayqr74Wnh6y4KiVEKFUviYfHJ5iYWv/0u/359Kes3p5F2NckKh2Qcn2d6/qQLPPEijK0onApJXZCsofFj+bQA10DWgJECpMLVCk8r312MRABNWVi9xbB6QwvzX1/K3+ct4Jm/z0O7WXYbPqRTi102m8VxHDzPwxjDa6+9xp133kk6nS592IVg8ODBXHvttfTq1etTnLgIEbY/IotdhJ2GmTNnMmfOHN58880O23zwwQfcfffd/OAHPyg534jgDV0b+vWOcfiBU1m+cg0bWtIou2yHFhnfHrCEhZIejm7l2MOnc8zBE3Hwb0QPF0UbXbk2u5NKpbjvvvu45pprdoi8QmjRmzVrFpd+61KUpYq1vnKbFJZGg5ZWjYhL/vL8cn59zwO0aptEWTVZz8+ojcUqsEhidIa/zHuDtKe4+qKjaA32Oxc7SKEEjN//2FG1TJkwjiefX0hjfQNxO3pklYQJK5rkleVyBEYbtJuhtk8N4/fYAyF9Htj2VpFBxmsGWL6hhTn3/MYMDwEAACAASURBVP98Up8lkawkAWRbm7CEQ1uLuBACoSxSWY8lKzez+P1nKPvzP9htxDBGjxjGwL41jBw2hEH9HMociFkQl/55L6RLbYveiYD8Gfxt8gxkPV/P0Rj/JWDTZpetW7eydt16Nm1pYN2GetZtaWDl2k/YuGUD6eat9KtOMOvEIzl0+r5dHkbbttFa5/Qd77vvPurr6zs+7MYwefJkhg0b1mXfESLsLERPyQg7DdXV1Zx77rlceumlHbbxPI+5c+cya9askuV5cg9/4+Eoi69MGsXu8wfzj0UrsOxKMhl3B239tkOH4qqBWUQaSLc0UqZcDp62FycfcxAJ/AEui5tLOOgMTz31FD/84Q+3G6krpcR/+OGHc8stt6AsVSRi7GF8qygEab6B686S/PP1T/j1/Y9ArBrhQlNLBsuyEVikMh7CaJRyME6cv857hQF9Kzlz5oGUEdAEA74Gse+qDiE1fGXcGJ6e95pPOiNi1yF0Lp5MIo3B0wahDUoYhPYYMqgfVVVlaM/3WOZUTAoIngZSLjzw6FOs2tSKVpUYLcFNkUmlscp659p6WpPNukglUZaD7Ti0NDdjl8XRjsWby1by78XvkXQUFWUJkjHB0AG9qa4qo7a2lqrKXlRUVAB5K7IfBpCXHmlpbaW1tZmWxiZSqQwNTY20pDI0NbXQ3Jpmc0Mjrekszak0LWkPLWOBvApYQjBu9EjOPvV49t9jcCkhl5IIk7aeeeYZHnrooZIW7kLh5OOPP37nVm+JEKELRE/JCDsVJ598MrfccgsfffRRh23ee+89HnnkEc4777x2lRFyj1jlq97XlMOxR07j9WUraPVaUMLGK6UG/DnBBMJfWTeLpQRJK8N+k3fntJkHk7TCG9D4MVAlOyBnIPnbn5/iiiuuYOPGjcRiMYwx3S6u3hnCQUkpxYQJE/jFL35BeXl5keUCQAWJDwZACrJZg5GCtz/cwD1/fIKNKQGWBQIsSxb0rzDCJovECIm2Knj82ZfYa8oeTB7qu6+0Ac8YMMKvZ2AEBkOlEowdPoihA/rw7spNgfpfNIi2hRahpE54bCRSgMFFGw9LeNQNGUA8Vhwa2ZbUuR58sinNPxe+S6tJIlQcAFtaOEk/WMAUEEJpK4w2aJ1Fa3JZ05lMBmk5OErhoqlvdalPadZuXVmw1Z2fx9AdavB8i672A/SklEihQNmk0llkPIa0KkFoLKnwWhqotD2OmDaFU445lJqqGAkgrU37koMl0NraSmNjIzfddBOpVKqoSkVbj8C4ceM46qijuuwzQoSdiegJGWGnom/fvpx77rmdttFac//995dwgWjAReNiUBjAcw1T9hjIgXtPgkwLsgdlxEohMEajLEUikaSlaSt7jhvON88/nv7VhdYDgQz+te/E/7PojUV8//tX8P777+cI3fYidWF27C677MLs2bPZZZddAPzM5AIYY3B1Bm18q6hlC5Z/3MLv/vhnVqzdioiV4wmJJ6Q/+Audy+r1hMSTEhcBdpzNjRkefvxZmlzfzeYqkLZAqiCYP9xxA32qFDVVZTilK85F6ARCCL+Sq4K+vXphq9KWuhBKwWtvLmV9fQorVoHUYX1j2Y5QhwlOHSU6aQFaKrS0yUqLrHDIqDIyqoyUTJKS8U6njJUgayfJWOVk7CSuU4brlOE55XhOEtd2IFmGFU+glV8D1zYZJo8eyncvOIMLTj2aoTUxygPzhd0NUge+aPrVV1/N/Pnzc9p1pUgdwKmnnkrv3r3b/R4hwueJiNhF2Ok4/fTTGTRoUIfzs9ksb7zxBo8//niRWHHWTSPJIMng4cfYWJYgARxz2DSqkwpBz3HFgh+zk0qlaGlpZmDfas4+9Qj6VfqkLmEXijUURo0XY9XKNXzrsstYumwZjuN0S9aku9Bak8lkmDhxIr/4xS846KCDcnV92xZVFwIs10MZjQbWt8KDf57HwiWrcZWNsfzSbkYZjDIgDUZotNRo4U9CZRHCIJ1y3lr6EavXteICrUHMVJhMoQsqTFTFYdSwOl8jrQcR956BYgGP0JoWWvB8DTtNImZRW1PptxSlSZ0J4tne+2gdQsZJtWYQaJQGjYXG8S2utJ9C5K/ifEaEKWhngkkIhRAdhx74LlmFlApLWSg7hnBiYDtoy8INMqrjCYvWVD2ppo3EaOKYAyfwvXO/zqH7jiAuwjJkblEibmdXUCqV4sYbb+Suu+7KH5cOSF3//v057bTTOuktQoTPBxGxi7DTMWzYME4//fSS80ILUktLC/fccw9r164FApem1/6RLIHGVpcRQ5Icc8i+2CaFCixKhR5ZI0rXa93eEEb6E0GWZyaL1FlqKySXnHca44b1wsF3M7W7+UoMtg0NTZx33nksWLCArJspGmTyZZoKuthGwieEYPr06dx+++3MmDED8DNj8zFDPokLQ/KFk0BIh2bgqfmv86dn5pMSMYyycL1sIFwcTAWfhTRIYZAmqGIgYmyub2XJsuU+ofMoTcmFT/aGj6hD655F2nsqCmsQ+y8BLnHHpqrKj2frSA9QA80aPt6wGc8IlOUnSmghMVi+xc74FryOJGdMiUkL3wVf+v7rXF1OSIFU0nehSj9JI7RCKjJkmzZRrtJM32sM119xARefeSijBsWICxA6G9SatbqtbnnHHXdw2223IaUkm812SOoALrnkEurq6rrRa4QIOxcRsYvwueDss89myJAhJeeFAf0LFizggQce8B+w2iAtG3AAB0U+QLQiYZEATjv2ACaO7I90G4glHdLa4OX+GbwdXJVCGIk0EqX9yXINXjpNZUxz0TcO46BJfXM3XDwgZe1uwGD00YHp6pJvfZOn//4MmWwaZTsldeja1rosLKxeWBAdyBVUF0IwfPhwbrrpJh566CH23nvv/Pp1fmO0X9HWd3sHv7YCf33pXe584M+Iyt4QT4LQKOEFlQeChia0zAg/4xKN9ARCCzIGsB3qW1rRBuLKFyX2j4rw/wX7YwEDBg7IH5QIBSg6Ye3ghwMIEokY1RWVfsuwZnHbCWhMwaYt9STjDuDhGkUGmywKzwi/pFwwCe3lbHHhVhipiiatFAiFkBZCWbnfQzIXWu4k/pS35EmMEX6VOS3AE+isgSzEpIVubiLhtjJ5eD+u/o8z+K9vn8I+YwZRboGl/G1xEsXxuRLwslkktCNtnusxZ84cvvOd7+TmFSZ0tJ3Gjh3LRRddtB3PY4QI2w8RsYvwuWDXXXfl/PPPb/d72zfku+66i+XLlyOkQKlQakEG/+edQY7QJC048egZlFlZWpq2kkjGCix1nQ+A2xtCG4xOk5RpTvraQczYewxJurjhBKQD4uZhuOw7lzP33vsI0xi9rC8O0ZkOnZQyR+jaZs6GxdgPPPBAbrvtNt544w2uuuoqysvL23dkADR+1U+/pkcWSAGLP2jkrrmPsTWl8IijhUQav7atyumptRUoC+Q0gikkf+s+WYv2ICFAUlqjTgf/fx51R79IaHt8pQmsZcaglCpKaCkJAZkM6KyL0B4q0CksjK3LSxhrBBphwjzcEDp3z+UsdCK03ua3s4M9wLcQBosJQyLuYAkPZVwSSlNmZXAyDew9biRXXnIeP7n2Yg7ac1eqgZqY7DKv3Lb9QE2lVI6kpdNprrzqSr797W93sXS4XYIrrriC2trabrWPEGFnI8qKjfC54bTTTuOBBx5gyZIlHbZZtmwZv/nNb7jhhhsCkeOO+5PApN2HcOwR05n7lwWkU6050hG6Z5EqL1+/nRGKu4ZuH0d6HH3Inpw5cx/i+DVQu9JbCF2gt956K3N+9UvA+NusPaTloHVxSbZCveVCUhxWj1BK0a9fPyZNmsSECRM48sgjGT16NFVVVaRSqbycSeg3y8ElL1Xrb5MHLP0wzX//7Dc0tCpisQq0trDR2Mbfa78bASgQgeSLKSW77J8Ty7jdf7vsZvD7/0kUVVRp73iUARHzbaIdveAosq0Gnc6Cq7GFxA0uaGGCq0DoojhHgSDMsQlPj+6QuIE0pojY6YKXuDDJxid3LspoMi1bMZkUZYkYfSqSTBq7GxPHjmLPybtRk/AvWYsgASedIhGLd7xyfEudUip3n61evZqrrrqKuXPndvvF4ZhjjuHEE0/sVtsIET4PRMQuwueG4cOHM2vWLK688soO20gpufPOOznqqKM44IADAN8SJaWibVCaAHDh+CMO4o331vDako+QMd8aFQ5Gxqgd6JAN1oGHMa2MGNaH0084lDLAZFxUIAXSGYRS3H7HnVx34w2YTBrLieNmUkjLQSnVjtgVLRtY6urq6th9990ZOnQoX/3qVxk3bhwjR47M69G5HkII4vE4ruviuR4YjRKqwDUX7ovEDTKQs8Bdcx9l1aZWZLyKbNag7CJPXpf7Z4wJ3LU+qRvYt5a48suIyWA9ReK6lAw9jNApNLLg5UUbg0QgjX+MO0M2k8X1XIR2EZZ/HeQsrIGcSiEtFKVOeCdl+6Qxbebnz64ALOMTR2VclHHpX1NO/9r+TJ08gb0nj2dEX18YSHvgZaHMDvcYVBekDvCrpwQEbunSpVx66aW88MILuRehrvQhhw4dyjXXXFPayh0hQg9BROwifK445ZRTuP/++1m0aFHJ+cYYGhsbufnmmwNi50uIgEVrawvxeP5hLjBUxATSgtOPP5ING+eyeksLVqwMkw4GkC58NV29s3dGMgSghEc23cDoEX347jdPp0+5ha09vzJ6qQ4MaM8gbYHnGh574nGuvvoa0i0tuf2PJZK5kkZCCEyQRKJsmz41NdTW1jJu3DjGjBnD2LFjGTVqFGPHjs2VAsutKogbCrNdhRA51xSowGrn+aYXI2hxXYTt4AGNGfjl3X/lrfdXg11BVkuklXereUEWqxD+eTDBd9lmnPSMIRazyTQ1kUwKpu27F7bIOWs7PLbNTU2dHPkIhQiPogjIndEGy5J05YkFKK9wKEsm+GDdFpK9y8lkUjhxv7xfJpMhEUuidRbX9TXmlBQ5uZPwVBvtkzejTf6aE0HMmvBJvHE1OoiZzGQyWLaiujxBr6RkYE0vhg0eQL+aasaPHkG/mir6V8cKnPrarz1bcC+H8wqzXwuR9TxsldfYe/DBB7nxxhtZtmxZro3neZ1a7ZRSXH755UyePLnrAxkhwueIiNhF+FxRV1fH2WefzeWXX14y+yx0Lz711FPcddddnH/++ShlAaaI1BUiJmHiyGpOP+4wfv6bh2hNN/sK/HZsB1t/XFqaNjNqSC0XnnkCI/o6BTdYOOwVM0s362LZFp5rePnll7niiivYvHkTaE2yvJKWpgbf3Wk7OU2twXWDmLrXPkyZMoUpEycxcuRIhgwZguM4uQLmecK2DRCAkBijMcImYds0Axta4e7fPc1z/3yTrJ3EE2GuLCB8QWFtZI4Vd5V9nE2lESbLYdOmMbA2jsznT1JqWI4sdtsIU0CBPD++LeZYOF0IAUqgpgrOPO1onvj7fJav2YDV6tHcugXPy/jXVMYDrRGu69+bQiBUQCCNyWUuW1IiArkRT2vSrovRLmUJG8exSCTjOE6ciooKevfuRd3gQQzuX8O4kYOojCuqy23KbbBzexJeH15+H0X7bNrCb7rgNxls44oVK7jlllu49957aQlenrqLE088kbPOOmublokQ4fNAROwifO4IY+3+9a9/Ff0eEj1fi0pz4403MuOQ6ewybDhgEEL5WXptYDzoHYODJo7irb0m8Od5/yJZ3YemTAYlSpsttOgsqLt7kLgMGVjJeacfy4ThNSQJanIKWRQLVwilLJCwdvVavve977FixQegNZYToyWwUgkhGT9+D/bddz+mHzyN4cOHMWzoLiSTZVhtShnFYrGi79uqeecBRigyQIuBhgzcdd/TPDf/DYxT5kfRiUxOTFkHGYyhm87/v2N3lpKSdKqJPceO5qgjpgUPIJd8iY0258cEsYs9vAZwT4UOLGa2ZRGPdd5WGQ8rnearew5l6qShvPvRJlZ+spnVaz5mzdo1NDc1s3lTE1pLXFfgeS6tLa3+wkKjBcQSMRzLwrYVtm1jOw6xWIyyZJKyuEXdwBp6VZXRt19fKisqqe3dm3gcHIdcprsqmHL74avfkbtGBPlY2Q5eJCTgar9ShZvN8penn+b6a69j4cKF3XK7FmLKlCn86Ec/ilywEb4QiIhdhM8dffv25fLLL+eMM87IyXlAcfanMYbVq1dz8//czC9/+Uuk9K12JRE8r/tWw6nHH8qHqz5m8QdriVf1xnVN8LbfJrj80/IGEWQGCo1tUpz0tSPYf9JQqvCrYqACCRIRxKGJ4s0WFtRvbuDb3/42/3rttSDy3OB5LsnycmbOPJ4zzzyT8eMn0K9PDR5eUFPWkHFdPCnQ2UBQWPmB8cboIGlBIpRCFJDZ/BHV7WxjGklLVpO0FS0G3lvVwN0PPMa/3voAp6wvSAuTbS0+yEGV9tD1KkzYc5jLGrrgNEprHDwG9C7jollfp19VWCe2RHZFhO0CYwyWkCRiNlZXYQgGkjGJIYOwHCaMrGHcyBoEowBocWH9Jyk/vs1z8TxNKpUKlg6yY5UkFouRiPu1Yy1LYVtgOxC3wJG+FS4UPGnKepQHZchcSl8GungNwf8yfy91kpTkeS4bN2zh/7v7bm756S3Ub96yzaRu0KBB/PznP2fkyJHdXiZChM8TEbGL0CMwc+ZM/vCHP/Doo48CHUt6/PrXd3LwwYcEWWkisNrlM0E1IKxQ2kQyaoDFZReeys23/Zb3V2/BTlSSzmQpj8cwJlC4E+CFLKfLjNnQUgWgsS2ByaZROsMxhx/ACYdMIW7ANSClKRpvjB9ihDY6N7hkM1l+eO1/8sijDxWt5bjjjuW7l3+X/ffZt+BXHdSU9R2hluUnG0jb8murirwsbCgI4wUu0tDJ6VMuD60zSANKSbTnYisbg4W0FRs1PPT4P/jT355na0ZCIkmzccHVOIKiwPwQoo3qbeiOzRgPS0ncTIpy6VGrMnzrlK8zeYjAy+IH4eWsfZH60mdF4bkxAkQQj1lVVeXre7cjd23aEwORt5zlJAmBmAVVg+I+kQ9mCFnZ/W3D77dQGqXc9q9n6GowykXX5bfXGETupvJjVY3wS/hp7cf4Pf23p/jf//1fXnzxxaIqNh2h7TzHcbjlllvYd999O1giQoSeh4jYRegRsCyLH/7whzz77LM0NjZ2+PCVUnLDDTcwfvx4hg0bVlSkvrBNWMdAIBk7LMnll53H/875HR+u3krcStDa2kwiGfMHhJB9dUMGpagIvdBoN4PlpTn2sP05/bhpxA3YHUn7l9jOm2++mV/96lc5l+nAgQO57rrrOOOsWW32rb18RVgNwv8jizIXMX7FACmKLR4OkPI0xggcK04Kg1QxskBjFl5dtIKH/vwsr7+1BBmvwLOTaOP4feWOUZv9E/kszLBslAaM8RBSojNp4lKTECkuPuvrzNh7NNID2yYogyAji90OgpQKZQQ1vap9bbsu2hs/uyE41+3nt7uyQ0Wc7kCYIJ6yTW9FGdWdb2G7ucIPvRBBrWHwq9a8/PLL3HPPPTz66KO0tLTkSvGFSUjdgeM43HrrrZx88sndXiZChJ6AiNhF6DGYPHkyF1xwAbfcckuHbbTWLF68mB//+Mfcdttt7YhdzqUqHHwRVZ/MjBnqcOGsE7n557+jJeuiYjau1GQkuWDzosGsE8kGEdi/pAEHjxkHTOXi06YTM/4NVboCRPt+7rvvPn7yk5/kJBgGDRrEHXfcwUEHHVSCsLavdCnRedOJCfbD5APkVSASK0RQkSn4Pa5sNDZecIRW1cM/X3mdV/79FouXrKS+OUNF5SAyRoK2UEIitQw0zIJtCY5P3oWtwVj4R8DyYxbROGjcVAu9KxXnnDSTGfuPRXgUWI4Kcxk7iH8kn0QT8b9tg5B+TbbeNb2xt8PTvuQZ6sgA1jaw1BAkPLRt19kaOr4Ptaf9BFnHv5ham1L8/YVnefDBB/nb3/7G1q1byWQyKKXIZDId9lMKjuPw3//931x88cXbtFyECD0BEbGL0KPwne98hz/96U8sX768wzYVFRXMnTuXiRMnFqvFF4rsBm//ft0EQTWw7x69uPick7jvwSdZvnYtrnRwyiqCxInA/hUWJm9DzkKE7ZTJYJFh34m7cvGZhxMj0OiSFA10pVzKUkpeeOEFLr30UrLZLNlslqqqKmbPns2MGTPQns6VP1OdRh21Qc7y2OZzADfwWqWBVR+3sOzD1bz57gcsWb6SlWs3kNEWll2FSmpaAj1noWRQwUCXjGUqOj7G5AZuS4MQLiLTzICqJGfOPJTjDp2A61KCYMgg7rH0bhWuKyJ22waj/WzSqvKyLqsyfCp0lBXUAdranbfZ+V5wf4eyPVs31fPEE0/wyCOP8ORfn8B1A2t9cO+FMibdTSKKx+PccMMNfPe7393WrYsQoUcgInYRehQGDhzIFVdc0WEdRiEETU1NSCm58sormTRpEvvssw+2dHzeEZYzIj8GWPiOWRs4ZN9BlFcdx2/uf5IlKz7GQSIsh9ZUA47toLXx3YrBwq6rsW2LbNalpaWZeDKByLbSy84yY7+JzDxyGrVOIKorBaaN+UIHWXnGhHUnYdGiRVx66aVs3bo1p4B/0UUXccIJJwD5AasYhf36Vq5M1sWy42ij/ZJr5IPQXQ1hwqyrobkFln9cz7ur1rJ42QreXvoujS2tpDxwPYmrJUiFNAJRsH6TC1kvSJboEJrW5iaSsTiW0pBupLbC5tRjDuHYQ/bAAWT4xMkFb7UZ2tuXqACgsbG5k/VGCFGYBCTQGOORiNmUJUJLbs/PLi60dOcseAXlLTzXw/VcFi9ezFNPPcXTTz/N/PnzAXKkrrCfbUHv3r257rrr+OY3v/mZ9iFChM8TEbGL0ONw+umn89e//pXHHnuswzZaazKZDD/4wQ945JFH6N+3HyIoY1UIgUCSl1IA2Gf3fgy+/FzuvPdP/OvNpWRcRVnMIZXOYAmniJwpJclkMhhjSMYdhE7Tu8Lh9KMP5aSjphAXpQo4+ZBS0traSiKRyH1fuXIll112GYsWLcolUAwfPpwLLriAVCrVoTZfm70HJI6dBMAVMicYIvAlSzY3wCcbtvDhyo9Zs3YDS5e9x8ebG/lw42Zc5WDbFkgnV0FXWjZCKD+btp30S061rr2jrI3FrqoiQUtDPXgtjBs5kFOOO4wD9q4jHiybOz2hq3sbyrv5FRQibAuMcSlPJkjEY1+YY9fOyp2z0gneeecdnnvuOV544QVeeeUV1qxZ4zfpgsR1h+QNHDiQW265hVNOOeXTbHaECD0GEbGL0OOQTCa55pprWLhwIatWreq07SuvvMKVV17JL37xCxIxG1s6gQqC/7afIxPhC7/2UFKya43g6suO4y/PLeLxp1/k/VWbsWIVuG5IdXzE4wmklGSzLibdyoRdh3DmiUfylfE1WNov4wqFEXACUxDPFovFcla7hoYGrrjiCp5//nmAoESYZtKkSQytG9rFUQm1HVzCyp/NxpAxAi3hk3pYuWoj77+3mtWr1rF6zcc0p9Ks37gZoWyQyk+eiPVCBtmERoOSNkoKpJJ+pQD8pAddFMhu5UijFiYIwm9PZSWaVEsDSSvDPpN25YIzjmP0IJ/UGiDlQVxBZ3FTpSD5dNaX/9vwr2NhPCrLy6gqTxYT647QLi6u7ZvSzjkPoVVuzZo1rFy5khdffJEFCxbw1ltvsWbNmty9A+TEuLc1jq4Q48ePZ86cORx44IHbZfsjRPg8ERG7CD0SkydP5oorruCyyy7rclC/7777qKwqZ85tcyiu8BAkORS0tZXADoa3MgknzNiDKRPG8ew/3uCpv7/Ili1b8lmygG7eipvOMGbMGGYc9DWm7zWC/pWB+GmBTl0hQiISWh5Cd+utt97Kww8/jFIKy7JQSpHNZpkyZUpOoqFzCNJZiNkWTRqWr9rCwneW8/byVSxd/iGbt6TIpkFZCaTyC7h7sgKjg+MgJUZ4WFL4mndS4GEwWiC0CGrcghckhkA+YziMURIF9km/hqgOsnH9+p59ezmceMRRHD19An0SxRY+9RmCvExnleUjdAijDeXJOOXJRDtS599XJmc57qyc1s7Cm2++ydKlS3n55ZdZunQpCxcupL6+vl02a1iFBT4boQNfamn27NkMHz78M/UTIUJPQUTsIvRYnHXWWcybN4+HH364y7Z33nEnQ4YM4Qffv4pUSzMq7r/F2zLILs2NWXk9rBi+JWlUH8EuJ0zi/BMm8e+FK/ho9Sq2bN6MVIo+ffqwS91QRo4cQMzJi6sC2LH2A6GbyeA4To7YhYPl//zP/3D99dfnvoeDkRCCUaNGFRHBjqCB9a2CJx57jpcWvMnGra3Ut2jSRmKUg20nscr8ahyuZxBKIZGYAnenVL7ghGtcjA5IpxBFkVdhrJ42HlIbhNBIIUBZGAGWVEhhIJsh09JCzLGxhGbK7iOZddKhDB9QiaPau23zTuaCDJPwoyg8OwUI5vkxil8UZ+LOh9RtYxU1GI3RLlUVZZQlCtTjCsoWi0D70Ehf+3DFRx/x0Ucfkslk6Nu3L/369yeRSFBRUREk8gg0GhkI/wgjiq7dzq5h7UFD41Y2bdrExo0baWho4OP1n7Digw94/fXX+eCDFaxevZotmzflF9qBfL62tpZrrrmGiy++GMuKhsIIXx5EV3OEHovy8nKuuuoqXn311Q5dso7jkM1mkVJyzdXXUNurD2eeNQtpDEq117gLUWRJIn8jHDB5F6aOG4qRgrglOowt6wihTEmhFeRnP/sZV155Zcn2xhjWrVvXLWuJBmJxGykdjBakUy7ptEcs2Qthx2jNpP3kUmEhLYE2BuMVl1zL5ZWGg7spTDORFJZzLyxXpj3QbhYPFyM8lHERXoZ+lWXsNnwIRx9xCJPG9CLhQdIG7RVpmpRAQQmOznY9IwutSAAAIABJREFUR+wii922QqIREsorylBWeDbyLFoIgUTmqpmksykuvOhC/v7sswD06t2bvn37Ultby+DBg+nTpw+1tb2prq6mf79+JJIJjOu/pIRl/1zXLfq8dUsD69evZ82aNWzYsIGNm9azdatP7pqamoosb/5G7YTjIiUzZszgRz/6EVOnTt3xK4wQYScjInYRejQmT57MVVddxWWXXVZUbgz8wT60fGUyflHyS799GRVVlZx00kmfan2eASENBkHG5KmJGxqYZOckL4yny2azKKW4/fbb+f73v99pGaPXXnutW9tmAdUWnDdzfw4/aB/mv/Ym8+a/wdqNzWzY3ITQCi0FRllI6ctcIAU6UKwDkEL5FpvAiicQBZp0blC9AvyqFSan8aeUhWMZUs2NOJZm2JB+jBlRx1fGjWHP8XVUJ/xuLEJSR6elngjWXrpR8W8C/1zLHuAq/KLBcSx6VVVgd9LGBAkzby1axKuvLkC7HtIWbFq/gU3rN7RfQPiCwABCy5LW5ry8SHCd5fTrvNw6jTG+wGKujEXB54J1FW9sl7vcKaZOncr555/PKaecEtV9jfClRUTsIvR4nHfeeSxatIjbb7+96PdCbSrbtslkMqRSKS666CLWrl3LJZdckgus7g6MAa0NSilsUTyGlAilK4mQwCmleOCBB/je976H53mdxs8tXLiQrVu3Ul1d3WX/TjA+DqtR9DtsMtMPnMyHq5t54633WbJ8NSs3bGFrcyONjfW52rE+/Dg7LRXK5MWABSKo/oAvQKy9oozVhoYG4vEkZWWVlCdsxk4Yz7gxuzBx3Gj691aUO75L28ZP61AWgPLLToVxW3L7ELKeEAP2xYLGVoKq8goKz3hxi3xs3b9efZXGxkakHdxXBW7ykJeF91yuuEpBma5SVtW8WLeHMZrwrip5LrXZIRY7KSXjx49n1qxZnHzyyQwcOHD7ryRChB6EiNhF6PGwLIsbbriBxYsX8+KLL5ZsE1rujDE0NTXxgx/8gDVr1nDddddRXl6O53pIJTsnB8KgAgbXdogq5ZLVgCiwVmSzWWzbRkrJL3/5S2688cZckfTOBFLfffddHnroIc4777wC3buOB8BwWyygNgG9h5cxafgEPCbw4SbDxxs+YeXK1WxYv4m1az+htTVF/dZGGloybGysx2D5FQkK+hdCII2mT1U5ccvCdixsWzFsr9H07VvL0GHDGNCnmgG9kpQ5ECvwchsgQzD4lxJnLmWU04aVK1fy7pK3mT59BgjlxwS29d4GosotqXRePDpCtyGloldVWM81/3IR1hDR2j85Wmo+Wb8eoJi4gU/SQyNsJ1mxXYkACyExJm+xa9+gy93ZJvTt25e9996bY489lhkzZlBXV7d9VxAhQg9FROwifCFQW1vLnDlzOOKII/j44487bBe6QaWU3Hbbbaxbt47Zs2fTv3//LtchtnFkkVBUoUIKyfr16/nJT37Cb3/7W7Zs2VJEzEqRtFgsRjqd5qc//SnTpk1j5MiRgE8SS9XBza0X8OUsBCqUpBAwqq9geN/+7LO7v7+uB83NsHVLKw2trWxsaMYImXPFtrS2FvSrGdC7mrKYRbIsTixm06uXT6aE9B8WCeGvNxQ8CRy+pT1kgWvNaI1QAZHwfImYt958k4svvpi99/oKMw4+BGG31yAM9yk8vqJNkkeErmFJSUVFRbtM7bZwvSxrVq9uT+q+YEgmk0ycOJGjjz6a6dOnM378+G5qQ0aI8OVBROwifGEwfvx4br31Vs4444x28XYhwmBsrTXGGObOncuqVau46aab2GeffXLSIx2jq1Gt9PJCCJa9t4zLLruMZ555puj3zqwYruti2zZLlizh+uuvZ86cOVRVVaGkylnvihFSKRlkvOalxsL4PwVB/iJkBCQroG9lAkMCQ2/aGGNyKEwiyeKTMEQ+9EkYMNIgRF7FTgTL5Yxy7XiDT5dDQpfJZJg/fz4XnH8uy1d8wEEH7o9wbIwLooOnkaGNEHKEbsOxHf96ouPydp7nkU6neXfZsvakriDHpadCSsnYsWOZPn06Rx99NFOnTqWysrLrBSNE+JIiInYRvlA4+eSTWbRoETfddFPJ+UopPM/LDVgAL730EgcffDAXX3wxl1xyCSNGjNiu2+S5Hvf//n6uvvrqnBJ+iK70wTzPy23nH//4RyoqKpg9e3Yngd1hyaT2BFPrNiViRT4mryQKB2wRZL4aD200SkiUJREInzxCEHtXvC+F3RtjAgkNUdQvQiC03/9/3fRf3HrrrRg36yviBfsurM4tSkYbtOjxHKNHQQBxW1NVLjq02ElAC0E26xZdu2FMXU+03lVWVjJy5EjGjh3Lfvvtx957782wYcO6FaMaIcL/BUTELsIXDtdddx1NTU387Gc/KzlfFLpHg2SGdDrNz3/+cx5//HG+973vccopp5BMJnEcJ7CMQXHRK43GBFaxwgFR5/pOp9M8//w8fvWrX/Hkk0/m+vq0yGaz/PrXv0YIwbXXXlvCfZzPMsx9JfAGC5PXzguL5ha08RsWJlLgj94F86XyLYEqlwtsMEb7osSBOU4IUeCILUaeM/hWSu1plKVwNbz00otcc821/DOIkZTGj/JKlpUR2vvyx7mYfHgE9X8jkeJuIC8gLXEZUFtDZTwoNSdk7swWyf0IQVN9E80NzQgTaC8a7edFtD3NbQtTdEG1w5i6jht0PMuyLCorKykvL6d///5MnTqVffbZh7Fjx7Lr/2Pv3uPrqur8/7/W2vtccnJPkzRt07SkpS2llFpq5S4C7SAIDNeHM+AwOurg7aGjD7/jDOOo85OHd8VxZgT9OupX0VEUvCGCCkxbQAXa0pa29EabtmmapkmaJifnsvdavz/2OScnl5OkkkuTfp7zOBN6rnsfZOfdz1rrsxYtIhaLDf/eQpyhJNiJKcd1Xe69917i8Tjf+MY3+j2WDVY2b7UekFuQsHfvXt7//vfzox/9iKuvvprrrruOFStWkLchZe69LBbf91Aqu+giWB1w8GATTz31FD/5yU/49a9/k/vM19oBH4JQev/99/Pyyy9zzz33sHbt2lzrFN+kCTm6r5ySe1H22A0KN1MlKxQwTd4v07zn5MZSDfm/9oO3znynCsywvemyr+sLdTt37eHHP/4RX/nKV+hs78gs0hhixNbYYYfJpY/dqQgCu7ZQEtG5qq0qMK6qlKK1tbVfddna/tW6JUuWsGrVKvbs2cOhQ4fo6uoikUjk+tad0tHpYBcU13XRWhMOh4nFYjQ0NFBfX099fT1z5syhvr6ehoYGGhoaqKurkybCQoyS/JcipqRYLMZnPvMZ4vE43//+90d8fn47BsdxePrpp1m/fj3/9V//xQUXXMDatWtZsGABNTUziMVilJSXUVxcjJ9Kc/ToUfbu3UtzczO7du1h/fr17Ny5k3g8DpDbYWKo8JG/wnU0slXGdevWsXXrVv7hH/6Bt771rTSe1UjIze6VAbnlonm/qJXKX4AwzBjskKOd+b/0+15beBVkofcPfsm3HW/j4Ycf5r/uf4BtW7bmFk8E30XfAWitMy0zCg9XW8A3fmZLM3EqSkpLgzmSDN9/cf/+/f1Wlg/8n+zFF1/MAw88QGdnJ11dXbS0tNDU1ERnZyfxeJx4PE5vby/xeJxEIpFrPQRB0+6SkhLKyoL/pkpKSvrdqjKNkMvKyigrKyu4aEgIMToS7MSUVVVVxVe+8hUSiQQ/+clPRnx+dlg2u/DC932am5tpbm7ml7/8JZWVlZSUxCiKFVFSWkokEiGdStHR3sGxY8c42d2NNUEwdPI2Pi0U3G699VaMMTzyyCOndF7ZDc47Ojr45Cc/ycMPP8ytt97KTTfdxNKlS0/pvQYb7tf7a49NBw8e5LHHHuP++7/B9u3bSXmZ9ha+T19ZMC/Y5Q2bD7cq2fin4WSv05ixFmMtxUUxQk4Qt/v+F5tXlc4Mf7e0tJBMJgv2o6uqqsJ1Xaqrq6murqaxsZGLL754Ik5FCHGKJNiJKS3bBqWkpITvfOc7wz431zKjQBDr6Oigo6NjxM/MX/BQyNVXX81Xv/pVuru7eeGFFwpuiZY/mT17XNngmT3WzZs3s3nzZr773e9y3XXXccMNN7By5UrKy8v7zSccqYHvcL3xChm0o0Dee6VSKSKRCL29vbz00ks89NBDPPbYY+zduxfP8zIhIb8SGIS6YF5W9lhG3qxNAZ41+Fi5YI0gEiuityeO73toBTU1NcH80ULLlm1Q+W1tbSWZTBZ831mzZo3jUQshxpJcJ8WUV1dXx9e//nUaGhr49Kc/PezQ50TM1brmmmv4+te/nutw/7WvfY277rqLEydOjPo98hsHZ4959+7d3Hfffdx///0sX76c6667jje84Q1cdNFFlJWV9WuPkq28ZBccKK0GDRkPDIMFV6RmFkLovOHURCLBli1beOaZZ/jf//1fnn76aU6ePAkElVGlVGbu1fAhsl8wHeZ5MsdudHzfx1o/WJziQGlpbNgarc00H+7s7Cz4HNd1qa2tHfuDFUKMCwl2YlqIRqN86lOfYu7cuXz0ox89pRA1VlzX5e677+bjH/94v1+EN9xwA9/73vd43/veV7ByB0P3vMuGr/y5eqlUij/96U88//zzlJSUUFNTwznnnMP555/P6tWrmTNnDgsXLsyt+s2+T/7n5P8sxFqL53m4rkvXyS4OHTrErl27eP7559mwYQMvv/zykIHgVCbTD9ppogDZTmx00uk0xvi4jkMoFKK6uhoDhHNfnwmaU2d7WmtLb28vnZ2dBavZ4XBYgp0QU4gEOzGtvPOd72ThwoV89KMf5cUXX5ywz62vr+fee+/lzjvvHHJ151ve8hbmz5/PP/7jP/LYY4+N+n2zv2yzDZfzWWs5efIkJ0+eZP/+/Tz66KNoramsrGTmzJnU1NQwc+ZM6uvrWbx4MbNnz6ayspJIJJILffnHmkqlOH78OM3NzRw+fJjW1lZaWlro6Ohg//79HDhwgK6urtxxZAOc1hrHcXLDr/0DwlBVu7ytrYzJ/Nlg7eAt32xmka4Eu9EJKnYWrR1CjqKspBjI2/7OWtD9Vz6nUqlhK3bRaHRUO7cIIU4PEuzEtHPFFVfw85//nK9+9at85zvf4dixY7nHxiMgvPGNb+RLX/oSK1euHPZ5y5Yt46GHHuInP/kJ3/rWt3j22WcHzdUbFGwGtG0Zbrg0+1h2ruDOnTv7vTZftuVEdng2G/B83x+yhcVQn5s/jOp5Xu7+QZ+Xv7J2iHCabYBnTBrHyVySrM493WaPV6lMy5XC9Bk+YmszbWM0JrPKNNavQY21FmWC1c7Zf/ddXV00HzlUcLi7pKREmv8KMYWMPHNZiClo9uzZfO5zn+ORRx7htttuIxKJjPlnLFiwgI9//OP89Kc/HTHUZcViMf7mb/6GX/7ylzz44IPceOONzJw5c8TXZX8JjyQ3ty7vNhRjDJ7nkU6nc60psm0q8kPdaD93KKPpO+Z5Hlib6RU4+HLU14dQKnajpbWDNZbiogixaGZLtmxPakeD7v/vtK2tjSPNhfdfrq6ulv1WhZhCpGInprWLL76YlStX8otf/IJvf/vbvPDCCxw/fvw1vef555/Pbbfdxs0338ySJUv+rPcoKyvj9ttv5+abb2bz5s1s2LCB3/72t2zcuJGjR4++puMbreEWJLyWymZFRQU333wzzc3N/Obx3wz73FQ60Rfscss3Bx9HKCS9zUZDaYXjKGwqTVlZGUUhMl+pof+/0mx415zsPpFb+DKU2tpaCXZCTCES7MS0F41Guf3227n22mvZvHkz69at47e//S1btmwZVXuToqIiKioqWLFiBTfeeCPXXHMNDQ0NY3JsruuyatUqVq1axTvf+U62bdvGhg0b+P3vf8/GjRv7DSOPtbEeli4qKuKKK67gAx/4AFdeeSUf+chH4PHBz8vO8FKAl/awWFSBilz2EPP7BorhKaXwfUNJrAhFMDztqPy2M/3n2MHwIV+CnRBTiwQ7ccYoKSnh0ksv5dJLL+W9730v27dvZ/PmzRw+fJjOzk7a29tpb28nlUpRVlZGQ0MDCxYsoLGxkUWLFtHQ0DCu+1OWlJRw4YUXcuGFF3L33Xezfft2/vSnP7F792727NnDzp07OXToUK7P3emivLyca6+9ljvuuIPLL7+ckpISILMwokAfPJUJGb7f1+PODLGtmMos4Ay7GmP9vr1Oz/C5dIVY6wEuvjHMrK4Bgn8FfXvwDgx1lo72jmG3w6uurpbdIISYQiTYiTNSRUUFF198cb/u+dm5Zp7nEY1GJ3WT8ZKSElavXs3q1asB6O7upr29ndbWVrZv387WrVvZvn07TU1NNDU1DTuUNh6UUixfvpyrr76a2267jZUrVw6aUzfc3q9ZnudhTTCE6BmPcIHXuI4bVPmG333sjGesBWMJu5qy8pJRvMJy8OBBPN8r+IzRzAEVQpw+JNgJkREOh0/bykR2X82GhgZWrVqVu7+1tZXm5maamprYvn07L774Itu2baOtrY3u7u5hdxM4FY7jUFFRQUNDA9deey1r1qxh+fLlr3m1ZH71UQ/T1C4UDkvLk1FwtIO1lli0KNh1AnCG+dqstezcuRNHO4CPGWJDlaqqqvE6XCHEOJBgJ8QUVltbS21tLStWrOCGG27I3b9//3727duX2wv3yJEjtLS00NzcTEtLC93d3bnVrwN/ZvuW1dbWUldXx4IFC1i2bBkrVqw4pbmFo6nYpdPpvlYuw6x81RLqRiUIvz4RV1FZGhuxuJn20hxuPpz32v5j3LFYjOrq6nE5ViHE+JBgJ8Q0NH/+fObPn9/vPmMM8Xic7u7uXN+5gf3qjDG4rkssFiMWi72mSfNaazDZLQ4Am40NJhcfEqlkX7BD9c0Ay0skGtDKoq3BWCs9moaRTqcJaY+a0iJqy10G10D7f3sd7R0cbelbhT2w40ysOCYVOyGmGAl2QpwhtNa5Id2J+rx+cgUhTbbdRjqzW0X+vYPXbIKTSXra9mVFMVhRrIjUyWNEnCKqSp0RQ3BbWxudnZ34Q43BEkwBkGAnxNQif/kVQkwa3/MwZpglrpmHwjLHblRCbgiA0rJSYtme3MN8va2trRw7dgzjD9oUBAiCnQzFCjG1SLATQoyL0ew8kd20fjgGcFzpYzcavu8TiUSorKjM9QocTltbG50ngn1ih8rNFRUVk7o6XAhx6mQoVggxLka3eKJvjp9vhwgX1mJRuK7GUYpsU45CgeVMb2/n+SlSPT3Mmp3XokQNNbgdaG5uwff69iE2fv9vsLam9rRdKS6EGJpU7IQQ42I0gcDz0oMWcAxkbTYkmkxIEcPRjmLGjBmjeu6RI0dyQ9xD7T5RV1cnwU6IKUYqdkKIcVFUVDTiczy/r92Jo/p2MM3WmKwKqnORSASVt2TzTK/MFWKtxXUdZs+aPWRVc2AsfnX/3qDrs2XIHnYzZ84cVeVVCHH6kP9ihRDjYlClJ5fG+uJFMpksuHjC5P1/JXuIjUwZtO/jWktNVfGQT7F5kdj3fVqOtGCHKYLOnj17rI9SCDHOJNgJIcZFOBwOhk5VpolJ9meedGJ0O2O4jjtsA2MByhqU38vsGSVE8XDIXuCD/+9jAYPO/GzvaKO1ta3gauNwOExtbe3EHLwQYsxIsBNCjIvRzbHzQBmsHX5lrNZa2p2MQAPK96gsjRELOzh5GXpgUc5iOXr0KO3t7QXfr6qqSlqdCDEFyRw7IcS4GE27kyDU2UGhzQIKk2tGHHIcXFeR9MBoA3bov5Oe6SO21lpmVM2gOKYGrDDOj3bBA0eam+ns7Cz4XhUVFRLshJiCpGInhBgX4XAYPXCPqgGsUdghV8WaAQskLBrF4NqTyGespayslMgoipttx9uGXAmbJRU7IaYmCXZCiHERDodHrNpZazPtTjJbhvXbVEyjMvc7SuE4CqXUGV+VG46jNXWzZtF/YDsIxQ6q3768rUdbh201U1VVJduJCTEFSbATQoyLcDg8YqsM3/cwng95ASO7Y4LK/HO2qOSgYLjtx85gxlqssTiOS2VFRd4jA+qe1hDMsLO0HD2KtbZg1U5WxAoxNUmwE0KMi9FU7DzPDxZQAMN3pzPozK5iZpjhwzOZsZZQyB2wktUCFpO5OdrFYEmlUuzdu3fYodi5c+eO+zELIcaeBDshxLgYTbDzfY+08THGz1STBupbBKCUGjaInMmstVg8Io5hRkVsUHPi/Au9sQbf92g+fLjg96m1pr6+ftyOVwgxfiTYCSHGRS7YBUWjIQtyybTBS/sopVFDZozMrhSOJuRGsNbrmyem1KDVtMbaYW/TUfa8HOsxsyJCdQwcIJVK9Xuezvyf8S3d3b20trYVfE/XdSXYCTFFSbATQowL13VHrNil0ymSySTK0f2qR/kXJgcIhyEUDkvFrgBrDcr4VJcVURQK7nOUygvVfd+oUpq2tjZOnjxZ8P1KSkqkObEQU5T0sRNCjItoNDqKYJcmHu8FNGrokh0KCIUgEgn13SfNigex1lJTU0MkHGQ5rZ2+lSeZzcSUUoQch0MHmjh5oqvge9XW1lLRbxGGEGKqkIqdEGJcxGKxEXefSKc9envjwR+G2DLM2qDhidZQVBTF+gZtTaYtClLBo+87sNZSVlbGyPt9wLFjx+jt7S34eG1tLWVlZWN0hEKIiSQVOyHEuCgpKSEajQ75WHaZRDKZ5uTJOBh/yGCnlMIAjoLiaBEok6vWKWMHLRI4k9oX588ZVCrYcm327Dpg+PXFAE1NTcM+LsFOiKlLKnZCiHExmoqdl04T7+kJ/jBEj7psNcpVEI2EwFi0JbfQYrouiBgNnQm4TqZXYCxWzMyZM0cMdQC7d+8etsdgXV3diD0IhRCnJ/kvVwgxLsLhMLFYbNjnpFIpEolEMNY6RMXOt0FVLqSDOXZaWZS2uVCjz/C5dloptKMxXoqy8hJm1tUM2HWiP2stvb297Nq1a9h5inPmzBn7gxVCTAgJdkKIcaG1pqSkZNjnWCzxzFwv6xceSNVANBRG2cw2ZGdopU5hUHkDzsZatHaw1lJSFEMZm7uo27zcZvN6AZ44cYLm5mZ8f+gIKD3shJjaJNgJIcbFaIKdAbrjPYDCKh205chrzeFnZtFZIFqUGdbNDNmqISp805nC4FgPx3p54U6TTiTRGCpLS6iI6WBLNptp6Kz6BzyA9s4Tw/awi0ajNDQ0jNt5CCHGlwQ7IcS40FqPagJ+PB4vuLpVKRW06QCi4Qgag7XmjF0Nq+lbEQzBUKxSCmUNNVWVREPkVk6YIXKvAdra2ujt7UEpZ8jPiEajUrETYgqTYCeEGBeu645YsQPo7u4GGDBZPwgvrgr+yQFKYkU4jgMYrPWDn1oNGWCmK5OJdsGAq8ZxFY6yaONTP6uG8ICsZpTO3IKgp4FdO14BKNg3sKqqiurq6vE9ESHEuJFgJ4QYF6MZioUg2A1Xgcs+UhQO4ajMilhjgxWygD6DindWaXwVdKkyClzlgPXRmYpd7qsoENoAXtn1yrCrlRsbG0dc9CKEOH1JHzshxLgpLS0d9nGlFB0dHfi+H1TsctW3YBaZhdzPWHGMiHbwPfCtQVmL1RabqUZN93xnM4OwlqAKB5BIxgkZn+oZZVTPKAuaOWMLfxkKdu3aOeQ+u1kLFy4ccccQIcTpSyp2QohxM9IcO2stJ06cwPO8fvebTMLzCbKeBSrKS9EotAXt21xPuzOJr9xgaDVz6bbWYKxHeSxGSaxoxNdbazl48CCe5xVcFbtgwYIxPWYhxMSSYCeEGDej2W/0+PHjJJPJfvfpAT8BKisqcZxsoAlCyRk1v07p3Bw7CFYPK6XBN1RVlFFR5ox4QT969Citra0FQx0gK2KFmOIk2Akhxk1FRcWIw3rt7e2k0+mCj2uCqp3jgFEGm2lmbLXhzNpELGBV32XbWgPKUF4cpTw68nzD/fv305Pd6WMIJSUlsiJWiClOgp0QYtyUlZWNOBx7/Phx4vH4oPt13s0FYhFFVU01xrFY18FqlenRlhfutAKtgh0ZhrhNfXmXbGWwRuFaxazKEoqdYddMAHD48GFOnjxZ8PGqqiqp2AkxxUmwE0KMm5KSkhGDXSKRoLOzc8jHstU6DUSLoKi4CINFu05ufcCZsHBisCDMGuvjupraynIcO/IFfbgdJyAIdnV1dWN4nEKIiSbBTggxbsrKyoZteaKUIp1Oc/To0UGPZS9O2Tpb1Anez/d9HDd49EyaYxfIDD+rvmFox1XMml3HaAqSr7zySu6fh1oVW19fP6CfoBBiqpH/goUQ42Y0Q7G+79PZ2YkxQ8+Xy1btAIqLYwWfN/0FgU5h0DazA4UyaEcxY0ZFXquYwbJ9ApuamnL3DRXsFi1aNOZHLYSYWBLshBDjZqSKnbUW3/c5fvx4v/vzl0VY+ubalZWUkkgkgkUDA5wZ1TsDeLmKnaOhsXEeNbWlZHs8KzvghkJZONHRyauvvpp7p6GaQp9zzjkTcxpCiHEjwU4IMW6i0eiIFTtjDG1thTelV3m38vJywuFwEEpUEO6yDYqnO23JVemy1TvH1dTUzCAUYuiKnVJkE9+B/ftpaWkZ9jMWLlw45scthJhY0l5cCDGuqqqqhn1cKcWRI0f6DQ0W+htndXUV0WgUay1KqWDRhNXDDkNOG7l5ddlqpSEUcpjbMIdIJP9i3v/L8H2DdjRbXt6WC9BKqUEVu7KyMtkjVohpQCp2QohxNVJYUErR2to6bC87CC5WVWWlhN1Mo14dwmYuYdr23aYt29cAJluhjDiWuupKCu/8CsYalFL9hmGHUl9fP2IIF0Kc/iTYCSHGVU1NzYjPOXTo0LD91SC4WM2pKaGmsoyTPQncSCkGF2U1rgluiuke7lywYWymPldTWsTiObUjFizj8Thbt24Fhl40ARLshJguJNgJIcbV7Nn5i/0iAAAgAElEQVSzCYeHqymNvCMCBAOMJREoL4uB45Dysx3uzpTLWLCNWLZy51hDXXkJFcXOsHNqQqEQhw8fZseOHbn7hlo4UV9fTzQaHfvDFkJMqDPliiiEmCT19fXDbitmjOHYsWMjTuwHiBVDbXUFrjZYL8GZtaVYZuGEMjhG4xhYds58qkr6z7wbKO37HD7SzN5X9xWs1gEsXrx4XI5aCDGxJNgJIcZVdXX1iEN8xhiOHDmCMWbIahIEF6tioLI0gqN8PD8dbKulDP4ZtPuEtuAYcKxhydnzcvPrhruYb9m6lUS8Fxi6WheNRlm1atXYH6wQYsJJsBNCjKuysjJmz55d8HGlFEopNm7ciDW2YLDLtjypnzOTaFijbAowwZZiCnw9/cOdMUFzYi/Rw+L59ZyzoAFF4fYGPhbHcdi8eTMwdKiDYLh8yZIl43PQQogJJcFOCDGuKioqqK2tHfKx7PZVSikOHjyI4zporQvuLuEDZ9XPorQ4hnYURgXBzlPBStnpfknzfR8FFIXh9SuWUhkFZ5jnKxRHW4+yadOmYd93+fLlVFRUjOmxCiEmx/S+CgohJl00Gh1yY3mlVG7o1RjD5s2bSSaTAENuVK8JQkzD3Foa5s5CqaD6ZOlrUjzVGxUrq3OVyWwDZpM7N03IjaAtlMU0SxfNI5R94TClynXr1vHKzp3Dfu7y5cuJxWJjcAZCiMkmwU4IMe6GCnYDhwUPHz7MoUOHgGAl51DCQGU0qNrhJXBtsHcqBOFuKssdvtWAQVly4S57qXaUIt3bxVlzqjn/nBnBazLPM5nvwRAMwUIwdPvUU0+RShXuERgOhzn33HPH/HyEEJNDgp0QYtzNmzcvN+w6UHal5vHjx3n+T88XHIYFwEDIwOK5cyh1NI5JEjIeCi8T8KbmKtlsqOvfZLnvfEym1YlK9xIhyZoLLyCUJhibNtnQFny/xhiMH7yupeUIz2zYgD9M8+fa2lqZXyfENCLBTggx7kbTI833fdZvWE86ncb3Bg/FAqAhouH8RY0snFODYz0y+1AwVUNdji1wOc5U7TSGsDYsOWsul6xeRpGGINkFj1rAMwZj/FxYfubZZ9mzZ0/wNs7Q7z9//nzmz58/duchhJhUEuyEEONu/vz5BYNd/pDsH//4R+LxOI473JIAOLsGLlp1HtoG88+0DcLdlN11IhPqjAKj8wJqdn9Y5aFIYb1ubrpuDbPKQLsAGpTGx+Lb4LvU2sFaS09vLy+++GIwb1EXHqdesWIFJSUl43p6QoiJI8FOCDHuGhoahm15krV9+3b27dsXDCcOMSRr0kFy84A3LF+KxkNn5tlN2VDH0PMD++4zaFI4JFi1bBEXXTAPgHSq77nagqMsIcfB1ZpUKkVHRzu/+tWvguBs7JDNiV3X5bLLLis4TC6EmHrkv2YhxLiLxWIsX758xOd5nsfDDz9cMGhoN+hE7FiYO6uE6//iahw8Uqkg5Rhr+92mjqDRslUmWOWLRqmg9YuDh/VO4vg9vPmKiynLdCRW1vR7PRjSJvgeQiGXX/ziFxzY9yqYzPdgBn8fS5YsYfXq1eN6ZkKIiSXBTggxIc4777wRn5NOp3nsscdoamoCgqHF/FtwJygLsQi88aJVVJQUoYyPGmH49nRm1OCbjyWdSKKtoSiquWj1clac25DbacJ1+y7fKrPowslc0luOHuW///u/icfjuQbQQ1VAL774YplfJ8Q0I8FOCDEhRrPyUmvNtm3b2LBhw6ChQ2XJVZ2sAiwsOSvCmy5ciXY0J072DBrSzO9rNxW6oWQbLmePu6goRk/8JBVlMd5y3dVUxPIaEjtkTirT5NkG31/aS/KrX/6SzZtfyn2HQ+04EQ6HWbNmzXifkhBigkmwE0JMiEWLFo24Z6y1Ft/3+dGPfpQbXs0FPJXZENYCChwV9LV785UXURHRRLUfzLVTCqs0VvUtSDhdW6EEzYhN3sre4Ji11TgGbDLOrLJibr92DefPryTm0H+rCaWC0JZbHKHp7Ojkvvvuw2aGagttI7Zs2TIuvfTS8To1IcQkkWAnhJgQjY2NQzYqzpcdcn322Wd59tln+1ecclsy2NzmYS6wuM7ljusuwz15lKhrgiFMFEY7mEy4Q3mZ2+SEu4HDrGROJbua1zUGx4BrNCEbIqpcVCJOsZ/mb2+4jrdetpxKC3bg4Sv6Qp0OEt93v/s99u7eg6M0QaZTebc+N95444j/PoQQU48EOyHEhIhGozQ2Ng77HMcJFgx0dHTw+9//vt9jxvODqh1gbVCd8wnqcNdddTFXXXQBXW2tWD+NqzS+T19vOKvRmbl5pwtLJuRZnRtCNl4K5SdInmyjyCT565uu4eZrzifqg04HJ+Dj57ZhszZY7er7HsYY9u3bxwMPPAAEC1EKqa2t5dZbbx3/kxRCTDgJdkKICXPVVVcVfExlhhV938f3fZ5++mn279+fe8y3BlReVgNCBBexylK4/ea3MHdGFVELjucRVpm6nnUBF2yYybrkZXeUyA655hZIKE1aa9IqjK/BdXxcuqkqSvKut13HX9+8imKHYMw5rLCZYGuUCVrYKYXv+ThOGK013/zmt9izZ08u9BXylre8haVLl07MyQshJpQEOyHEhLnyyisJh8NDPpatQmXt3r2bLVu2AEGAcV0XYw1WKYzS+BZ8DNn4cu6iSm69fi1hk4BEN8WuxjWQDXcmszvD6UBjgmHh3NCwCbZF87qYUxnmo++/i7ddtwptyDQezr6uj82cjcoMxT766KOZap0uuNcuQEVFBe973/vG/qSEEKcFCXZCiAnT2Ng46r5pra2t/PrXv6azszNzjwlWjWZXT2RoLA4WF7hp7flc9rrFFDsplNdNxFW4WoNyMospJumSlwlxSimM9VHaJxZ2cKyHQwI/1UVJ2OdNF57LJ//Pe7lqVSNJA1EdNB5WKhhyDjYQc1CZ/0un02itefnll/mnf/onerp70FrjeYXnEt5+++2sXLlygk5cCDHRJNgJISZMSUnJKa3EfOSRR/jjH/8YzKlTOjPHzmCxaKVxUJnhzRQuPhUReP87buGNb1hOqqcdm+5B42HxT4+GxS6Ewy4Yn54TbXjxDiI2zqUrz+ZD73orH737dhbNKg6GmXV2CTC5xSIDl0CEQiFOnDjBZz7zGbZu3YrnexjjY63PwMUSAFVVVXzwgx8c99MUQkweCXZCiAn1pje9qeBw7ECtra38/Oc/p/nIUTwb1KuytSiV+2lQmS23XGWYVQl/fcs1XH7h+YRDPulUN4Ykvk0yaS1PrMZkurUkUr34Xi/RkGVZYx3vuP1aPvru21izci41DoR9D+VbkolsOMuvTvaXSCT47Gc/yw9+8AMAjPFhQEUz37vf/W6ZWyfENKfscDNshRBijLW3t7NmzRo2btw4queXl5fzw//5H9auXRtMl8MCGmUVKIvGA1JBlDEh/JQmHXU52A4P/OAX/GHTdnqSBuuE0U50fE5KmUx4y/ahg2DeXLCHrcKA8kgnT+A6HovmN7DqvCVcc9Xl1JQ7lDvBQpD8UOYZcAv81dtkAuq3vvkt3ve+95FOp3EcB98vHFxXrbqAn//856Pas1cIMXVJsBNCTLgvf/nLfOQjHxnVc5VSnP+61/GDBx/knMzuFX2tfLN/MkEm8jWooH1Ir4X2BDz6+4386vH1tLT34JTOII0iHu8hFivG4mGNxWZmrxWUXYrbr2Zm8H2PaDSCwSPek6C8vI5EIoWfThBShoj2SJzsoiikmVlVxIXnz2PZkrNYdu45VJQVU+RmWtHR9zM/3OWfZyqVylU6fc/ngW880G8RhNZ6iG3DgveJxYr43ve+x8033zzi9y2EmNok2AkhJlxTUxPXXXcd27ZtK/icfkFFK/7uHe/gi1/6IkVFMYy1FIUjfU+2eTcABUZDjw/GgW07TvL/fvxLXtp3kBO9SSJFMRzHRTlurso2bMCzfTtCZBnrgzJoZUGZYMGCdQGD8lOErEfMhfOXLOKSN6zi3AWzWTIvSv561WwfuuHkh7tgrqHDfffdx8c+9jGSyeSwr80Gu7vv/nu+9rWv4bruCM8XQkx1EuyEEJPi85//PP/4j/846udrR/PA/Q9wxx13EIlEcpvb5+RfyZTBZAZpncxDx9Ow/sVX+fVT69i+Yy9dcQ83UooKFeOEolibGdY1feFO595zqDFRA9bHmDRKQTgEEcdQWV7MOYsaOXfRQpYtWkB1hUtZFJQf7JThOhbnz9i5Np1OY63li1/8Ip/61Kew1pJOp0d4leLyyy/jwQcfpL6+/pQ/Uwgx9UiwE0JMiqamJq6//vpcr7pCHMcJ1sH6htLSUj772c9y1113EQ6Hh+3Xlq10ZTt/WA1xCwkL23cd4w8vvsyWnXs41tHNsY4eQm4IV+eHuQFLELK7V9DXe27GjErKSmPMa5jL/Hl1LF0yl4bZxZQ5kPChyAl6C7v0z52jXbWWHX5Np9McOHCAf/mXf+Hhhx/G9/0hhl0Ha2xs5KGHHpL2JkKcQSTYCSEmzX/8x3/wwQ9+sGBIyVbllFIYY9BaU1JSwr/+67/yzne+k7KyMgB8P4XWTmb3iiCOKVSms2/2vTU2E8t8DWmgvQeaj3Xw6sFDHD3WQcuRo6RSHolEglQqTTKZJBwOEY1GKXKjlLgRqirKmVlXQ3l5KfPmz6Wy3KEiFnxKfhDUBNVChRkiyI0c7YwxeJ5HOBzm8ccf52Mf+xgvvfTSsK/Jv5yXlJTwrW99i9tvv33EzxJCTB8S7IQQk6arq4u3v/3tPPzww0M+PnD+WfZyVVdXx0c+8hHe8Y53UFVVBUDaSxLSmTlk1sl/VWbVaibgZRoV+0phFHjkll9gAM+HdCr46XvguBAOQ9iFsIGwAu3kzXsjf3pfX5DUmZ/Kktvjtu9VhYOdMYZ0Ok0kEmHjxo18//vf55vf/Cbd3d0jzsfLfj+xWIwvfOELvPe97x32+UKI6UeCnRBiUm3bto0bb7yRffv2DXosP8hkL1XZRRUVFRV84AMf4MMf/jDl5eUomwlvNlMry1tIEdyCxQ5WBYO0Jq/tb/ZTfIIin7XBVDutgkymFZhMPkRBKG8NgsFgrNdvPl5w3H3hbaRAlpVMJnEdl5ajLXzve9/j29/+Nrt3786d+2iCneu6fO5zn+PDH/7wqD5TCDG9SLATQky673//+/zd3/0dqVSq3/1DBRlrLeFwGN/3CYfD3HLLLbz//e9n9aoLUNi+YNfvjbJ3eQSbkgXv6+DQr3qWCXVq4BYPAx5H2czuDtkqYLY6p4PP15nPzwwLZxfTjjQA293dzc9+9jO++MUvsnXrVsLhMKlUilAolFsBO1y4cxyHT3ziE/zLv/zLCJ8khJiuJNgJIU4L73nPe7j//vv73TeaCpXWmlmzZvGJT3yCt9/1NlylQYeDgDaou8fAuXyvbfMda4dqjzJ0pS6ZTBKJRHLHnUqlcn/u6Ojg0Ucf5cEHH+SJJ57AWjtkK5Th2qOUlpZy77338t73vhetZVMhIc5UEuyEEKeFtrY2brrpJjZs2JC7bzRDmK7rkk6n0Vpz443X84lPfIpzl5yDGw6DClaWGmOIRsd+14nRXD6zYWyoc9m0aRM//vGPeeihhzh48GCuYhkKhfA8b1CQKxTsZs2axde+9jVpQCyEkGAnhDh9NDU18Vd/9Vc8++yzwMjBLhKJkEwmc/PuwuEwsViMu+++m7vvvpuGhgaA3Krb7PuNds7bSEa6fA71OS0tLTz66KM88sgjPPXUU3ieRzqdJhQKkUqlKCoqyt03muO86KKL+OpXv8qqVav+7PMQQkwfEuyEEKeV/fv3c9ddd7Fu3bpRDcVGo9FcVS4rFAqxePFi7rzzTu64445xa8470uXT8zw8z+OVV15h06ZNPPfcc6xfv56dO3cCZNqzDH6P/PsLfQeRSIR3v/vd3HPPPdTW1r7GMxFCTBcS7IQQp51du3bxrne9i/Xr15/S64a6nM2bN49bbrmF66+/nvPOO48ZM2bknjvUqlvoC1PGmILDqANfl31Od3c3e/fuZc+ePTz//PM8++yz7Nixg46ODnx/hD1pR5D9jHPPPZd77rmH22+/XebTCSH6kWAnhDgt7dq1i/e85z089dRTf/Z75F/eqqurWb58OStWrOCiiy5iyZIlzJo1i0gkQnFxcb8wl93ZIbu4oZCuri66u7s5dOgQTU1NbNu2jRdffJFNmzZx/PhxkslkLkDmH0u/fXBPQXV1NXfeeScf+MAHaGxsPOXXCyGmPwl2QojT1p49e7jnnnt46KGHTvm1AwNVJBLptzhh3rx5LFy4kLq6Os466yzq6uqoq6vLBb1oNEpZWRnxeJyuri7i8Tgd7R10nuiktbWVzs5Odu7cycGDBzl48CDd3d34vj9kiFNKEQqF8H1/FPu7DhaLxbjmmmt43/vex5VXXnnKrxdCnDkk2AkhTmvd3d3cd9993Hvvvblebqcqf7jUdV08z8v9OVup01oTCoUIhUK5fWizlbtsFS+RSAwKZ9mh0IELNLKfmd+L7lRDXTgc5tprr+Xtb387V199NbFY7M86fyHEmUOCnRBiSvjZz37GPffcw/bt20f1/ELz56aCkpIS1q5dy9///d9z+eWXj0urFiHE9CTBTggxZbS0tPCFL3yBb3zjG3R3dw/73KkW7FzXZenSpdx2221ce+21rFy5crIPSQgxBUmwE0JMORs2bOALX/gCTzzxBIlEYrIP5zWZP38+V199NTfddBNXXnmlVOeEEK+JBDshxJSUSqV48skn+da3vsVvfvObESt4pwvXdamvr2f58uVcf/31rF27NtdIWQghXisJdkKIKc3zPJ588kl++tOf8vTTT7Nr167JPqRB6uvraWxsZNWqVbzhDW9g6dKlLF26VHrQCSHGnAQ7IcS0sWvXLp5++ml++9vf8sILL9DS0jLhQ7Vaa6qrq2lsbGT16tW87nWvY/ny5SxcuJCysrIJPRYhxJlHgp0QYtpJJBIcOnSIzZs388c//pGNGzeya9cuWlpacq1OxoLWmqqqKubPn09jYyPz58/n7LPPZsWKFcyfP5/q6uox+ywhhBgNCXZCiGmvvb2d1tZWWltb2bNnD6+88gr79++nvb2deDxOd3c38XiceDwOBIEte3Ndl1gsRllZGRUVFVRXV1NbW8ucOXNYtGgR9fX1VFVVUVVVJQsfhBCTToKdEOKMZYzJBbru7u7csG2hYCfBTQhxupNgJ4QQQggxTciSLCGEEEKIaUKCnRBCCCHENCHBTgghhBBimpBgJ4QQQggxTUiwE0IIIYSYJiTYCSGEEEJMExLshBBCCCGmCQl2QgghhBDThAQ7IYQQQohpQoKdEEIIIcQ0IcFOCCGEEGKakGAnhBBCCDFNSLATQgghhJgmJNgJIYQQQkwTEuyEEEIIIaYJCXZCCCGEENOEBDshhBBCiGlCgp0QQgghxDQhwU4IIYQQYpqQYCeEEEIIMU1IsBNCCCGEmCYk2AkhhBBCTBMS7IQQQgghpgkJdkIIIYQQ04QEOyGEEEKIaUKCnRBCCCHENCHBTgghhBBimpBgJ4QQQggxTUiwE0IIIYSYJiTYCSGEEEJMExLshBBCCCGmCQl2QgghhBDThAQ7IYQQQohpQoKdEEIIIcQ0IcFOCCGEEGKakGAnhBBCCDFNSLATQgghhJgmJNgJIYQQQkwTEuyEEEIIIaYJCXZCCCGEENOEBDshhBBCiGlCgp0QQgghxDQhwU4IIYQQYppwJ/sAhBBCiKnAGIMxBs/zMMaitcZ1HbTWaC11EnF6kGAnhBBniHgiRUtbJ4db2+nsipNIpUmlPRLJFIlUmmQyTW8iTdozhFyHokiYomiEWDRMJOISDYeIFUWYVVNB/cxKKsuKJ/uUxlwy5dF8rJOWthO0n+imraOb453ddPUkSKU9UmmPZNonlfYoikawfpri4hjW+FSVl1JRFqOmspSq8mJqq0qZU1tJaXF0sk9LnEGUtdZO9kEIIYQYW8dP9LD7YDuvtnTy6pE2DrQcp+V4Fye7E3T3pvueaAtVmvQQ/2wwyhANhykrjlBXWcZZc6pYNLeaeTPLOHvuDGaUT62wd6zjJHsOt7Oz6Tg7Xz3KvsPHae/q5WQ8Sfa3Y/bXpDE282cDgFKaSCSC56XxPA/XzdRKMt9pUVGEitII82dVsKyxlrPnVHH23Gpm15SjtZrYEyWoOHq+QSmF5/sYYzHWYo3FWENZcWxSjkuMLQl2QggxTTQf62Bfczsb97Twp+372X7gKADKaKzSYDVGDQhyBYMdgEZnf0MoAyoFyuv3OqM0hiD6La2fwRWrFrN6yRzOqqugvKRoLE9vzBzr6OLl/Ud5bsurbN57hN2HOwjOwKCG+Y1o7XChx6CyX5YNg3WxaFAGk/nOtIU5NWUsO6uGy5bPY1ljHQ11VWN1WiN68vnt/Oh/d2SO0WIA41vSvodJJvjKh2+npmJqBXMxmAzFCiHEFPfKgaM8/sIB/nfLfva3tJPye/FScSKRCNrSF+pwMXmVuGwOMQrA9IW4PCabZZQhiHB9fw7CnUFn3nPX4Q42v7qeSHE5Fyyew1+8bh6XnzuLmTPKx+O0T4nn+exrbmPD9kM8tWkfm3a+iuOGAFBKkT3/4bKbKfxQ5rvLRtzM+9i81yiDQXOwrYuDbV385oW9zKwoZs0bFnP5srmc1ziTaCT8Wk9zWAea2/nD9ubgcJRCOxprLL7vY70EiZQ3rp8vJoYEOyGEmKKOd57k4f/dzKN/2MPew52gFcZaHK2IxcrwPT8T5Fx0Jn5p2xdPstUpJxNKBoca0/fTAgqwOvM6DejMawO9ySRuOIQ1hudfPsBzG7ez+uxa7rpmFZevPHvSFhhs23OQR/+4g6dfOkDz8W4A3FCYgo0hclXMgdVNv+BnGAUap//rlJcJw5nvL/N9GjS+bzjcdoL/99iLPPrcTi45Zw43XnYOKxfVj9v3FHKdYR/XSoZhpwMJdkIIMQW9tOcw//HT9byw4xBGuUQiIXpTaUJuCKUt6aSPUg5Kqb45Ypn5VLFoFGt9MBZjfDzPx5g0PpawG/xy93yD0gqlNLmcYfOrfbrffUYbIpEIvjHYVC8AIe2yZX87//qdJ1m7tYm3XnUeCxvqJuYLAppbO/jVczv52TMv055Mk8qbWxhU6fq+G23zzsVatApCUP7QbLai6WiF42iMsSR9v28INicIcyr7z9kR2kwwRgWfH4kUkU6n6ejq5YlNTTy9dT/XX7iYWy5dwoIJ/J7E9CLBTgghppiX9jTzz994gpa2EyjHxagwCWPRrouPj2MclHKwfjootGmN61hi0QjFkTCzqstZUF/NnJoyymIhXAdCjibkKiIhF2NtsALU80h7PsmUz/GuOAePxtl78Dht7d2cSPQCCuWC47jEU3EcrTMhx4LVaKXwLXQmLA8/u5ctr7byoVsv4uLljeP+Hf3uue08+NgL7DjYSlq5+NkiWqYqZa0FE1TQHK3RjsZ4PkoplPWoLI2yaN4s5laXUVMZo7aymJADIcch5GpcR2MteJkFCb2JNMe7ejhyvIvWzji7D7TQ3p2kpzeJcsNoHIyx+NZDKY1SilQqhdYapRWplEfKc/jh0zt5Zts+/mbNCm687HzcEapsQgwkwU4IIaaQl189wj9980laOtIoNMoa0AarNL29CYrCoaDS5ns4SjGzsojljTNYvWwh5y2cQ92McsIhh3Do1C//xhgSyTTtXXH2NLWycfdh1m/ey7GTKaIhh6Sx2GwlTwXDkyYzv8+i2Heoi0/836f4P3emWbN68Rh/M4GTPb1891d/4idPbiOVTAIaVLAIxKj+s+TCoTC9vXFC0SiuNixfUMUFS+Zyzll1nD2vjhnlxYTcU/+ePM+nJ5Fk76FjvLz3MC+/2sYLu1roSlpO9sQJh/uGPI0xYAgCulWAw4FjvXzmwfW8vKuF99x2CTVVkz9HUUwdEuyEEGKK2HvoGJ96cD1NbT1gLEWZVZeO9UBpiqJhrO/jWMPyBXP4i1VzuWzlQmbPrB6Tz9daEyuKECuKUD+zkitev5i3XXMBm15p4lfP7mD9jlY8pcjOMVNKoTC4pMAPqngdXR6f/8EzFBeFufi8s8bkuLIOHOngS9/7PS/uOIDn+yjtYpRGW523rMHkFoSkTYolC2Zx2bn1rLlgIfNmVhKLvfaVvK7rUF4SY+WSeaxcMg9jDAdbjvP0xn38fstBtuxtIb8hhVGAMSh8tAXHKrR1eOK53Rw73sX733o5ixtnv+bjEmcGaXcihBBTgOf73Pvd3/Hjp3fihIrQFkI2BRjSTmZavlbUVRVz+4ULecsl51FXUzmhx/ibP+zg//56Ezsz7UO0smhrcKzB+l4wR007WCdMw+xyvvyetZw1e2xC58v7jnLvf/+OnfsOE4mGQFtSJljgkY10viJYzYth+fxq/vKSpVy6vJHaGRVjcgyj0R1PsP6lvfxs3XZe3NOCtRrP9F/Qom1wxCHt4GIpjxn+v/ffyOuWNLymz/7+o8/xhZ++EHzOEKtif/Plu5lTU/aaPkNMPueTn/zkJyf7IKYbYwzW2mFvvu8HJXj65nwIIUQhz7y0l+/8fBP4Do71cZWPUSbTly6KUg6VpSE+dvsl3HbVKkqKJ76H3ML6Gi5dNheMZfe+FhxMbh6b62gc5WOx+E6IEz0ptPW4aNm813wN3PzKYf7tm09w8MgxtKNJaU1SORilgtWqNqgiJjXMm13DO9+8kg/cdDEXnDOf4tjE7goRDrmcPbeWKy9YSF15jKajnXR2dRMNh4I5kcpgtIfvaHwVIq00PZ7PC68cZMGcGdTX/PkhdMvuQzy380hQSVUqmAppgwU01vd42zWvp6w4MoZnKybDGT8U++yzz7J582a6u7tz95m8vz0V+ud+ZfQh7h/qdUPd5zgOJSUllJeXU7DTAdUAACAASURBVFpaSm1tLQsXLmTu3LmEw+Pb00gIMTV0dcf58e9eItFrcQGDwWSGX7PKoy7//NaLWfP6cybvQIHZNRV88NaLKYmE+PYvniUcKQLlkujtJuqSW6VrjeKRp19i7aoFrFgy78/+vI3bD/CZ7zxDc1sPngJfQ1q7me56JpiDqAyOttx6ybn81RVLOWf+5K84LS6KcOtVK1h1Tj0//O1WfvjbFzItWPpkm0lbNIc6e/n4d57i03/7RlYvHdshbDG9nPHBbt26dXz729/uF+xei/zwNtpeRLm/PQFFRUXMmTOHBQsWsHr1at785jczd+7cMTk2IcTUtGVXEy/uOoJRTl/LEaszu0GAVilue+N5rF09uaEuKxoJcde1KzkZ7+WHT76E7yeJxWL46WQQuDI93dLW5bu/fp5zGmcTCYdO+XNePXyML/1wA68e7cQ4Dp4TxiowuJm5akEXv7LiEO++/vXccMm5lIzBHLqxNH92NR966yXMri3ngV9spCeRRtlg4YvKLfbQYA0dnT185sGn+Oy7IyyeJ3PuxNAmp1vkaURrTSh06heUoWSHYCGoxGmtczfHcQbdp7Xut/TeGENPTw87d+7k0Ucf5ROf+AR33nkn//mf/0lbW9uYHKMQYurZeeAYqXQw6d/o4KdVYH2DwmPx3HJuedPyyT7MfkpiUd79lxeyckk9RUURkqlkpllysFsFGIwPT29p4rltB0/5/VvaOvny/6xjx8F2jONgtMJoBz+zAlZZDdZlVmUxn3nXWv56zarTLtRlFUXC3PXmlXzyby+nqrQIbTXKahwbVByVDebeJeK9NB09yVd+tokjbZ2TfdjiNHXGB7uxlj9XJH9OnTGm39y77OP5zwMGPWfXrl18+tOf5m1vexubNm2a4LMRQky2nt4Euw914GPx8m7W2mCbL5PipsvOYVb1xC0AGK2qsmLetnYlWqdwdbD5PFqhVXAzCgxh1m09tWDneT7ff/wlntvejHJcrLaZ6qXBxeJicZRlTl0Vn3vvdVx03oJxOsOxtfYNi/i3d1xOWVE4aM+SuT87dB0KR/Gtw3Mv7ec/f/IsiUTqlD9D5y3O0Jk/KythYDqRf5fjZKTFE/lz9JRSuepd9ufAycSbN2/m7rvv5vHHH5/oUxFCTKKjx0+y89DxTOuOTNUucwuHQjTMrmXZWTMn+zALuvz8s7hkaT2elwT6dnKwChxH42jNpl1HaO88Oer3/M0zW/nFMzuwSuf2uQWDa0Bj0HicVV3El/7+CpY1Tv58ulNx2YpG/u1dV1FUFAqqstrkQiv0BbHH//Aqv9qwY5KPVpyOzvg5doWUlZVx1113MXv27H4rWH3fz1Xgsgotjhi4kCL7OqUUyWSSeDzOiRMnaG5uZv/+/bS3t5NMJvsdh9Y69/qmpiY+9KEP8e///u+sWbNm/E5eCHHaONjWxfETCSC7Qb3JDDMG16OzZlUyd+aMST3G4biOw/UXL+X5vcfp7Q629MruSdvTE6esuIiDB5s53NpOVUXpiO+3+8BRHvz1S8S74xCOEHT3NZk9a4Pvpboiwr++/QqWzKsdt/MaT5evbOT/3Jnikz9cTyKdImyzi0AANK4fzLX89i9f4twFdZxzGgd7MfEk2BVQXFzMHXfcMSELFzzP4+jRo2zevJknn3ySJ554ouCcuq6uLu69917mzZvHokWLxv3YhBCTq72rl+5UEmt0v0q+UcGm7vNnVpy2c8eyzj+7gbJoiPjJFGBBKQxQWlpCKtlL1FU88+J2zls0/OpYzzf84Imt7GtpB8AaGwztZqqAykJRWPMPt1zCisWvrefbZHvLJUs4cuIkX/vV8xi/b3hNWUAZLJrDbSf49q828m9/fzXRP2PxiZiezvih2IFz4PJv8Xh8Qo7BdV3mzJnDddddx5e+9CUefPBBbrnlFhwn2CNw4GKLPXv28LnPfY6TJ0c/dCGEmJo6e3oxFhwUYRvcHBRaOWgdIjpoA/rTT1V5KasWzAp6eGZu1lrSvo92wqS1y+7D7SO+z4s7D/K7TXvxHAfPdXI7SGQZa7n18vO4+vVLxulMJtadV53PDReeS8pCwrP4VuGT7V/oES0Os+6lvTyz5dXJPlRxGpGK3Wlo+fLlfP7zn+fss8/mvvvuI5UaPEH28ccf5/e//z1/+Zd/OQlHKEZjx44dPPHEE/3uKy0t5YYbbqC6emy67Yvpr6sniXY0yii0T2ZFrMYog3IU5SWnd7Uua/nZ9fz8ub1YFQyXQqannVZY4GSvGfb1yVSa/3nyJU4m0339+3TQZDdoQgznNdZy21Xn4brO+J7MBCmKhPm7q89l54EWtuw+RCi7KVpmB414sodotIgfPbmF1efMpXQSmlKL048Eu9NULBbjgx/8IJ2dnXzjG98Y8jk/+MEPuOGGG0bdL09MrC1btvDZz34W6Ku6VlZWcuGFF0qwE6PW1ZOZXweknWAIzgBYjes4lMSmRiPz6soyLG5u8QSQGZUNFoslPEVvb5KioqF3Pvjj9gM8s7Wp332597KaiKO4c81yZtdO7DZq4+2s2dW88y+W88+HWvDTkB1o00rhhEL4vsfmPS384eUDrFk9QqUybxFGZsIe/f+FiOlAEsFp7sMf/jArV64c8rE//OEPrFu3boKPSIxW/mKa4e4TYjjZvUONAl9pPK1zOxKk0z6JlDfJRzg6sUiIkAPZFay5XnbWx1qfRCrNiZM9Q77WGMMTL+zF8wf/95NdpHbh0tlc9rqp0dbkVF1x/gLWrFyEwgzqqABgLPzmj7tJpUfzv4Xsdy+mKwl2p7nS0lLe9a53DbmXou/7/O53v5uEoxJ/LqmuilNVUVqEMQprVS7QZX8xexY6MxW9011JkYujPJRNo/H63RQeJ7q7aT/RNeRr9x48yvqXmrDKyVT4Mj9NUL90teWOv1g5bRcQRCNhbrxoEdUVpSilML6PGdAT9YVXDrGrqXWEd7IoTN/NSsFuOpKh2CngTW96E+eddx5btmzpd7/Wmk2bNhGPx4nFYpN0dKIQqc6JsVBRGsybstaiTWbuWGYrsVA4SsKfGvPJaiti3PiGBtq7enCcIKBm/75qjKW0KEQkPPSvpEc37OBkwtK3awVB0DU+SlsuPXceFyyZ2qtgR3LhsrM4v2ET67qT6EiE9IC5190Jj9/8aTfLFgyz1VhmK7fc96jI9Z5RSmGRlDcdSLCbAkpLS3nTm940KNhlV8geOXKEBQum5xDEVDYw2OUPoQgxWhUlRbiOJp1WOCqzP6wFqwy9iRQHjsVJpT3CodP7cj6jopR/fueNp/y6RDLFtoM9pNKQf4pKKVCKcMhh7arGMTzS05PWmrdcei7rtrdwoqubSCiMm/k+DBqrDU/vaOLdPXHKigv9RV8F1yEdzNUM2uIpVLaVjlyipgUZF5oiliwZPCk2u7fsyy+/PAlHJISYCDPKYrhYlAluOtPHDMAzhhd3HWHXwem7l/Tm7fvZc7iNaDTa735tgwUEi+fO4PLzz5qko5tYFyyZx+KGGv5/9s48Por6/v/Pz8zsbu6LHCQhJOFOAEEQFeSyqGiLiuJVq/L4SvWrreK3ar/YU/rVVm2tYr2L1Z9tvaV414tDBEQqh3Il5L4Pcmc3e8/8/tidJZvdhARyQNjn4xEjM9mZz8zO7rzm/Xm/X+/IqEhkSfLr4qEiUdVk5ut9hT1swTN1LfQ8O3H04TNYuk+IU5OQsDtFyMjIID4+PqAtmdvtpq6ubqiHFyIIwbqThKJ2IfpKSlwkCdERCEnDJas4hdcLDg00jdpmM9sPlB97Q6coeZUttJjNuJxmPPIFnyExqsZ5uaOIiTo9UlFioiI4Z1IqijAAEprmicCp3l6yTpuLw1Wt3b5eoIHq9Bg74/k+0quSZUkmFLIbHoSE3SlCXFwcsbGxAcslSaK1tfsPcogQIU5tRiZGM3NSOi7VjSZUNNF5it/z///++jCl1cMvamezO9iZV4UsgyR7RB2a3r7eI0xmTOghp2wYMmdyBm63HZfLI8JEp/OBW/DNgTLM5m7M9TVP6zVZO1o4IXkjd0IShJ47hwchYXeKEBkZSXh4cPPJkLA7OQnl2IXoDyLCTJwxPgXFpKBbVei9ViUNJE2luLqZv7z9Fe0W61AOtd9pbrNQUtWEIknYOwKPbfTIeDJTT94+uQNBbnY6Wclxnn9o/rdwg0GitL6NmobmoK8VCAyqikEFg6oiqyDh6WQSmoodPoSE3SmCyWTCZApu3GmxBPd+ChEixPBgYkYCcdH+RsRdHxQ27innb+9/h83uHMyhDShF5bU43OByuYmMjApYn5OVxIi4wOXDmfAwI+dMzjjaXUOTkDQQqLidLqxOjeqG4O0mhab5HgYkb7ROVVXflGyI4UFI2J0i6P1rgxEZGTnIowlxvISidiGOh/EZI5kxJhWjouBwOFCCVsCqvL5xLz9/4j0KSmsHfYwDQXltM2ar1ePdprq7rJUYn5GIIp8adi/9ycRRCYCntZwneqt6plRVF3a7nQOlPfnZqd6KYs9vTc/XlELCbrhwctfHh/BhsViwWoNPs8TH918LHZfLhaqqOBwOWlpaaGtrw2azERkZSWxsLNHR0RgMBiRJQlFOnstHH7PVasVqtWK327FarTgcDsLCwggPD/f9mEwmjMaBb8MUzIxYCDFoJsUulwuXy4Xb7aa9vR2z2UxHRwdGo9E3tR8VFRVQbXiy4nA4cDgc2O127HY7TqcnMmUwGIiLi+s3L0eXy+X77XQ6UVUVk8nku+aHwmQ6PMzItd+bQn5VKxarlQ5LB4oiI4S/qHFpTv5TVM9PH3+X6y6YxsWzc0lLjBn08fYXVfWeKUVJCNyahq8NFiBLguzU4dU+rLekJ8YQZlT8uo7oBSWybKC0oQfTauH2VsN68xRV3ej49BPIw5WT584cokcsFku3U65xcXHHvV2Hw0FVVRWHDx9m7969HDp0iIaGBlpbW7FardhsNlwuFwaDgbCwMJ8QSEhIYOrUqUydOpWxY8eSkZExaJFDVVWpq6ujqKiIkpISysrKqK2tpaCggLa2NpxOp5+okWUZRVF8x5Camsro0aOZNGkSmZmZTJo0iYyMjH4fpy48dIQQyLLcbdSuc0T2eMRDR0cHFRUVlJaWsm/fPvbt20d9fT1msxmbzYbVavWdD6PRiMFgICkpiTFjxjBp0iRycnLIyclh5MiRPe5HF9H6GFVVRZKkPotl/XXdUVlZycGDB9m3bx9lZWWUl5fT1NTkE1xutyeCI0kSy5cv58477+zT/sEj3qqrqyktLeXgwYMUFhbS2tpKW1sbLS0tmM1mVFUlKiqK2NhY4uLiiImJYeTIkUyePNl3DQ3GQ85ZOaO5+KxKXjjS7D3/si/iIgsNBGga2FUXzXaFNe/u5OWNe7lw5jjmTEpnTGoiacnxJ73fnY7D4aSlzVMEoOKm8wSTKiDSKDE6JbCg7HQgLSmWuCgjtU0uVOEtgEBFlhWcbo3qJjM2u4MwU5fpe6F50/JUhNDQ8BRNCC00eTecODU+4SGoq6ujsbEx6LrjaSjf2NjIxx9/zGeffcbhw4cpKSnxrZMkyXfD0PMvdBRF8UU0vvjiC9xuN6NGjWLs2LGcd955LFmyhOzsgfGUamxsZPv27WzYsIH8/HwKCwuxWq0+2xeDweAbW08cPnwYSZJ8eSUTJ07knHPO4YILLmD27NlERfU+Z2fDhg2sW7cO2TsdpJ8rWZbJz88P+Huz2cyjjz5KUlKSLxrkdDp99jUulwubzcall17K1Vdf3asx1NfX8+mnn/Lxxx/7hK4+Drfb7YsSCiF8YkinrKyMb775xjfmyZMnc+6553LFFVdw5plnBt3fJ598wosvvuiLXqmqSnp6Or/61a+6jR47HA6ee+45CgoKAI+os9vtXHDBBVx33XV+f1tUVMTrr7/Ohg0bOHz4sG/MPeUB1dcfq5WSP7W1tXz22Wd88cUXFBUVUVxcjN1uBwKjqp0FaFcxOmbMGMaNG8dZZ53FwoULmTx5cp/G0RckSeLGxWdS0dDClr2VuFQNp9PliWH5Tovn4cCBE8kg09jh5J8bvuW1z75lzMgRjEtP4pzJoxmfFktibDiJcdFERpycEdt2s4VGix23JtBEoPCIjFCIDh/4yPvJSEJsJNGRJqqbzb5lQpMQqobJFIFbhNHUZiEt6fQ8P6c7IWF3ipCXl4fVavW7qQghCA8PD2pe3B2tra18/PHH/POf/2TXrl1+ok2/cXa9eXW+mWqa5idiJEmiurqa6upqvvzyS9566y2WLl3KsmXLyMzMPJFD9uFyuXjzzTd5++23+eabbwIiYfoYXS4XiqL4RFJ3dI0SFRQUUFBQwNtvv82iRYu46aabmDNnTq+iZnl5eaxfv77bbXf+t6Zp2Gw2PvzwQ9851Meu/+h/N2bMmGMKu4aGBt5//33eeeedgPey87bhaDTwWMd04MABDhw4wAcffMAVV1zBDTfcECDUi4qK2L59u9+ytLQ07r333m6363K5WLduHYcPH/ZbnpyczDXXXOMb18cff8wjjzziE4D6NabT3XH0NmJWWVnJRx99xPr169m7d6/vnHU9/13zWbt6Eur7LywspLCwkH//+9+89NJLXHbZZVxzzTV9+kz2hdjoSO64/BxcDjdbv63CgIYqwI2nI4Us9FwrCQ0NoQkMigGhQVmjmYoGM1/sLSHcKJGaEMno5BgykmMYk5bA2FHJjBwRQ0xkGMaToOdqq7mDhg4Vl1AQwoGkeWWr9+soyighidOzbZ8sCaIiw1GFpwhCaJ6pWA0Jl91BW1sHTa0W0pL8H7SE0K1RvB54aAhJIGsC1FD+73AhJOxOAVwuF1999VXAck3TyMnJYfTo3vVI3LZtG48//jg7duzA6XQG3Bz7I/+rqKiIP//5z6xfv56bb76ZG2+88YSmqVpbW3nyySd58cUXMZvNfoIoGHa7HVmWiYyMJD4+HqPR6MvL6ujo6DZPEcBms/Huu+/y1VdfsWLFCm677bZj5p8dazxdCRZ1CiZEjzWtuXPnTh588EF27drVp/33lrq6Op577jl27tzJH/7wB6ZOnepbF+yYe5OnZzAEioXO18ann37K3XffTVtb8Ebw0L0w7U1F37p163jmmWc4ePAg0H0hiy7yjEYjMTExSJLkyzXtbj9CCCoqKnjqqaf48MMPueqqq7j11luDek+eKBmpSfzixu+xxrCdT3YWBPkLySeCZP0Qu0y1WR0qJfVmSurNQDUCiA4PIy05gTGpMeRmJpEcYyBzZByj0xIxBnnvBpo2s5VGix1VgKwd7RELHhvd6AjDKTOt3N9IkiA2xoQm1E7vs4RuMGy2OmhsMfewhaP4X9MhcTccOD0/FacYe/bsYevWrX7L9AjCmWee2aub6nvvvcf//d//UVVVBXR/g8zKymLChAmkpqYSFxdHQkICJpMJi8VCa2srZrOZuro6iouLKSkpwWYLnqRbXFzM7373O6qrq7nrrrv6NL2p43A4eOSRR3jhhRcAj+VL16nW1NRUcnNzmTp1KmlpaYwYMYK4uDiioqIwmUy+nDaXy4XVaqW8vJzCwkK+/fZb9uzZQ3Ozv9+TwWCgvr6eNWvW0NrayqpVq3o8v8Gih/1BT9tdt24dDz/8MBUVFT0Ky4iICDIzMxkzZgzJycnExsb63s+2tjaamppoaWmhvLyc4uJiampqAraxe/du7rnnHv70pz8xbdo04Pgre4Ndc3r0Kz8/n/vvv79HUQeem5Cey2k2H71x9XS+bDYbTzzxBM8//7yfsO98Q4uIiGDChAlMnz6dWbNmMXLkSCIiIggLC0MIgd1ux2KxcOTIEXbt2sXu3bvJy8vzG4N+fOXl5Tz22GPk5eXx6KOP9mtxk05ifDS/WbGIMyam8damfRTUeM2JtaNf6bLmjXh6G7+r3sPVBKBJuN1HhZIsS7RZbbSV1pJXWstH2w8RLsukj4glKS6czJQYJmUnkpEaR1JcFOkpA+8dJxlNOBw2T7GmJuk9JzwrhUpkuKHPD1bDBUmSiDAZvP1dO30eNQmEhM3ppMNm7/b1qu/SlxBCRui9yQhVxg4HQsLuFOBvf/ub3w0EPB9sSZK44IILjvn6F198kYceeihgGzpJSUlceeWVzJ07l5ycHNLT04+5zaamJoqKijh06BDvvfceO3bsCLjhO51OnnjiCSoqKli9evUxk/K7sm7dOl5++WXfl3dnUZeVlcWNN97I4sWLyc7O7nWkccaMGb5tHT58mA8++IC///3vPoGn5+q53W6effZZ4uPjWblyZbfbmzZtGjfccINv/7pY0HPsukZaIyIiuPTSS0lOTsblcqFpmi/HTlVV3G43TqeTc845J+j+nn76aR5//PEeo5czZsxg2bJlTJ06laysLEaM6Pkm7HA4KC8vp6ioiA0bNvDuu+/6XSsHDhzgf//3f3nuuefIzs7u1nbneDAYDDgcDh5//HFKS0sDjikqKorJkyfzve99j3HjxhEREeETdm1tbbS2tlJXV0dOTk7Q7dfX17N69Wreffddv/xC/X2KiIjgyiuv5JprriE3N7dXBUCXXXYZFouFvLw8XnvtNdatW4fNZvPLwwP46KOPsFgsPPbYY6Sl9X93BJNR4ZrvTWXRzGw++08+72zbT2F5G7r4kTR/ES5pnhu60Dxxmc7rPIU9CjabDaPRQIQpxnNdNNvIq2xmd1k7HVvyiI8xkpYYRWpiFImRBiaOTmZydiojR8T2e1svh8ON6naAKtA0Ix4RcnR9dITptLQ60YmPiuBoHNP/+8/pdOJ0drWHCY4njxpCom74EBJ2Jzkvvvgi7777btB13/ve95g3b16Pr3/uuef43e9+F3RdTEwM1157LcuXL2fs2LF9GldCQgIJCQnMmjWL6667jg0bNvDKK6+wYcMGv78zGAy8//77WCwWnnnmGaKjo3u1/ZKSEtasWeOXz+R2u1EUhcsvv5z77rvvhCpZFUUhNzeX3NxclixZwn333ceePXuAo1Ojsizz/PPPc/755/tNRXZm/vz5zJ8/P+i6t956y0/YSZJEZGQkP/3pT/t8vgFeffVVHnnkEZxOpy8X0u12+wpB5syZw0033cQll1zSJwsTo9HIuHHjGDduHIsXL+amm27ipZdeYv369b6Cgv379/OLX/yCtWvX9muUxGAwsGnTJj777DMkSfKJL/3avPHGGxk/fvxxbbu9vZ377ruPTz/9FFU96tmli7pLL72UlStXMmXKlD5vOzIykpkzZzJz5kx++MMfsmbNGj7//POAv/viiy/47//+b5599llGjRp1XMdxLEbERnHdBTNZMmcym/5ziAPl7WzdU0htkwWn21MpKWTJl69oMMiYLWaio6Pp6LAiCYHqVlHdDgySAc0FZtVjcKtJAjlCw6q2IAxuLBYbReYWikolVAEqh5BkwejkEZw1MY0pmSOYNmE06UlxJ5zWYXO40NwqEgKXN2ond5oqjAw3nbZTsQAxEUaPObHHhQ4VCUlSEWiobo3wiCAPKd4Iroo35QDh/b7T8+9CDAdO30/FKcC//vUvfv/73wddZzAYuPXWW3t8/datW/nTn/4UdN2ECRN4+OGHmT179gmP02g0cskll7Bo0SKeffZZ1qxZEzBF+/nnn/P444/z61//uldf+Js2baK83NPYXI+ACCG4/PLLefzxx/vVhy43N5e1a9eycuVKtmzZ4je+trY2HnvsMV566aU+b7e7yFZvKne7sn37dh599NGAKUeDwYDJZOLmm2/mjjvuOCHrG50pU6bw5z//mXnz5vHggw/6pmi//PJLfv/73/fLPnSsVivvvvuu3/Vy1lln8ctf/vKErk2Xy8WaNWv497//7bdcCEFsbCx33HEHt912W7/YlMycOZO1a9fy6KOP8te//hWHw+E3zfvNN9/whz/8gccee2xAPQOjIsK4dMGZXArU/2AaBwqr+Sa/hvyqZsrrW6iobUaRDYAJSZKxWDqQu3wW9Sie3iQezY0qPFYaHksNAUi+fq2akHC4BIXV7RRWH0IWbhLjo0lPiOW8KaOZOSGVCZlJRIQF75rTE3aXC1X1hBc14UZDIGme/EdVeITdUHgKnizERHjPaedesV40zY3L1XPEThXeyK075GM33AgJu5OQ+vp6/va3v7F27dqAZH9dLFx77bXdTtcBVFdX8+tf/9oXcenM7Nmz+dOf/nRcUaOeMBqN3HXXXYwePZpf//rXNDU1+a1/4YUXmDp1KldccUWP23E4HGzcuDFgeUpKCvfdd9+AmAunpKRw//33c/3113PkyBHfclVV2blzJ8XFxYwZM+aE9tHZgqQv1NfX8/vf/566urqAdXFxcaxatcpvOri/WLp0KcnJyaxatYrCwkIA/vGPf5CSkhLwt72dntXtUXT27t1LZWWl799nn302f/nLX064ovrNN98MKsbj4+N56KGHuPzyy09o+10JCwvjl7/8JampqTz00ENYLBa/Y/3ggw8455xzWL58eb/utzuSE2JJPjuW88/OobXdQkF5LVXNNg6VHmFvQTVN7Xaa2jtQ3f7pE3oPWqF5qmwlVUJG8uZkedzkfFevZz7XG0XzREQlIWhobKO11cn+gnrCjBLTx6dy7pQ0ZuVkMHZUUq+vU8/nRMI3RShUNF9ZrMBkPH1FHYBRkZFkya8jh6Z5/AyFJFB7kwurSQhJgDtUNDGcCAm7HhiM7gQ6FouFyspKNm3axAcffNBjteOCBQv42c9+1m20QVVV1qxZE9RHbfr06Tz++OP9ZkUSjCuuuAKbzcaqVav8RIzT6eSRRx5h9uzZPebb1dTU+OwuOrNkyZIBMRLWyc3N5ZprruHJJ5/03ZQlSaKpqYlt27adsLA7XnRrjq4IIbj33nu56aabBmzfc+bM4YEHHmDlypU+wRtMYB4PkiSxe/duX3QrKyuLr97n2QAAIABJREFUxx577ISvzcLCQp5++umAhxqDwcA999zT76JOR5IkVqxYgc1m46GHHvLLYXM6nTzzzDPMnDnzuKZ+T4TY6EjOmjyWs4DL50JrewfFlfWU1TZR3dBOaV0L5XUtHGm10mZ2oXoraCVVQngzuGTN075KFZ5onvC2n5I0r0gXKmhgtTkwKCbMFjMGxYTDrrLpuzI2HiojNWEf35uWyWXnTmTy2GPn8RoUBUk1etSm7IkaAmiahKaB2ebo93N1KuFyqz1alBiUQOGrIXBjREM+WmijSaFi2GHGaS/sdGuDrk+RDoeDvXv30tzc7Ety70xfKgO7WiS43W5f66uWlhaKi4vJz8/n8OHDVFRUBLVU0Pc3efJk7r///h6F0d69e/nwww99r9O3N2LECH7xi18MqKjTufrqq9m3bx8vv/wycLRisLKykvXr13P77bd3+9rm5uaAQg9N05g5c+bADdjL+eefz8svv+yLuOh5Wbt37+bGG2/s8/a6+q71tdF2U1MTb731lu/fna/T5cuXD0oEaOHChaxcuZIHH3wwQCz1NUrY+bOmqiqyLPs8CO+6665+iSK/8847lJaW+sanm2xfeeWVx/Ue9pVbbrmFqqoqXn75Zb+oXXl5OW+88Qa5ublDOoUYGx3BmTlZnJmTBUCH1UaruYPmdhvFNc0UVTVT02imtrGDssojWGx2JFQ01Y2mCSRJgCZ7KzI929S8U4EmYzggYQpXcKkuNEmAQQVNo665mXVfNLNtbwEXnDWRZQvPICMlodtxmgxGZBEFqhuwgfCYMXstwGnvsONyuVGU03MK0e4ITOlQVQ0hg4zA2hFYLKch45AjkTSQhIR+QoWQAnxSQ5y6nPbCrjtaW1tZvXq1z3urrzfkrvhyV7zWG517Xqqq6kvu7om5c+fy29/+ttsKQJ3169cHTIMKIVixYkW3if79jaIo/OQnP2HHjh1+kUO3283rr7/OtddeS0JC8C/1trY22tvb/ZaZTKbj6rDRV8aNG0d2djYHDhzw85erqanB4XAMahQXPF0eDh06FLB8/Pjx3H333YP2RXzDDTfw5Zdf8umnn/b7tiVJYtGiRVx22WUnvK2ysjI/w2idxMREbr/99kF5/4xGIz//+c/Zs2cP3333nW+5JEl8+umn3HzzzQPWneV4iAgPIyI8jNQkyB3jqd51Ol0caW6jud1KaXUThyvqKK1ppeqImZqGdjrsnnZ9JpMnz8tnn6EbYgOSLOHGjdBUb29SFVWFmpYOXt6Qx9f5jdyxdAbnnRH8XESEGb2b8z4UeUWkvqt2qw2Hy3naCjunN4dONyj2IVQU2TNV2xUNgYbizZaUfPmT+nZCobvhQUjYdYOqqjQ0NPSrtQMEj3DoVY1dXfZ1hBAsX76ce+65h6SkpB63X1BQwCeffOL3WvAIgauuuuoER983Ro0axdKlS3nkkUd8yxRFoaioiI8//pjrr78+6Ot0oduV4/VP6wvR0dFERkb6Ip36T3V1tdcK4viFwfGMv7uK6BtvvHFQhK5OWFgYP/rRj9iwYYOvErfze3SsY+scsdTPrZ5KIEkSN9xwQ78UFrz33nsUFxcHfI6uuOIKJk6ceMLb7y3x8fH85Cc/8StwcrvdlJeX8/nnn3PLLbcM2liOB4NBIS05gbRkmDw2nR8wFbvDRU1jG5VH2imrayW/rIm88npqG820WT3TogIBdBELQgXN46PnEYBuUB0cLq/lN89/zs+unc2l8wOnpyVcGGUXNqenklMTsrfThEAVgg6rist1enaeAGjrCMyf1jQVgYRiUHpdMez5jgOEYBC+YkMMAiFhdwy69gA9XvSboP67cysj/XfnJvH69NHChQv5r//6LxYvXtyr/WzevJny8vKA6N9A56d1x0UXXcRrr73mmxrTp7W3bNnCddddF1TIxsbGEh0dTUtLi2+Z3W73S7IfKBRFYe7cuT6fQF10JycnD/i+u1JTU+MrWujM2LFjufTSSwd9PHPnzuWcc84JaCd2PHQuJElPT++X6myHwxE0oqhXDQ82ixcvZsGCBXz55Zd+dit6Z4qBMC4eSExGhazUBLJSE5jrXWazO6ltbOO7gip2HCjn68M1NJldnsILTffOlXwRPd1kWPEWXrRa7Tz86laEwcCS2f7CW5E0IiMEbXYnMgJNgPBWbsrItHc4cB5HhflwobHVhlA1Tw2L8I/ahRmVbnsAq+JoDa3WKUfP00v69D2fw4mQsDsGXQXY8dJVwHSOdnSOZphMJtLS0pg8eTLXXXcdc+bM6XWUyOVysW/fvoC2Venp6UMiBMBjq3LeeecF5Dzl5+dTW1sb1LhV7xzRWdgBvP7661x11VUDOp2mKAp33XUXd955Z9B1g8mhQ4eora0NWH7xxRcPidCMiIjg4osvZseOHcfVfq67zhPz58/vFwuVoqIiioqKAvYzd+7cIZn6NBqNXHnllXzxxRd+y/fv309JSckpJ+yCEWYykJU2gqy0EVy24Ayq6pvYsb+EAxUt7C6opKiinsjoWFQ3OFxOHN6epqrqKbwQksDidPHAG1+QkRLFtDFHiypiIsOJi1aoa7Gjoermax5xqGpYLG7cp2k1p6qqNDRbvFYnRwvUZFlGVTXio0wkxvfsGer2Trt6fguEkAask06IwSUk7LpBURTS09MJCwvrVf5bb+ksFI1GI9HR0cTHxxMbG8uECRPIzc1l/PjxQS0ljkVzczN5eXkBYx03btyANSU/FpIkkZub6zPU1SOTZWVllJSUBBV2qampZGZmBkTodu7cyZNPPsnPfvazAc0t0yN1Q83+/fsDIsWyLA96VWVnzj77bF9njv6YGpdlmTPPPLMfRuYRwg0NDQE9aXsb7R4I5syZQ0JCgi/nVQiBxWKhuLjY1wVlOJGenMCy7yWwDCirruffXx9m/Zf5HrNkTaBJEkid+76qIDz5cmv+tZWn71jq87yLiY4kITocOJpv69Y8AkTSJDqsLpynqbBzON3UNbZ5P4NHv6s8p1ZFwU1ifEzA67QuOXTuzv+WQp0nhgshYdcN8fHxPPnkk0yYMOG4DGV7Qu9qYDAYUBQFRVH6RUhUVFRQVVXlE3Z6dKy7rgmDxfjx44mOjsZsNvvEncVi4eDBg5x33nkBfx8WFsb3v/99tm3bFrDuz3/+My0tLSddAvpAEKxoIjk5eVBzxboyceJE0tPTfebRJ4IkScTExDB69Oh+GJlH+HfNzYyLi/P1uB0KkpOTmTZtGps2bfJbvnv37kHPeR1sMtOSue2KZHIyRvD/Pt7Hd8X1OIT+XdpJjGgQ5lLZl1fFpl0F/OA8z4NLVEQ48VHhAAjVjSbLCCEDEkKTcNg0ahospCf3n2H2qUJdYxtmaxe7F+HJTTYYjSSNiCEuuvv2eKrw1rloEt7Zcm9+ZIjhQEjYdYOiKMTFxfW6BdbJQFFRUUA1KTCkNzaA0aNHk5yc7GdhIoQgLy+v29csWrSIl156yZdjpotVTdN44YUX2Lx5MxdddBEzZswgKyuL7OxsIiL6t1flUOJyuQIqm8FjpJyamjoEI/IQFhbG+PHjKSsr65ftJSQk9Evupz693zVal5KSMqQPAEajkaysrIDlBw4c8GuXN5xZcFYO6ckJ3PvMx5Qc8V7TwpNvJ+PJDZMANIlNeyu48OxJGA2eh92RiXFABUJSEaJzvEnFaneTV3aEs3KP7Yk33KiobaKxtQOEJ/opUJE0FUnxFK9EG7uPZPrWCELFEsOUkLDrgb52CBhqGhsbfRWLOlFRUQPWo7K3REdHM3LkSAoLC31RRCFEQA5dZzIzM7n77ru599576ejoAPy7FhQWFlJYWIjBYGDkyJGkp6czadIkxo4dS0ZGBiNGjGDEiBHEx8f3awuswUJV1YDzI8sy8fHxg2650pXExETfZ+NEhUlycnK3tjd9QVVVGhsbA6p1J02aNOQPZ+npgcKjtraWpqamQa1sHkrGjU7h5z9awN1Pf4jVaicmNpb29nY0b1WF2/vgtq+wmrKaBsaP9vh0jkqJRVFMOLx5ZJrmqcgQmqdAo6KhbWgOaIg50tLhFccgIXnyFVExGsNwuqyMTQ3+nddVx4lO069CC0XshgshYdcD/W11MtAEi9ZFR0cTHh4+BKM5iqIoREREBORktbe39xi1uPzyy6mrq+OPf/xj0NZo4HH0r6iooKKigq+++spXgKLnLiYmJpKYmEhycjJZWVmMHj2a0aNHk5CQQFRU1Ekb5XO5XEHfz6ioqCGP8kRHR/dbtCkmJqZfilJUVaW5uTngM1tRUeHrl9z1Qa3z9dg5Inys/ej05vhlWQ7aRcZqtdLe3n7aCDuA86Zm8V+XzODpdTs8ok7zJO0D3iIAaDE72LmvyCfsxo9OISIsHIfVdjQ/TKiAC01AXuURWtotPU47DkcOFdegKIqvH6zHKxAcDhuq5mTK2J6j+qrwdf0NMQwJCbthhMVi8fu3JEmEh4cPaOPx3mA0GomMDPzitdvt2Gy2bsWVJEncdtttjB8/nkceeYR9+/b5rQuG3sWgubmZpqYmioqK/G7GiqJgMplISkoiMzOTUaNGkZGRwdixY5k3bx6xsbEneLT9g35uuhIbGzvo1bldiYuL65fCCSEEERER/SIQdWHXld27d/u1Lev6uzO6l2SwY+v6970pptK3FewB0W63BxXuw52LZo7jzc/209hq9pxDqbOJroTDoVFQ2Y7N7iDMZCQ1KZakaANWRzit1jYUg9Er7DwcLK6morbptBJ2ZouVg+VNnoddWf8u8EzJujSVlNgoRqV0X3Gtdrp0O1+Z/VQfGOIkICTshhHBbhSRkZFDHrEzGo1BxZvVasVisRwzarZo0SKmT5/OZ599xueff86hQ4coKysLsHUB/DwAwf8GrHsS2u12SktL/fz+NE0jLS2NOXPmcNFFFzFz5swe27YNNP1Zid3f9GeKQnh4eL8IO5vNhsPh8L3HXelLS8Bg15R+Xelj7YuwDXZ8ekvB7nC5XHy8/QDtHU5vUEvD0zcA0DQ01cXiOVNJiAusfDyZGT0ygfOmZfPZf4qCRuEloVBc3UJDUyujUpOIiYrgnNxUCj9rIDw8CqfbBajeKUiwdtjYX1zP1PGD79E5VOw+UEJ5bQuSJPmMTjw+dp4WiBNHJ5F4il0XIfqXkLDrhlNtGhYIWr17PH5j/Y1uHxKsL29vz/OIESO47rrruO666zhy5AgHDhzg22+/JT8/n+LiYhobGzGbzbS1eXJudDPYzgLP7Xb7dTvoGr2pqanh7bff5u2332bMmDHcdNNNXHPNNUMSxQsWaZUkiY6OjiFPum9qavKds758ToKNub+EXddt6P+WZRlFUXx2O8crSvXt6a/Xr6/u6CoOu45PluWgEVkdVVV58cPdVNRbPL5twiNo3EIBVcNkgKz0JGafYjdwRZGZMyWDD7fuJ9hEoEtz0W5102E76qc2aXQMRoOGA/28eko6NSAiPJwv9hRx9aLpp01rsd0F9XTYXMhGo0fR4TVuFgINlQnpIzAaDcFf3CUifbI+PIY4MULCbhjRNUlc0zSsVquv+GCocDgcQcdgMpmOK8ctKSmJhQsXsnDhQsATramrq6OsrIzi4mLKy8upra2lvLycyspKWltbsdvtvj69eoK9Lu6C3aCLi4tZvXo1GzduZNWqVUyfPr3vB34CKIpCTIz/TVtVVcxmMy6Xa0inY4/mR+HrlDLU6NeSHgXSo7YXXnghV1xxBUDANOtAjLs3N0pdDE+YMKHbv/G8/yacDZ6onqyBJiRUFFRJINBoae8+4ncyM3pkPDHRkZitDlS3/4OBy2Wn1Wqlc6ews6Zmk5a4l/0VDYRFhKNJKqoGQtUQqsq+wzV8e7iKmbn9Y5tzMlPX0MLOvHrsbhXJ5UKRZYTma+BGWJiJOWeMGeJRhhhqQsJuGNE1siSEoKOjo8cpn8HA4XAE5P+BJ1rTH9PEYWFhZGZmkpmZyfz58337bG1tpbW1laqqKp8hcmVlJQ0NDdTU1NDY2IjNZus2rwpgy5YtVFRU8Le//W1Q/eMkSSIqKspvmaqqtLa2Dnk0ubm5GYPBcMyo1WAiSRLx8fG+Th16hCw7O5vLL798KId2XEiSRFRsOE65AUkDSVURmoSCilsTIAtazaemsIsMU4iOMNHRYTtqUywkVNWJrAgcLifttqOzD4kJsYxPj6SqzYrV5fFu04Sv7AKHGz7cdui0EHbfHKriYEUzxrBw/DPkPOdkQmYik8eePtPSIYITEnbDiO4idkPdJsblcgUVl5GRkQMWeTIajSQlJZGUlMS4ceN8y1VVpb6+niNHjtDY2EhZWRllZWXs37+f7du3BxUqhYWF3HvvvbzwwgvH1RHkeFAUxU/Y6WKusbGRtra2Iavmtdls5OfnA72vJNUZyOljIQSxsbE+YaefryNHjgzYPgeaMKOEJvT+qkcRqKBKp6ywUySIiTRSe8RTFasn80uSjCyDKlQa2/wfBBfPmczGAxv8lmmSjNPhIEwJY8eBIxwqqiZnbGAnm+GCw+liw54y3BK4XS7Cwo1obieoGqo333je5IzTZko6RPeEqp17YKgjI30lOjral0ukj729vT1ov9HBxGq10tDQgCRJfiJgKPzFJEli5MiRTJ06lYULF7J8+XJ++9vfsnbtWp544glycnIC3nchBDt37uS1117r0740TTuh9mSTJk3yjUXfRlVVlc+0eSjIz8+nurr6uF4bTAD212dMkiRSUlIC9hHM5PlUITk2HtwGhNuAWxO4NYGqT4FrKk0t3efoncwYFJlwk38OmCY8U82SDDa73XecOjNzxzAxYyRCGEBTPD94xCCqRktjB+99cfiU+87uC1/tL2VrXimacKGKo/mimlBRsRMbKZh/RmaP2+icVxzKrxu+hITdMCIrK4uwsDDfzU3TNNxuN/v37x/ScdXU1FBTUxOwPDOz5y+hwSQ2NpZly5bx1FNPBW3BJoTggw8+GNQIULCesBaLhYKCgkEbQ1f27NmDw+Hwqzw+GZAkienTpwcUR1RUVNDY2DhEozoxkqIjkDqdYk2Ahl6V66agqgGrLbi/48mM0+Wi3WLF5Xb4WZcAuOxOosJNxEb5Fw5FRYRxyexJSKqC0BRAQkNCyJIn4idUPttZzHeFQ/sQO1CYO2ys25qP1e5EoKJI4HY7cWsaNpsNVdVYct4Uxo3q2RdRC4m504KQsBtGZGdnk5aW5nfDVVWVb7/9dghHBQUFBQFWLLIsc8YZZwzRiLpn0qRJrF69mvj4oz5QepHF4cOH2b1796CNZeLEiUG7MuzatWtIIhMul4vNmzf7Kpt7yk0MxkBX8k6dOjXgvNTW1nL48OEB3e9AkZ0ShyQcCPSeoB4R4xYeUVNab+Fg0fFFT4cSp0ultb3DvzpT85jsGhQjTpuN+MhA780LzhpL9shYj9jVJHRxpwkVl+SgzWbmlU+/w2pzBLz2VGfjniJ2HKzAoMkY3J7zBZ4qbUkOIzYygYtndV+MoyMQoWjdaUBI2HVD5+nMU4XExERyc3N9N1B9/IcPH6aysnLIxvXdd98FRFJSU1P9ct909GIH/aeyspLS0tIerSH6m3PPPZeLL77Yb5kkSbjdbioqKgZtHHqnjK588sknQxKF3bVrF1u2bAmY7j9ZyMnJIS3NP8eqo6NjSCPWH3/8MStXruRnP/sZ99xzD/fccw8rV67k66+/PuZrJ4xOZGRsGAgXAk+vVCQNTai40WixOCmqOfVMjp2qwOFyo8geGxpJ73OqgappJCfEYQqSepsYG8GPLpiMggsB6F8pqgBNcqFJKtv2FPPeF0M7Q9HfVNS38uKn3+FwuZE1T4W0HsnVNJWo6CgunTORCaOTjrmtUNew04OQsBtGGI1GpkyZEhBFKSsrY9OmTUMypoqKCrZt2+YTArrVyMSJE4M2s1+7di0/+MEP+MEPfsAll1zCxRdfzIIFC/j8888HbcySJDFr1qygZreDma+oKAoXXHBBgIgym819zvfrD954440hr7DuiczMTN/DQufcxnfeeQeHY/CjOC6Xi2effZa33nqL119/nVdffZVXX32Vt956q1eieOSIGNLjw8HtRBICWWiewgmhAiqqgK8OVOFwDG1xVF+prG/BbHMhKYajog4XEioGYxgxkUaMcnAFsnBGNrPPGI3qsoPb5RF1AtySp+hCdbv4+/u72JM/eA9gA4nd4eL593ZQWNWAu1P6g15wEhYWTnKk4PI5Y1G6MefujMTRNJ2TKZUiRP8SEnbDjHPPPTeg/6Tb7eb9998fkhZGmzdvDpgKkySJadOmBW11Fh4eTmNjI3V1dTQ2NtLS0oLdbqe+vn6whgx4IoomkylguW6APFhceeWVQQXwO++8E7QH6UDxySef8NFHH/X7dvvz5qIoCpdddlnA8m+++WZIHmwOHDgQdOp+xowZPXrY6UiSxKzcLFAFdmsHqG6EZkdw1Apkb34de/JPrenYQxXNqEKm3dyOpnq6aQhUBC4sHRYSYyKIi4kK+tq4mEiunD+R6AgBwg0eaYiKXkEMje12HntjGxV1p27hjM47m/fw0Y58hOYRwKCiCdXjaSgkXPYOll98JhOzh65LToiTj5Cw64FT8Ylm+vTpzJs3L2D5N998w5YtWwZ1LI2Njbz55psBprApKSk+09iujB8/Pmj+R2lp6YCNMxhGozFoTlhXb7mBJjs7O6hYaWlp4be//e2gCN6CggIeeughWlpaBnxfJ8rixYv9/AZ1r70XXnhhUKfzAd58882g3WDmzp3LiBEjerWNyVmpyLIRRRGo7g4U4cSAEyFpSBrYOqy8/8XBUyavzGp3sL/sCAbFRGRkDHqPU1nzyDNFEkwZm0ZsTPcV8+dOyWbZgsmEhZlA85o2o6BqRq/ggbyiOh7752Za2ofWnP1E2LSrgCfe/w8OOn1/ym5UWaBKMhoSF52dw4VnH/shQUcc85YWmqsdDoSE3TBDURSuvvrqACsRq9XKU089Nag5YmvXruWbb77xW+Zyufj+97/PmDHB3dEnTJgQ1AZl586dgzqd1tDQENT/r2s0tK8cT17aVVddFTRqt3v3bn77298OaNVnWVkZq1evJi8vb8D20Z+kpaUFfWjYuHEjL7300qCNY8+ePbz77rsB0/lpaWl9MkzOyUphSnY6UdGxqAhA8vxXAyFpqKqLL/YUsvW7kv49gAGioKKB/aUNmDs6UN1H+yF7LDtgRHwM40b23MLPaDBw7aIzmZqZCJoboWpImjevWBy1TvlyXwV//OcXtJpPPXH3zaFyHnztK1psR3OTBXqOnIrQYGJqDLcumUF0ZF9M3nsWbqdeKCNEMELCbhgyd+5czj33XMA/6rh3716eeuqpQUl6/+STT1i7dm3A8sjISK6//vpuXzd69GhycnL8omWKolBQUMDOnTsHZKzB2LdvH1ar1Zffptt7pKen93obej5h5x+z2dznKfEpU6Zwxx13BM35e/fdd7nzzjs5dOhQn7bZG3bt2sVPfvITNm7c6Kuki4iIGPT2an1l6dKlvsivpmnIskxYWBjPPvvsoFxD7e3tPProozQ3N/tZD2maxpIlS5g0aVKvt5WcEMOl83KxOl1Ixig0zYimGVGFBJLAKUGHJnjp37spqz35px5f3byfI+Z2j0sx3vOChF2WcMowItrElAnH7pyQlhjPrZfOIi5cYNAcKG4nittzrt1CQpUELiHxya5Cfv+PTdQ3tg7ocfUnG/9ziD++tZPKukZkFYQmISMjCYFQJWQNUiIN3PfD8xibkdynbfck3DQIBeyGCSFhNwwxGo3cddddxMTEBExrvvLKKzz55JMDuv8tW7awatWqoP1hb731VnJzc7t9rSRJXHDBBQHL7XY7jz/++KCI0tra2qA5WZmZmUE97rojMjIyYJnT6Tyu6dPrr7+eq6++Oui6TZs2ccstt/Dqq6/2Sw5ge3s7L774IrfccktAjtjKlStZsmRJn7fZnVHzQFTXZmZmsnLlSoxGo9+2jxw5wr333hsQRe5v/vKXv7B58+aAYxs3bhzXX399n21f5k9JJzcjCUtbu2/aETzRKVUWuAUcLG/kwb9vor755K2S3Z1fzYbd5Z4WaRp4bj+eXDG3UHALhTPGjmREXO+My8+dksXd156HAU/VMKheG5ROkTtJsGFvKb/520ZKqk7+LiT/2ryXB179ikPFlUSYjL5z1dnPUBIufnb12cyanNX3HYSE22lBSNj1wMlm59AXZs6cyW9+85uA5W63m4cffphf//rXA5Jz9N5773HLLbdQV1cXsG7RokXceeedx9zG+eefT1JSYOn+119/zf333z+g74vL5eKJJ55g3759AevOPvtssrJ6/2UaExMTsMzpdPbK6qIrYWFhrFq1ivPOOy/o+qKiIn7+859z5ZVX8vzzz1NZWdmn91dVVRoaGnjjjTdYtmwZv/rVrwJMpa+++mpuv/32U8IDa+nSpfz4xz/2q/6TJImioiJ++tOfDkgxhcPh4E9/+hMvvPBCQMeQiIgIVq1adVz9hlMTY1k6exwmvJWxQiCQfSJGZ1deDQ++uJGm1sC+zENNaXUjD/99Gw6rE4MKsorPj07FCGoEiRHxXDF/cp+2e9mCady2bK7Xy85/nazIyJKMpml8faiSu5/6hE078/vvoPqR2oYWHv5/n/DIq1toaG7DYDT6WUSpwvOjGGT+90fn8/15vX/A7C2CkO4bLsirV69ePdSDGEq2bdvGt99+G3ATjIyM5IorrmDkyFO32uiMM86gqqoqqI/Xnj17OHToEGlpaYwaNeqE91VQUMCTTz7JQw89FDRSN2bMGNasWdOr85mYmIjNZmP79u2+KUDdJHjPnj1UV1eTk5NDbGzPuTh9pbm5mUceeSQgF0vTNOLj47n//vv7dK5UVWXdunUB11ZJSQm5ublkZ2f3aXxRUVEeeA1PAAAaNElEQVTMnz+fhoaGoFOvmqZx5MgRtmzZwuuvv862bds4cOAAtbW1VFZWUlNTQ0NDAy0tLVRWVpKfn8+BAwfYvHkzzz//PH/4wx/417/+FTSiePXVV/PAAw8QGRnJjh07+PLLL4GjLYri4uK49tpruy0ucbvdvPXWW9TU1PgJrSlTprBo0aJ+Ny8WQjB9+nQKCgooKSnxW97W1samTZtwuVxkZ2cHjaz2lZKSEh544AFeeOEFv4IJIQSyLHPbbbexYsWK495+Qkw4xbXtVDW2oXVz+xWqRnVNC3mlDYxOiyMlYfBb9gWj6kgbv//HdvYcKEZRZL8IlBsNCQmhCVZccgaLz+278J0+cRQWm41vi+qRkBHePERVU9FQsVqthIeF09hmY9PeCtrMVsakxREVEVj1Pti43Cpb9hbyxL/+w4dfHUKTjJ7PVJc5UyEEMZFh3PvD+SxbOO249/ddQSXbDx19YOv8kCahctXCKSTEDm6BWIj+Z2A6sIc4afjVr36F2Wzmgw8+CFj36aefsn37dpYsWcKyZcuYNGlSn4oDGhoaKCkp4fPPP2fdunVUVVUF/bucnBwefPBBxo8f3+ttX3fddWzZsoWvv/7a36FeCN5880127tzJ8uXLmTdvHtnZ2RiNxl5vuyv19fVs2bKFf/zjHwE5WHqe3E9/+lNmzZrVp+2mpqYydepUnwjSaWlp4e6772bp0qVceOGFJCQkEB0djclkwmq1UlZW1q2B88iRI3n00UcZP348Tz/9tG/qVf+C1gWSxWJhx44dfPXVVwAYDAYMBgNGoxGDwYDT6cRms2G32/3Ob2eBpaoqCQkJ/PjHP+bWW2/1CaD+FGEDGX2Njo7moYcewmg08uGHH/r1yWxubuaPf/wj77//PsuXL2fhwoWkpaX16dhUVaWoqIjPPvuMV155hdLSUt/10nk7K1as4J577jmhYxmZGM9/XTqLw39tprGto9MN+eh+hPD4lO09UM3P/vwR1188laULJ5MQc+LC9XiwOZxs31fKX9/fRVF5LeHhEnhz6vBGoIRbQxIuZkzIYNnCnOPe151XLyAyIpq//usbJG+bMQ0NTVMJDw9HVVWELOHQBP/cuI+dB4v44YXTmH/mOBK6sVYZSFRVZV9RNes27mLj7jysboEhTAFUhPc97Sy6hIAV35/JlfP6FtEMpPuuExoS0ikQjQ9xbELCrhtO5WnYziQmJvLoo4+SkJDA3//+dzRN8/tgm81mXn/9dT744APGjRvHGWecwfTp00lJSSEmJobw8HAURcFut2OxWDCbzRw5coRvv/2W/fv3U1xc3KMNxoIFC1i9enWfEsbBI2AefPBB7rnnHr777jvfcn1qrbi4mN/85jeMGjWKM888kxkzZpCVlUV6ejrR0dE+EaMoHnd7u92O1Wr1/TabzVRXV7N792727t0btO2a3mv3hhtu4Oabb+7T+MEzfXr55ZcHCDuAuro6nn/+eV555RUSEhKIjY31CbuSkhLuvPNO/ud//qfb7d51111Mnz6dV155hS+//DLgPehq1eN0OnE6nUGjqcEwmUzMmzePFStWMH/+fL91XW8MqqqetNOzqampPPbYYyQlJfHyyy/7Cir03wcPHmTVqlWMHz+eyZMnc9ZZZzF16lSioqIwmUxERERgMplwOBy+89fY2EhJSQn/+c9/2LlzJ0VFRX5CTtM0VFUlIiKCm266iVWrVp3Qg4fOObkZ/GTpLP742lbsTs80XefTrglwe3PLWiw2nnlnF1/n17H0vIlMG59CWlL/Rri7w+F0UVjVwNtfHODjHfnYHA5kVE9Fp3ChoqChoAgJSXYTpbhZ8YOpJPQyty4Yiixz8/dnEGUy8pc3v8LmdIKkISv6CfJ8n6tCRQIK65p48B8bmPr1YZbMzuHsCWlkpPTOguZEMHfYyK9o4t//KeTzb/KwtLeAcKMJj+1LT9UNX+dVMGdyBuMzjt1h4viQaDE7aG3vwOVyeT4j3gH5bFK8p9M3TE0DIZAlKajv5+ChIUsSRkNI0kBI2PXIcBF3sbGx/O53vyMlJYW//vWvtLS0BER4Ojo6+O6779i7dy+vvPIKJpMJRVGIiopCkiSsVisWiwW32+37CYa+3fDwcC6//HJ+/vOfB7R56i25ubn88Y9/5NFHH2XDhg0BYkWSJCorK6msrOTDDz/EZDIRHR1NYmIiERERPnEnSRI2m422tjba29tpa2vDZrN5m2er3fZOjIqK4sc//jF33HEHERERx3UMV155JR988IHPQ7DrNWWz2aiurqa62t9ktjceigsWLGD27Nl8/fXXvPPOO2zfvp36+vrjzp2UZZmUlBTmzJnD4sWLWbBgQdBpymBRrd5EuoL9zWAIwqioKO6//35SU1N56aWXfN1DOndCyc/Pp6CggPXr1xMbG+sT2+Hh4YSHh/seCJqbm2lsbKS9vd33+q4t/IQQ5OTkcPvtt7Ns2bJ+jXBetfAMrA43f3n7KxwuN7pgAU8EzGnQwGvZq6putu4rZueBCnLSEzk7N41zp6QzISuJqHATRqOh38Zls9mpbWhh9+FKdh2u5au8ShrMTiRU8HrLeUeJKlygGkGFxCgjK686i9nTxp7wGBRF5roLp5IYH81Tb2+lzmzH4ez0WRAqknB4yiyEBKpgb0ENh0obGJc+glnj0zhjTDKTx4wkISYKRTl2J4fe0GbuoKK2ib2Hq/iuopnth6toaTGjulwYDEYkFNDwWbaAitol/V3TYMe+Mn7R0Mo9185j9tS+pXH0Bk3IPL7uP8SEKUiqC4GGJjwSQcKJ0DRv1xNP6ze8azRNRdPcdHRY0dB6jPp5BOxRjvrqHfteqwm9b4a+fQ0JN5LmRHM7OSsni9uuD/T8PB057YWdy+UK6ldmt9uHjbADT5Tn7rvvZtasWbz88st8+umnfuJMj2CAJx9Kj+y0trb61nemuxuyLMssWrSIG2+8kblz5wbtLtEXpk6dylNPPcX69et5/vnnuzUqVlVPLo3VavXLEdOPqfPxdR6/3sy+67HNnz+f5cuXs3jx4hO6MYeHh/Pwww/zy1/+ks2bNwcddzDsdnuvtm80Gpk3bx6zZ8+mpqaGvLw89u3bx8GDBykuLqa9vR2z2YzVavVd5waDgbi4OGJiYnwiJisriylTpjBt2jTGjBmDohz7q0G3X9EjYMcSacGOqbfHeaIYjUbuuOMO5s6dy6uvvsr7779PS0sLbrfbL4dTCEFLS0tAdXGwYwt2XYwYMYKlS5eyYsWKPudQ9pYbLzqT+Kgw1rz9FQ1tZs9YVF08qWiSiqqpCEVBlmU0VSKvsplDZY2888VhxmTEMSo5ksyUGEaOiCA1MZq0pHiiI8MJNwU35tZRVZUOm4OGljYqahtpbLPR2GanpOoIeeUNlB5pxup0IxkiEZIMmgyq2zv1qvp6lQpU4qOMrLrhPBad0/e8uu6QJImLzh5DRlIEaz/czaa9JUiA0FRkDdySiiQkVE1CEqC6VKwuBwVVbRwsOkJkZDiZSVGMSYsjN3skqXHhjEqOJTEuiujI8B7Pjc3hxGyx0ma20tzWQU2jmfL6Ngoqm9hfVEN9Sztug4xiMiALgSwrSKrsPR8gaaqvmldH0zQ06eiC8ppm7v/rJ9y+bB5XLDy+adnujsCtquwrqgNNw+CdGXFJEpqqYRCehwjfQ4wASQhUTaC6VQxGz9+px2xVJvkFJY8eWe/utVrn1AM8rehkzfOTEHvyG6gPFqe9sIuLiyMjI8MXxdJvaImJiYSH98X48dRg3rx5zJo1i61bt/Liiy+ya9cuzGazX0J750hG18heV3RhkpKSwrRp07j++uuZN2/ecUe4ghEdHc1NN93EvHnz+Pzzz9m4cSP79u2jubn5mKKrs3CSZdmvWrFzhEXTNEaPHs20adO49NJLOf/884MaJR8PmZmZPPPMM3z00Ue89957HDp0iIaGhh6/AHsjrLr+fUZGBhkZGVx44YXYbDYaGhp8eXT6VDp4zmdYWBgRERG+iFRfOmro2+ksivVpy54YM2aMn4efJEmkp6f3e+FET0yfPp0zzjiDq666ipdffpkdO3b4ckO7fgZ0D7zO64I9EGiaxuTJk7nkkku48MILyc3NHfBjWjInh7SkGJ54eyv7CmtwO52YTCZUQFM1EAqakL0RF08UzyBrWJxm9pW0sb9UACqyJIiLCicqKgyToqAoEGk0EGlQiAo3oLmd2BwOOmxOLA43LsmIw61hsTqwdNgxmz3CXGhek2HJhWyS0DQXqtuAqmqYJAOodtxuJ27FgNvlIjPZyG9+tIB50088UheMnOyR/N+KRaz/soBXPzlA05EGXG4HisGEzenwvHcGgaJIIAROuxUEdFgsHLJYyCur56OvDhMdbiQ2MoyIMIX4KCMRBgg3KoSbFEwGAzaXSnuHk1aLA7PNjc3hwuFUsdldNLV34OaomJWNBmQAhxuhgaTJuFwaYQYTQgO324mGE6vTSlTcCDrsNoTwTIaqwlPcIGsajRYHD7y6jYqGNm5ZMpPwsN5P8wu67z7haVnm+RtV8n5PqqpHlHutaVze10rIqN7/V4WEy931ATm4UOsaiewOyff6o9vxjF3q9DcAinebRozKiQURhhNCOxX7ZvUjjY2NmM1mn5jRv8iNRiMJCQl9vsGeSjgcDg4ePEh+fj47duxg586dNDY24nQ6fdOtnSNduvDVpzgzMjKYPXu2r/dldnb2oJwvVVXJy8tj7969FBQUUFpaSnFxsW/snQ2B9aikHpXRf8LCwoiLiyMrK4tx48YxY8YMzjzzzH6pEO4Jh8NBcXEx9fX1mM1mGhoaqK+vp6mpCZPJRFpaGunp6UydOpWMjGMbtQ4F999/P88995zvXKqqytlnn80bb7zRY4S2ubk5IEIXHh7e79XNfaGkpIS8vDy+/vprtm7dSkVFhS8fsWs+KniuI4PBQHR0NOPGjePcc89l5syZTJ8+nfj4+EEff7vFxrtbv+Ofn+zjSIsFhAubrQNFNhERGYfN6e3W4p1CE6qG0PSbpeQTHfoNV+rmbqBPpQohfLdmj0BQfa9RJRWHZPdEVTQjQlMIN4Tjdjpxue3IsopkgEvPncQNF8xgTPpA5Yr5U17bwrrP9vPehu/AYMIlJFwuOx12G4pJQROdRYiKL6blExFHp5LlTjEmXSB1vYV2jripQvVFUiWOnl/hnXpVnRqaW0ORFQxGBZfbzJjMZPJqW1GFjKa5Uf9/e/ca21Z9xnH8e87xPYmT1G3itLm1Dm06SgP0Ri8qg5WwtEwwurGtaqV1E+pgbHsxJlWaBEKaUNRp5QUSIE2AJrFVpUqLNlZUVE2iE7R0RWX0fgshpElDa+fiJI4v55y9OLbrJE6bQpaL+3ykvrCPHR+fxD0/P+f/f/5mDEMx0AxwGBomNuKqFeYevS/ALx9dQtmsojEdi7/tP8LOptHXmB7xXgwzfTzSVTol89iMQhnfYJf5dzm8dp7a9tDdfl78zQ/G9PNz3W0f7MR1iUSCtrY2QqEQ3d3d9PT00N3dTSwWo6CggKKiIoqLiyksLMTn81FaWjrZuzxEMBhMV6n6+/sZGBggEokQi8VwuVy43W7y8vLweDz4/X58Pt+EVotyxTPPPENTU1O6omu323nggQd44403pvUXIcMwaGtrSwftrq4uuru7CYfDuN3uIX/7gUAga6/FyXL28w7+fuQC//r0HFdCXShxFUWxo2g2dAUSqlU5UhNaekkyS/LEmTqR3uiErRgoGeUeK7BcD0G6CjHV+iJl11U0A+KDcewOB4pdoW7eTH5Wv5i1997aRKrxcvSzSxw82sqhT1voDkdQNJWEkXn506o4GoqRMd5NBVNN386sdo0IwYrVJDkVAk0FEooVng0luQxcKgwnn6/HdFwOJ067nSULyvje6gBrl8zn3SMXaNx9hL7+fhQSaMSs11PsQ5pUqxgsqZnJ9k1ruaPq5q2kdv3zMC81jd6gOxUH0u/BNK1eg8nbqfFz18dMpkLf8CBnDNk+uuvjCrM9P9uzhx/31O/k4bv9vPjrJ27yereH6fu/sBh3NpuN6urqW2rCO5X4fL4xL64uvh7DMLh48WK6ZUpqBmhBQcG0D8mqqlJZWUllZeVk78otq51bRu3cMjauuYMDH5/is4vXOPN5F/1xsMarZ6+gZKtK3oiZUY4ySc7KNa3LdABqqrqf7FU3x+fi3tpKVnxrNg8tX0i+Z/Iuly1fHGD54gCPX2rn/cOnab4ywLHTXxA1FQxTTQ7sVzOCgzVuTDFNDHTrflW5vn2Uw5bu0ZcMcxk1QEzFupyomgaKaVA+y01dzRzur6vm/qULcDmtStxjq2sp9tj4457DfNEZSvf+M5L7iGIkOwTAidZenn3tfX73xErW3HPjllLGGOs41muN5baRZfsoFdDsezTqfaM9Kx0yUxXTdNVZpEiwE2IKGxwc5NKlSyQSiXT7lWg0mh5PN9E6Ojpobm4GrCCk6zqGYVBeXj7tg10uCFSU8XRFGeH+COe/CPLx6XbOXO7h884Ogr29xBNxVDR0M7ncmWo1w9WTp9EbzgM1U6eL5GMNA01TicXigEEiNkjRzAKKCz0sLC9lxXw/dYFS5ldPrSbvtYHZ1AZmczXUw4XWqxw9/SXHm4Nc643R8VUXoBGLxXA4NNJxQbHGmpkm6GRcUh0SitX0GDBTAXQTE8Na4zV16BQbVaUzWFQ1g7vn+Zjn97JofhUO+8gZyvffU8MMr5uX9v2HDz85QUFePkayeqamFnbVFGJxnZZgjN//5RDP9kXZsHr0MZ53VJWy/r5aHHYVu82GYZoYuo7NZsPQddTUmNLMt2UqVrVXUdITH9JzYjOqkxlPGDYzNjku9SZfIJT0JJGM5482HjD52FS1TjcM7qwc2+Xo24FcihViCmttbWXLli20t7enx7MZhsHGjRvZsWPHhO/P/v372bZtWzpkgnVye/3112loaJjw/RE3NxCJ0nG1iwutHVzriXC1Z5D2a720doToHogTNSGhQ8IwQbdmNib0ofUPRVHRVBUTFZumYFfBpSrMKSmkpNBJeUkhpTM8FOY7mFdeQoXfl64+TQddvf1cav2KlvYgnaEBvuzsoT3UT2eom0hCJ5owiOo6akaCUc3hTYRVNMWGqipoGjjsCjMKnFTNLqZkRj4zC9z4ClzcGZhNhd835p5r7Ve7+fO7R/nHh2dImBrDx7xZl0qtKqCWiLDlu/fw0w3LKCrIPpkp20x8+VKWW6RiJ8QUVlxcjM/no7m5GVVV08tVHTt2jHA4PG4zd8fqwIEDKIoyZHWFysrKrKtkiKnB43YSqPQTqLQqZ4Zh0Ns3QGQwRtzAmvEaTdAfjRONJYgMxhmIxumPxDBME6ddw+Ww43TYcTvtuJ0abruG1+OgwG0nz+PCmz9+s+AnQ7E3j6WL5rJ0kdWipjfcT3ggQixhcq1ngKs9EXr6o8TiOtF4gmhcJxHXsdlU3E47LocNh91mHSe7hsuhUVqch9djx+Ny4M33fO3wNHtWEb/90VqKPC7+evAkMWPoZVGNBDYzgWoaxIxBmv79X1bXVbNsYVXWnychLvdJsBNiCkvNvhy+tNrFixc5e/bsLS9z9k2cPn16SP/D1KzpmpqaKTuDV4ykqipF3nyKvJO9J1OXtyAPb4HVnHvunEneGSDf4+JXP1xDRekM/rTnMOFB3ZrMYloTNmyp1k2qxtPfX8OSBfJ5vJ1JdBdiilu6dGl6KbXUpdh4PM7evXsndD/eeuutIY17UzNi6+vrv3EjaiHEjamqyuPfXsSOpxqYM8trNRBOxHG5PMSxY2ounn6inp+su1eqcrc5+e0LMcWtXbuWQGBkI9d33nmHc+fOTcg+NDU1sXv37vTt1DidxYsXs379+gnZByEErF5Uzs5fPMh9C2bjcjjp6ekhlojz44cWs/XhuyZ798QUIMFOiCnO7/ezbt26Efd3d3fT2Ng4ZDWH/4ePPvqIxsbGIWvQppp5b9q0SVrMCDHBFlb7+cPPH6Rh6Twcdjsbv1PHU48tx6aNz/q2YnqTWbFCTAMnT55k69attLW1jdi2efNmtm/fPu4ByzAM9u3bR2NjI+3t7SO2PfLII+zcuXPCJ3AIISy9fQN8cqaVu2rmMLNYPofCIsFOiGnitdde44UXXsi6bfXq1Tz55JOsXLkSr/ebjYqPxWKcOHGCpqYm9uzZw8DAwIjHLFu2jJdfflkmTQghxBQjwU6IaSIcDvPcc8+xa9cuYHhzVPB4PKxatYpVq1ZRV1dHVVUVPp/vphMbDMMgGAzS0tJCS0sLhw4d4oMPPiAYDGZ9/IIFC3jllVeorZ2cpaGEEEKMToKdENNIV1cXzz//PG+//faoS0GZponP56OsrAyfz4ff78fr9eJyufB4PDidTiKRCL29vUQiEUKhEJcvX6azs5POzs4bvn5DQwPbt2+XvnVCCDFFSbATYprp6+tj7969vPrqq7S2tqIoCtk+xoqioOt6uvWBoijpBscp9mFLGWXrSg9QVlbGtm3b2Lx5M263e5zeiRBCiPEmwU6IaaqtrY0333yTgwcPcv78+XS4UxQFTdPSy36lbmcLgKMFwtS/hQsXsn79ejZs2CBVOiGEmAYk2AkxzXV1dXHq1Cnee+89jh8/TigUIhwOEwwG0xW4VFDThrVDyGxkarfbKSkpobS0lJqaGurr61mxYgVFRbK4thBCTBcS7ITIIYZhcOXKFTo7O+no6KCjo4O+vj6i0SiDg4NEIhGi0ShOp5P8/HxcLhf5+fl4vV7Ky8upqKigurp6st+GEEKIr0mCnRBCCCFEjpCVJ4QQQgghcoQEOyGEEEKIHCHBTgghhBAiR0iwE0IIIYTIERLshBBCCCFyhAQ7IYQQQogcIcFOCCGEECJHSLATQgghhMgREuyEEEIIIXKEBDshhBBCiBwhwU4IIYQQIkf8D9msyNHMh/cVAAAAAElFTkSuQmCC;" parent="1" vertex="1">
          <mxGeometry x="20" y="429.99999999999994" width="220" height="180.19" as="geometry" />
        </mxCell>
        <mxCell id="tr5lUH_N2LBnqnq8ZZeH-17" style="edgeStyle=orthogonalEdgeStyle;rounded=0;orthogonalLoop=1;jettySize=auto;html=1;entryX=0;entryY=0.5;entryDx=0;entryDy=0;entryPerimeter=0;" parent="1" source="tr5lUH_N2LBnqnq8ZZeH-19" target="tr5lUH_N2LBnqnq8ZZeH-12" edge="1">
          <mxGeometry relative="1" as="geometry" />
        </mxCell>
        <mxCell id="tr5lUH_N2LBnqnq8ZZeH-18" value="Load" style="edgeLabel;html=1;align=center;verticalAlign=middle;resizable=0;points=[];" parent="tr5lUH_N2LBnqnq8ZZeH-17" vertex="1" connectable="0">
          <mxGeometry x="-0.2604" relative="1" as="geometry">
            <mxPoint as="offset" />
          </mxGeometry>
        </mxCell>
        <mxCell id="tr5lUH_N2LBnqnq8ZZeH-27" style="edgeStyle=orthogonalEdgeStyle;rounded=0;orthogonalLoop=1;jettySize=auto;html=1;entryX=0;entryY=0.5;entryDx=0;entryDy=0;entryPerimeter=0;exitX=0.5;exitY=0;exitDx=0;exitDy=0;exitPerimeter=0;" parent="1" source="tr5lUH_N2LBnqnq8ZZeH-19" target="tr5lUH_N2LBnqnq8ZZeH-13" edge="1">
          <mxGeometry relative="1" as="geometry" />
        </mxCell>
        <mxCell id="tr5lUH_N2LBnqnq8ZZeH-19" value="AWS Glue" style="sketch=0;points=[[0,0,0],[0.25,0,0],[0.5,0,0],[0.75,0,0],[1,0,0],[0,1,0],[0.25,1,0],[0.5,1,0],[0.75,1,0],[1,1,0],[0,0.25,0],[0,0.5,0],[0,0.75,0],[1,0.25,0],[1,0.5,0],[1,0.75,0]];outlineConnect=0;fontColor=#232F3E;gradientColor=#945DF2;gradientDirection=north;fillColor=#5A30B5;strokeColor=#ffffff;dashed=0;verticalLabelPosition=bottom;verticalAlign=top;align=center;html=1;fontSize=12;fontStyle=0;aspect=fixed;shape=mxgraph.aws4.resourceIcon;resIcon=mxgraph.aws4.glue;" parent="1" vertex="1">
          <mxGeometry x="440" y="481.1" width="78" height="78" as="geometry" />
        </mxCell>
        <mxCell id="tr5lUH_N2LBnqnq8ZZeH-25" value="It&#39;s the same Redshift db but different Schema" style="ellipse;shape=cloud;whiteSpace=wrap;html=1;fillColor=#d5e8d4;strokeColor=#82b366;fontSize=20;" parent="1" vertex="1">
          <mxGeometry x="950" y="-50" width="210" height="100" as="geometry" />
        </mxCell>
        <mxCell id="_G8PxZCd2-lCqW2oRsN_-5" value="&lt;h1&gt;BI Layer&lt;/h1&gt;" style="text;html=1;strokeColor=none;fillColor=none;spacing=5;spacingTop=-20;whiteSpace=wrap;overflow=hidden;rounded=0;" parent="1" vertex="1">
          <mxGeometry x="1761.042549019608" y="260.0037931034483" width="197.921568627451" height="37.241379310344826" as="geometry" />
        </mxCell>
        <mxCell id="tr5lUH_N2LBnqnq8ZZeH-4" value="" style="outlineConnect=0;dashed=0;verticalLabelPosition=bottom;verticalAlign=top;align=center;html=1;shape=mxgraph.aws3.cloud_2;fillColor=#F58534;gradientColor=none;" parent="1" vertex="1">
          <mxGeometry x="350.0041196225812" y="10.170000000000002" width="95.2102990564529" height="69.82758620689656" as="geometry" />
        </mxCell>
        <mxCell id="_G8PxZCd2-lCqW2oRsN_-8" value="" style="sketch=0;outlineConnect=0;fontColor=#232F3E;gradientColor=none;fillColor=#4D27AA;strokeColor=none;dashed=0;verticalLabelPosition=bottom;verticalAlign=top;align=center;html=1;fontSize=12;fontStyle=0;aspect=fixed;pointerEvents=1;shape=mxgraph.aws4.data_lake_resource_icon;" parent="1" vertex="1">
          <mxGeometry x="570" y="20" width="48" height="48" as="geometry" />
        </mxCell>
        <mxCell id="mZj4cqleQpQLTyZHLTft-2" value="" style="rounded=1;arcSize=10;dashed=1;strokeColor=#F59D56;fillColor=none;gradientColor=none;dashPattern=8 4;strokeWidth=2;" parent="1" vertex="1">
          <mxGeometry x="270" y="827.19" width="160" height="469.31" as="geometry" />
        </mxCell>
        <mxCell id="mZj4cqleQpQLTyZHLTft-3" value="&lt;h1&gt;&lt;font style=&quot;font-size: 18px;&quot;&gt;Data Sources&lt;/font&gt;&lt;font style=&quot;font-size: 24px&quot;&gt;&lt;br&gt;&lt;/font&gt;&lt;/h1&gt;&lt;div&gt;&lt;font size=&quot;3&quot;&gt;&lt;br&gt;&lt;/font&gt;&lt;/div&gt;" style="text;html=1;strokeColor=none;fillColor=none;spacing=5;spacingTop=-20;whiteSpace=wrap;overflow=hidden;rounded=0;" parent="1" vertex="1">
          <mxGeometry x="280" y="830" width="180" height="37.24" as="geometry" />
        </mxCell>
        <mxCell id="mZj4cqleQpQLTyZHLTft-4" value="" style="aspect=fixed;html=1;points=[];align=center;image;fontSize=12;image=img/lib/azure2/databases/Azure_Database_PostgreSQL_Server.svg;" parent="1" vertex="1">
          <mxGeometry x="333" y="917.19" width="37.5" height="50" as="geometry" />
        </mxCell>
        <mxCell id="mZj4cqleQpQLTyZHLTft-5" value="" style="sketch=0;outlineConnect=0;fontColor=#232F3E;gradientColor=none;fillColor=#2E27AD;strokeColor=none;dashed=0;verticalLabelPosition=bottom;verticalAlign=top;align=center;html=1;fontSize=12;fontStyle=0;aspect=fixed;pointerEvents=1;shape=mxgraph.aws4.rds_multi_az_db_cluster;" parent="1" vertex="1">
          <mxGeometry x="318" y="1022.85" width="54.34" height="54.34" as="geometry" />
        </mxCell>
        <mxCell id="mZj4cqleQpQLTyZHLTft-6" value="" style="sketch=0;points=[[0,0,0],[0.25,0,0],[0.5,0,0],[0.75,0,0],[1,0,0],[0,1,0],[0.25,1,0],[0.5,1,0],[0.75,1,0],[1,1,0],[0,0.25,0],[0,0.5,0],[0,0.75,0],[1,0.25,0],[1,0.5,0],[1,0.75,0]];outlineConnect=0;fontColor=#232F3E;gradientColor=#60A337;gradientDirection=north;fillColor=#277116;strokeColor=#ffffff;dashed=0;verticalLabelPosition=bottom;verticalAlign=top;align=center;html=1;fontSize=12;fontStyle=0;aspect=fixed;shape=mxgraph.aws4.resourceIcon;resIcon=mxgraph.aws4.s3;" parent="1" vertex="1">
          <mxGeometry x="322" y="1147.19" width="50" height="50" as="geometry" />
        </mxCell>
        <mxCell id="mZj4cqleQpQLTyZHLTft-7" value="" style="rounded=1;arcSize=10;dashed=1;strokeColor=#F59D56;fillColor=none;gradientColor=none;dashPattern=8 4;strokeWidth=2;" parent="1" vertex="1">
          <mxGeometry x="460" y="820" width="476" height="370" as="geometry" />
        </mxCell>
        <mxCell id="mZj4cqleQpQLTyZHLTft-8" value="&lt;h1&gt;&lt;font style=&quot;font-size: 14px;&quot;&gt;&lt;font style=&quot;font-size: 18px;&quot;&gt;Data Ingestion&lt;/font&gt;&lt;/font&gt;&lt;font style=&quot;font-size: 24px&quot;&gt;&lt;br&gt;&lt;/font&gt;&lt;/h1&gt;&lt;div&gt;&lt;font size=&quot;3&quot;&gt;&lt;br&gt;&lt;/font&gt;&lt;/div&gt;" style="text;html=1;strokeColor=none;fillColor=none;spacing=5;spacingTop=-20;whiteSpace=wrap;overflow=hidden;rounded=0;" parent="1" vertex="1">
          <mxGeometry x="464" y="830" width="172" height="40" as="geometry" />
        </mxCell>
        <mxCell id="mZj4cqleQpQLTyZHLTft-9" value="" style="rounded=1;arcSize=10;dashed=1;strokeColor=#F59D56;fillColor=none;gradientColor=none;dashPattern=8 4;strokeWidth=2;" parent="1" vertex="1">
          <mxGeometry x="478" y="870" width="438" height="140" as="geometry" />
        </mxCell>
        <mxCell id="mZj4cqleQpQLTyZHLTft-10" value="&lt;h1&gt;&lt;font style=&quot;font-size: 18px;&quot;&gt;Batch&lt;/font&gt;&lt;font style=&quot;font-size: 24px&quot;&gt;&lt;br&gt;&lt;/font&gt;&lt;/h1&gt;&lt;div&gt;&lt;font size=&quot;3&quot;&gt;&lt;br&gt;&lt;/font&gt;&lt;/div&gt;" style="text;html=1;strokeColor=none;fillColor=none;spacing=5;spacingTop=-20;whiteSpace=wrap;overflow=hidden;rounded=0;" parent="1" vertex="1">
          <mxGeometry x="650" y="861" width="130" height="40" as="geometry" />
        </mxCell>
        <mxCell id="mZj4cqleQpQLTyZHLTft-11" value="AWS Lambda" style="sketch=0;points=[[0,0,0],[0.25,0,0],[0.5,0,0],[0.75,0,0],[1,0,0],[0,1,0],[0.25,1,0],[0.5,1,0],[0.75,1,0],[1,1,0],[0,0.25,0],[0,0.5,0],[0,0.75,0],[1,0.25,0],[1,0.5,0],[1,0.75,0]];outlineConnect=0;fontColor=#232F3E;gradientColor=#F78E04;gradientDirection=north;fillColor=#D05C17;strokeColor=#ffffff;dashed=0;verticalLabelPosition=bottom;verticalAlign=top;align=center;html=1;fontSize=12;fontStyle=0;aspect=fixed;shape=mxgraph.aws4.resourceIcon;resIcon=mxgraph.aws4.lambda;" parent="1" vertex="1">
          <mxGeometry x="516" y="901" width="59" height="59" as="geometry" />
        </mxCell>
        <mxCell id="mZj4cqleQpQLTyZHLTft-12" value="AWS Glue" style="sketch=0;points=[[0,0,0],[0.25,0,0],[0.5,0,0],[0.75,0,0],[1,0,0],[0,1,0],[0.25,1,0],[0.5,1,0],[0.75,1,0],[1,1,0],[0,0.25,0],[0,0.5,0],[0,0.75,0],[1,0.25,0],[1,0.5,0],[1,0.75,0]];outlineConnect=0;fontColor=#232F3E;gradientColor=#945DF2;gradientDirection=north;fillColor=#5A30B5;strokeColor=#ffffff;dashed=0;verticalLabelPosition=bottom;verticalAlign=top;align=center;html=1;fontSize=12;fontStyle=0;aspect=fixed;shape=mxgraph.aws4.resourceIcon;resIcon=mxgraph.aws4.glue;" parent="1" vertex="1">
          <mxGeometry x="649" y="902" width="58" height="58" as="geometry" />
        </mxCell>
        <mxCell id="mZj4cqleQpQLTyZHLTft-13" value="&lt;font style=&quot;font-size: 12px;&quot;&gt;AWS EMR&lt;/font&gt;" style="outlineConnect=0;dashed=0;verticalLabelPosition=bottom;verticalAlign=top;align=center;html=1;shape=mxgraph.aws3.emr;fillColor=#F58534;gradientColor=none;fontSize=18;" parent="1" vertex="1">
          <mxGeometry x="796" y="894.5" width="54" height="65.5" as="geometry" />
        </mxCell>
        <mxCell id="mZj4cqleQpQLTyZHLTft-16" value="" style="rounded=1;arcSize=10;dashed=1;strokeColor=#F59D56;fillColor=none;gradientColor=none;dashPattern=8 4;strokeWidth=2;" parent="1" vertex="1">
          <mxGeometry x="474" y="1020" width="438" height="140" as="geometry" />
        </mxCell>
        <mxCell id="mZj4cqleQpQLTyZHLTft-17" value="&lt;div&gt;AWS Kinesis &lt;br&gt;&lt;/div&gt;&lt;div&gt;data stream&lt;/div&gt;" style="sketch=0;points=[[0,0,0],[0.25,0,0],[0.5,0,0],[0.75,0,0],[1,0,0],[0,1,0],[0.25,1,0],[0.5,1,0],[0.75,1,0],[1,1,0],[0,0.25,0],[0,0.5,0],[0,0.75,0],[1,0.25,0],[1,0.5,0],[1,0.75,0]];outlineConnect=0;fontColor=#232F3E;gradientColor=#945DF2;gradientDirection=north;fillColor=#5A30B5;strokeColor=#ffffff;dashed=0;verticalLabelPosition=bottom;verticalAlign=top;align=center;html=1;fontSize=12;fontStyle=0;aspect=fixed;shape=mxgraph.aws4.resourceIcon;resIcon=mxgraph.aws4.kinesis_data_streams;" parent="1" vertex="1">
          <mxGeometry x="506" y="1050" width="70" height="70" as="geometry" />
        </mxCell>
        <mxCell id="mZj4cqleQpQLTyZHLTft-18" value="&lt;div&gt;AWS Kinesis&lt;/div&gt;&lt;div&gt;Firehouse&lt;/div&gt;" style="sketch=0;points=[[0,0,0],[0.25,0,0],[0.5,0,0],[0.75,0,0],[1,0,0],[0,1,0],[0.25,1,0],[0.5,1,0],[0.75,1,0],[1,1,0],[0,0.25,0],[0,0.5,0],[0,0.75,0],[1,0.25,0],[1,0.5,0],[1,0.75,0]];outlineConnect=0;fontColor=#232F3E;gradientColor=#945DF2;gradientDirection=north;fillColor=#5A30B5;strokeColor=#ffffff;dashed=0;verticalLabelPosition=bottom;verticalAlign=top;align=center;html=1;fontSize=12;fontStyle=0;aspect=fixed;shape=mxgraph.aws4.resourceIcon;resIcon=mxgraph.aws4.kinesis_data_firehose;" parent="1" vertex="1">
          <mxGeometry x="705" y="1051" width="69" height="69" as="geometry" />
        </mxCell>
        <mxCell id="mZj4cqleQpQLTyZHLTft-19" value="&lt;div&gt;AWS Kinesis &lt;br&gt;&lt;/div&gt;&lt;div&gt;Data Analytics&lt;/div&gt;" style="sketch=0;points=[[0,0,0],[0.25,0,0],[0.5,0,0],[0.75,0,0],[1,0,0],[0,1,0],[0.25,1,0],[0.5,1,0],[0.75,1,0],[1,1,0],[0,0.25,0],[0,0.5,0],[0,0.75,0],[1,0.25,0],[1,0.5,0],[1,0.75,0]];outlineConnect=0;fontColor=#232F3E;gradientColor=#945DF2;gradientDirection=north;fillColor=#5A30B5;strokeColor=#ffffff;dashed=0;verticalLabelPosition=bottom;verticalAlign=top;align=center;html=1;fontSize=12;fontStyle=0;aspect=fixed;shape=mxgraph.aws4.resourceIcon;resIcon=mxgraph.aws4.kinesis_data_analytics;" parent="1" vertex="1">
          <mxGeometry x="606" y="1050" width="70" height="70" as="geometry" />
        </mxCell>
        <mxCell id="mZj4cqleQpQLTyZHLTft-20" value="AWS Kafka" style="sketch=0;points=[[0,0,0],[0.25,0,0],[0.5,0,0],[0.75,0,0],[1,0,0],[0,1,0],[0.25,1,0],[0.5,1,0],[0.75,1,0],[1,1,0],[0,0.25,0],[0,0.5,0],[0,0.75,0],[1,0.25,0],[1,0.5,0],[1,0.75,0]];outlineConnect=0;fontColor=#232F3E;gradientColor=#945DF2;gradientDirection=north;fillColor=#5A30B5;strokeColor=#ffffff;dashed=0;verticalLabelPosition=bottom;verticalAlign=top;align=center;html=1;fontSize=12;fontStyle=0;aspect=fixed;shape=mxgraph.aws4.resourceIcon;resIcon=mxgraph.aws4.managed_streaming_for_kafka;" parent="1" vertex="1">
          <mxGeometry x="816" y="1050" width="70" height="70" as="geometry" />
        </mxCell>
        <mxCell id="mZj4cqleQpQLTyZHLTft-22" value="&lt;h1&gt;&lt;font style=&quot;font-size: 18px;&quot;&gt;Streaming&lt;/font&gt;&lt;font style=&quot;font-size: 24px&quot;&gt;&lt;br&gt;&lt;/font&gt;&lt;/h1&gt;&lt;div&gt;&lt;font size=&quot;3&quot;&gt;&lt;br&gt;&lt;/font&gt;&lt;/div&gt;" style="text;html=1;strokeColor=none;fillColor=none;spacing=5;spacingTop=-20;whiteSpace=wrap;overflow=hidden;rounded=0;" parent="1" vertex="1">
          <mxGeometry x="650" y="1010" width="130" height="40" as="geometry" />
        </mxCell>
        <mxCell id="mZj4cqleQpQLTyZHLTft-23" value="" style="rounded=1;arcSize=10;dashed=1;strokeColor=#F59D56;fillColor=none;gradientColor=none;dashPattern=8 4;strokeWidth=2;" parent="1" vertex="1">
          <mxGeometry x="950" y="830" width="330" height="380" as="geometry" />
        </mxCell>
        <mxCell id="mZj4cqleQpQLTyZHLTft-24" value="&lt;h1&gt;&lt;font style=&quot;font-size: 14px;&quot;&gt;&lt;font style=&quot;font-size: 18px;&quot;&gt;Data Lake&lt;/font&gt;&lt;/font&gt;&lt;font style=&quot;font-size: 24px&quot;&gt;&lt;br&gt;&lt;/font&gt;&lt;/h1&gt;&lt;div&gt;&lt;font size=&quot;3&quot;&gt;&lt;br&gt;&lt;/font&gt;&lt;/div&gt;" style="text;html=1;strokeColor=none;fillColor=none;spacing=5;spacingTop=-20;whiteSpace=wrap;overflow=hidden;rounded=0;" parent="1" vertex="1">
          <mxGeometry x="969" y="840" width="172" height="40" as="geometry" />
        </mxCell>
        <mxCell id="mZj4cqleQpQLTyZHLTft-25" value="" style="rounded=1;arcSize=10;dashed=1;strokeColor=#F59D56;fillColor=none;gradientColor=none;dashPattern=8 4;strokeWidth=2;" parent="1" vertex="1">
          <mxGeometry x="960" y="880" width="310" height="180" as="geometry" />
        </mxCell>
        <mxCell id="mZj4cqleQpQLTyZHLTft-26" value="" style="rounded=1;arcSize=10;dashed=1;strokeColor=#F59D56;fillColor=none;gradientColor=none;dashPattern=8 4;strokeWidth=2;" parent="1" vertex="1">
          <mxGeometry x="960" y="1070" width="310" height="130" as="geometry" />
        </mxCell>
        <mxCell id="mZj4cqleQpQLTyZHLTft-27" value="&lt;h1&gt;&lt;font style=&quot;font-size: 14px;&quot;&gt;&lt;font style=&quot;font-size: 18px;&quot;&gt;AWS S3 Storage&lt;/font&gt;&lt;/font&gt;&lt;font style=&quot;font-size: 24px&quot;&gt;&lt;br&gt;&lt;/font&gt;&lt;/h1&gt;" style="text;html=1;strokeColor=none;fillColor=none;spacing=5;spacingTop=-20;whiteSpace=wrap;overflow=hidden;rounded=0;" parent="1" vertex="1">
          <mxGeometry x="1046" y="880" width="172" height="40" as="geometry" />
        </mxCell>
        <mxCell id="mZj4cqleQpQLTyZHLTft-28" value="" style="sketch=0;points=[[0,0,0],[0.25,0,0],[0.5,0,0],[0.75,0,0],[1,0,0],[0,1,0],[0.25,1,0],[0.5,1,0],[0.75,1,0],[1,1,0],[0,0.25,0],[0,0.5,0],[0,0.75,0],[1,0.25,0],[1,0.5,0],[1,0.75,0]];outlineConnect=0;fontColor=#232F3E;gradientColor=#60A337;gradientDirection=north;fillColor=#277116;strokeColor=#ffffff;dashed=0;verticalLabelPosition=bottom;verticalAlign=top;align=center;html=1;fontSize=12;fontStyle=0;aspect=fixed;shape=mxgraph.aws4.resourceIcon;resIcon=mxgraph.aws4.s3;" parent="1" vertex="1">
          <mxGeometry x="1041" y="920" width="50" height="50" as="geometry" />
        </mxCell>
        <mxCell id="mZj4cqleQpQLTyZHLTft-29" value="" style="sketch=0;points=[[0,0,0],[0.25,0,0],[0.5,0,0],[0.75,0,0],[1,0,0],[0,1,0],[0.25,1,0],[0.5,1,0],[0.75,1,0],[1,1,0],[0,0.25,0],[0,0.5,0],[0,0.75,0],[1,0.25,0],[1,0.5,0],[1,0.75,0]];outlineConnect=0;fontColor=#232F3E;gradientColor=#60A337;gradientDirection=north;fillColor=#277116;strokeColor=#ffffff;dashed=0;verticalLabelPosition=bottom;verticalAlign=top;align=center;html=1;fontSize=12;fontStyle=0;aspect=fixed;shape=mxgraph.aws4.resourceIcon;resIcon=mxgraph.aws4.s3;" parent="1" vertex="1">
          <mxGeometry x="1041" y="990" width="50" height="50" as="geometry" />
        </mxCell>
        <mxCell id="mZj4cqleQpQLTyZHLTft-30" value="&lt;h1&gt;&lt;font style=&quot;font-size: 14px;&quot;&gt;Raw Zone&lt;font style=&quot;font-size: 24px&quot;&gt;&lt;br&gt;&lt;/font&gt;&lt;/font&gt;&lt;/h1&gt;&lt;div&gt;&lt;font size=&quot;3&quot;&gt;&lt;br&gt;&lt;/font&gt;&lt;/div&gt;" style="text;html=1;strokeColor=none;fillColor=none;spacing=5;spacingTop=-20;whiteSpace=wrap;overflow=hidden;rounded=0;" parent="1" vertex="1">
          <mxGeometry x="1104" y="925" width="172" height="40" as="geometry" />
        </mxCell>
        <mxCell id="mZj4cqleQpQLTyZHLTft-32" value="&lt;h1&gt;&lt;font style=&quot;font-size: 14px;&quot;&gt;Processed Zone&lt;font style=&quot;font-size: 24px&quot;&gt;&lt;br&gt;&lt;/font&gt;&lt;/font&gt;&lt;/h1&gt;&lt;div&gt;&lt;font size=&quot;3&quot;&gt;&lt;br&gt;&lt;/font&gt;&lt;/div&gt;" style="text;html=1;strokeColor=none;fillColor=none;spacing=5;spacingTop=-20;whiteSpace=wrap;overflow=hidden;rounded=0;" parent="1" vertex="1">
          <mxGeometry x="1110" y="995" width="172" height="40" as="geometry" />
        </mxCell>
        <mxCell id="mZj4cqleQpQLTyZHLTft-37" value="" style="endArrow=classic;startArrow=classic;html=1;rounded=0;fontSize=14;" parent="1" edge="1">
          <mxGeometry width="50" height="50" relative="1" as="geometry">
            <mxPoint x="430" y="925" as="sourcePoint" />
            <mxPoint x="460" y="925" as="targetPoint" />
          </mxGeometry>
        </mxCell>
        <mxCell id="mZj4cqleQpQLTyZHLTft-38" value="Glue Crawler" style="sketch=0;outlineConnect=0;fontColor=#232F3E;gradientColor=none;fillColor=#4D27AA;strokeColor=none;dashed=0;verticalLabelPosition=bottom;verticalAlign=top;align=center;html=1;fontSize=12;fontStyle=0;aspect=fixed;pointerEvents=1;shape=mxgraph.aws4.glue_crawlers;" parent="1" vertex="1">
          <mxGeometry x="1041" y="1111" width="58" height="58" as="geometry" />
        </mxCell>
        <mxCell id="mZj4cqleQpQLTyZHLTft-39" value="Glue Catalog" style="sketch=0;outlineConnect=0;fontColor=#232F3E;gradientColor=none;fillColor=#4D27AA;strokeColor=none;dashed=0;verticalLabelPosition=bottom;verticalAlign=top;align=center;html=1;fontSize=12;fontStyle=0;aspect=fixed;pointerEvents=1;shape=mxgraph.aws4.glue_data_catalog;" parent="1" vertex="1">
          <mxGeometry x="1189.99" y="1115.5" width="45.23" height="49" as="geometry" />
        </mxCell>
        <mxCell id="YBHZFfMnEn_wv6MmMl7W-1" value="&lt;h1&gt;&lt;font style=&quot;font-size: 14px;&quot;&gt;Data Catalog&lt;/font&gt;&lt;font style=&quot;font-size: 24px&quot;&gt;&lt;br&gt;&lt;/font&gt;&lt;/h1&gt;" style="text;html=1;strokeColor=none;fillColor=none;spacing=5;spacingTop=-20;whiteSpace=wrap;overflow=hidden;rounded=0;" vertex="1" parent="1">
          <mxGeometry x="1080" y="1060" width="172" height="40" as="geometry" />
        </mxCell>
        <mxCell id="YBHZFfMnEn_wv6MmMl7W-2" value="" style="rounded=1;arcSize=10;dashed=1;strokeColor=#F59D56;fillColor=none;gradientColor=none;dashPattern=8 4;strokeWidth=2;" vertex="1" parent="1">
          <mxGeometry x="1300" y="835.66" width="300" height="180" as="geometry" />
        </mxCell>
        <mxCell id="YBHZFfMnEn_wv6MmMl7W-3" value="&lt;h1&gt;&lt;font style=&quot;font-size: 14px;&quot;&gt;External Trasformation &amp;amp; Business Rules&lt;font style=&quot;font-size: 24px&quot;&gt;&lt;br&gt;&lt;/font&gt;&lt;/font&gt;&lt;/h1&gt;&lt;div&gt;&lt;font size=&quot;3&quot;&gt;&lt;br&gt;&lt;/font&gt;&lt;/div&gt;" style="text;html=1;strokeColor=none;fillColor=none;spacing=5;spacingTop=-20;whiteSpace=wrap;overflow=hidden;rounded=0;" vertex="1" parent="1">
          <mxGeometry x="1310" y="840" width="300" height="40" as="geometry" />
        </mxCell>
        <mxCell id="YBHZFfMnEn_wv6MmMl7W-4" value="AWS Lambda" style="sketch=0;points=[[0,0,0],[0.25,0,0],[0.5,0,0],[0.75,0,0],[1,0,0],[0,1,0],[0.25,1,0],[0.5,1,0],[0.75,1,0],[1,1,0],[0,0.25,0],[0,0.5,0],[0,0.75,0],[1,0.25,0],[1,0.5,0],[1,0.75,0]];outlineConnect=0;fontColor=#232F3E;gradientColor=#F78E04;gradientDirection=north;fillColor=#D05C17;strokeColor=#ffffff;dashed=0;verticalLabelPosition=bottom;verticalAlign=top;align=center;html=1;fontSize=12;fontStyle=0;aspect=fixed;shape=mxgraph.aws4.resourceIcon;resIcon=mxgraph.aws4.lambda;" vertex="1" parent="1">
          <mxGeometry x="1320" y="896.16" width="59" height="59" as="geometry" />
        </mxCell>
        <mxCell id="YBHZFfMnEn_wv6MmMl7W-5" value="AWS Glue" style="sketch=0;points=[[0,0,0],[0.25,0,0],[0.5,0,0],[0.75,0,0],[1,0,0],[0,1,0],[0.25,1,0],[0.5,1,0],[0.75,1,0],[1,1,0],[0,0.25,0],[0,0.5,0],[0,0.75,0],[1,0.25,0],[1,0.5,0],[1,0.75,0]];outlineConnect=0;fontColor=#232F3E;gradientColor=#945DF2;gradientDirection=north;fillColor=#5A30B5;strokeColor=#ffffff;dashed=0;verticalLabelPosition=bottom;verticalAlign=top;align=center;html=1;fontSize=12;fontStyle=0;aspect=fixed;shape=mxgraph.aws4.resourceIcon;resIcon=mxgraph.aws4.glue;" vertex="1" parent="1">
          <mxGeometry x="1420" y="893.75" width="58" height="58" as="geometry" />
        </mxCell>
        <mxCell id="YBHZFfMnEn_wv6MmMl7W-6" value="&lt;font style=&quot;font-size: 12px;&quot;&gt;AWS EMR&lt;/font&gt;" style="outlineConnect=0;dashed=0;verticalLabelPosition=bottom;verticalAlign=top;align=center;html=1;shape=mxgraph.aws3.emr;fillColor=#F58534;gradientColor=none;fontSize=18;" vertex="1" parent="1">
          <mxGeometry x="1520" y="893.75" width="54" height="65.5" as="geometry" />
        </mxCell>
        <mxCell id="YBHZFfMnEn_wv6MmMl7W-7" value="" style="rounded=1;arcSize=10;dashed=1;strokeColor=#F59D56;fillColor=none;gradientColor=none;dashPattern=8 4;strokeWidth=2;" vertex="1" parent="1">
          <mxGeometry x="1310" y="1035" width="290" height="180" as="geometry" />
        </mxCell>
        <mxCell id="YBHZFfMnEn_wv6MmMl7W-8" value="&lt;h1&gt;&lt;font style=&quot;font-size: 14px;&quot;&gt;&lt;font style=&quot;font-size: 14px;&quot;&gt;&lt;font style=&quot;font-size: 24px&quot;&gt;&lt;font size=&quot;3&quot;&gt;Data Wharehouse&lt;/font&gt;&lt;br&gt;&lt;/font&gt;&lt;/font&gt;&lt;/font&gt;&lt;/h1&gt;" style="text;html=1;strokeColor=none;fillColor=none;spacing=5;spacingTop=-20;whiteSpace=wrap;overflow=hidden;rounded=0;" vertex="1" parent="1">
          <mxGeometry x="1315" y="1035" width="300" height="40" as="geometry" />
        </mxCell>
        <mxCell id="YBHZFfMnEn_wv6MmMl7W-9" value="AWS Redshift" style="outlineConnect=0;dashed=0;verticalLabelPosition=bottom;verticalAlign=top;align=center;html=1;shape=mxgraph.aws3.redshift;fillColor=#2E73B8;gradientColor=none;fontSize=14;" vertex="1" parent="1">
          <mxGeometry x="1430" y="1111" width="58.75" height="56" as="geometry" />
        </mxCell>
        <mxCell id="YBHZFfMnEn_wv6MmMl7W-10" value="" style="rounded=1;arcSize=10;dashed=1;strokeColor=#F59D56;fillColor=none;gradientColor=none;dashPattern=8 4;strokeWidth=2;" vertex="1" parent="1">
          <mxGeometry x="460" y="1215" width="470" height="115" as="geometry" />
        </mxCell>
        <mxCell id="YBHZFfMnEn_wv6MmMl7W-11" value="&lt;h1&gt;&lt;font style=&quot;font-size: 14px;&quot;&gt;&lt;font style=&quot;font-size: 14px;&quot;&gt;&lt;font style=&quot;font-size: 24px&quot;&gt;&lt;font size=&quot;3&quot;&gt;Data Pipelines Orchestration&lt;/font&gt;&lt;br&gt;&lt;/font&gt;&lt;/font&gt;&lt;/font&gt;&lt;/h1&gt;" style="text;html=1;strokeColor=none;fillColor=none;spacing=5;spacingTop=-20;whiteSpace=wrap;overflow=hidden;rounded=0;" vertex="1" parent="1">
          <mxGeometry x="464" y="1210" width="300" height="40" as="geometry" />
        </mxCell>
        <mxCell id="YBHZFfMnEn_wv6MmMl7W-12" value="Step Function" style="sketch=0;points=[[0,0,0],[0.25,0,0],[0.5,0,0],[0.75,0,0],[1,0,0],[0,1,0],[0.25,1,0],[0.5,1,0],[0.75,1,0],[1,1,0],[0,0.25,0],[0,0.5,0],[0,0.75,0],[1,0.25,0],[1,0.5,0],[1,0.75,0]];outlineConnect=0;fontColor=#232F3E;gradientColor=#FF4F8B;gradientDirection=north;fillColor=#BC1356;strokeColor=#ffffff;dashed=0;verticalLabelPosition=bottom;verticalAlign=top;align=center;html=1;fontSize=12;fontStyle=0;aspect=fixed;shape=mxgraph.aws4.resourceIcon;resIcon=mxgraph.aws4.step_functions;" vertex="1" parent="1">
          <mxGeometry x="779" y="1248.5" width="48" height="48" as="geometry" />
        </mxCell>
        <mxCell id="YBHZFfMnEn_wv6MmMl7W-13" value="AWS Airflow" style="sketch=0;points=[[0,0,0],[0.25,0,0],[0.5,0,0],[0.75,0,0],[1,0,0],[0,1,0],[0.25,1,0],[0.5,1,0],[0.75,1,0],[1,1,0],[0,0.25,0],[0,0.5,0],[0,0.75,0],[1,0.25,0],[1,0.5,0],[1,0.75,0]];outlineConnect=0;fontColor=#232F3E;gradientColor=#FF4F8B;gradientDirection=north;fillColor=#BC1356;strokeColor=#ffffff;dashed=0;verticalLabelPosition=bottom;verticalAlign=top;align=center;html=1;fontSize=12;fontStyle=0;aspect=fixed;shape=mxgraph.aws4.resourceIcon;resIcon=mxgraph.aws4.managed_workflows_for_apache_airflow;" vertex="1" parent="1">
          <mxGeometry x="672" y="1248.5" width="50" height="50" as="geometry" />
        </mxCell>
        <mxCell id="YBHZFfMnEn_wv6MmMl7W-14" value="Glue Workflow" style="sketch=0;points=[[0,0,0],[0.25,0,0],[0.5,0,0],[0.75,0,0],[1,0,0],[0,1,0],[0.25,1,0],[0.5,1,0],[0.75,1,0],[1,1,0],[0,0.25,0],[0,0.5,0],[0,0.75,0],[1,0.25,0],[1,0.5,0],[1,0.75,0]];outlineConnect=0;fontColor=#232F3E;gradientColor=#945DF2;gradientDirection=north;fillColor=#5A30B5;strokeColor=#ffffff;dashed=0;verticalLabelPosition=bottom;verticalAlign=top;align=center;html=1;fontSize=12;fontStyle=0;aspect=fixed;shape=mxgraph.aws4.resourceIcon;resIcon=mxgraph.aws4.glue;" vertex="1" parent="1">
          <mxGeometry x="540" y="1250" width="50" height="50" as="geometry" />
        </mxCell>
        <mxCell id="YBHZFfMnEn_wv6MmMl7W-15" value="" style="rounded=1;arcSize=10;dashed=1;strokeColor=#F59D56;fillColor=none;gradientColor=none;dashPattern=8 4;strokeWidth=2;" vertex="1" parent="1">
          <mxGeometry x="950" y="1220" width="650" height="110" as="geometry" />
        </mxCell>
        <mxCell id="YBHZFfMnEn_wv6MmMl7W-17" value="AWS QuickSight" style="sketch=0;points=[[0,0,0],[0.25,0,0],[0.5,0,0],[0.75,0,0],[1,0,0],[0,1,0],[0.25,1,0],[0.5,1,0],[0.75,1,0],[1,1,0],[0,0.25,0],[0,0.5,0],[0,0.75,0],[1,0.25,0],[1,0.5,0],[1,0.75,0]];outlineConnect=0;fontColor=#232F3E;gradientColor=#945DF2;gradientDirection=north;fillColor=#5A30B5;strokeColor=#ffffff;dashed=0;verticalLabelPosition=bottom;verticalAlign=top;align=center;html=1;fontSize=12;fontStyle=0;aspect=fixed;shape=mxgraph.aws4.resourceIcon;resIcon=mxgraph.aws4.quicksight;" vertex="1" parent="1">
          <mxGeometry x="1430" y="1238.5" width="60" height="60" as="geometry" />
        </mxCell>
        <mxCell id="YBHZFfMnEn_wv6MmMl7W-18" value="AWS Athena" style="sketch=0;points=[[0,0,0],[0.25,0,0],[0.5,0,0],[0.75,0,0],[1,0,0],[0,1,0],[0.25,1,0],[0.5,1,0],[0.75,1,0],[1,1,0],[0,0.25,0],[0,0.5,0],[0,0.75,0],[1,0.25,0],[1,0.5,0],[1,0.75,0]];outlineConnect=0;fontColor=#232F3E;gradientColor=#945DF2;gradientDirection=north;fillColor=#5A30B5;strokeColor=#ffffff;dashed=0;verticalLabelPosition=bottom;verticalAlign=top;align=center;html=1;fontSize=12;fontStyle=0;aspect=fixed;shape=mxgraph.aws4.resourceIcon;resIcon=mxgraph.aws4.athena;" vertex="1" parent="1">
          <mxGeometry x="1182.61" y="1240" width="60" height="60" as="geometry" />
        </mxCell>
        <mxCell id="YBHZFfMnEn_wv6MmMl7W-19" value="&lt;h1&gt;&lt;font style=&quot;font-size: 14px;&quot;&gt;&lt;font style=&quot;font-size: 14px;&quot;&gt;&lt;font style=&quot;font-size: 24px&quot;&gt;&lt;font size=&quot;3&quot;&gt;Data Analytics&lt;/font&gt;&lt;br&gt;&lt;/font&gt;&lt;/font&gt;&lt;/font&gt;&lt;/h1&gt;" style="text;html=1;strokeColor=none;fillColor=none;spacing=5;spacingTop=-20;whiteSpace=wrap;overflow=hidden;rounded=0;" vertex="1" parent="1">
          <mxGeometry x="960" y="1220" width="300" height="40" as="geometry" />
        </mxCell>
        <mxCell id="YBHZFfMnEn_wv6MmMl7W-20" value="" style="endArrow=classic;startArrow=classic;html=1;rounded=0;fontSize=14;" edge="1" parent="1">
          <mxGeometry width="50" height="50" relative="1" as="geometry">
            <mxPoint x="430" y="1075" as="sourcePoint" />
            <mxPoint x="470" y="1075" as="targetPoint" />
            <Array as="points">
              <mxPoint x="450" y="1075" />
            </Array>
          </mxGeometry>
        </mxCell>
        <mxCell id="YBHZFfMnEn_wv6MmMl7W-22" value="" style="endArrow=classic;startArrow=classic;html=1;rounded=0;fontSize=14;entryX=0;entryY=0.25;entryDx=0;entryDy=0;entryPerimeter=0;exitX=1.006;exitY=0.308;exitDx=0;exitDy=0;exitPerimeter=0;" edge="1" parent="1" source="mZj4cqleQpQLTyZHLTft-7" target="mZj4cqleQpQLTyZHLTft-28">
          <mxGeometry width="50" height="50" relative="1" as="geometry">
            <mxPoint x="916" y="930.5" as="sourcePoint" />
            <mxPoint x="976" y="930.5" as="targetPoint" />
          </mxGeometry>
        </mxCell>
        <mxCell id="YBHZFfMnEn_wv6MmMl7W-23" value="" style="endArrow=classic;startArrow=classic;html=1;rounded=0;fontSize=14;entryX=0;entryY=0.25;entryDx=0;entryDy=0;entryPerimeter=0;exitX=1;exitY=0.35;exitDx=0;exitDy=0;exitPerimeter=0;" edge="1" parent="1" source="mZj4cqleQpQLTyZHLTft-16">
          <mxGeometry width="50" height="50" relative="1" as="geometry">
            <mxPoint x="938.8559999999998" y="959.25" as="sourcePoint" />
            <mxPoint x="1041" y="957.79" as="targetPoint" />
          </mxGeometry>
        </mxCell>
        <mxCell id="YBHZFfMnEn_wv6MmMl7W-24" value="" style="endArrow=classic;startArrow=classic;html=1;rounded=0;fontSize=14;entryX=0.75;entryY=0;entryDx=0;entryDy=0;exitX=0.479;exitY=1;exitDx=0;exitDy=0;exitPerimeter=0;" edge="1" parent="1" source="mZj4cqleQpQLTyZHLTft-7" target="YBHZFfMnEn_wv6MmMl7W-11">
          <mxGeometry width="50" height="50" relative="1" as="geometry">
            <mxPoint x="370" y="1460" as="sourcePoint" />
            <mxPoint x="420" y="1410" as="targetPoint" />
          </mxGeometry>
        </mxCell>
        <mxCell id="YBHZFfMnEn_wv6MmMl7W-25" value="" style="endArrow=classic;html=1;rounded=0;fontSize=14;entryX=0.348;entryY=1;entryDx=0;entryDy=0;entryPerimeter=0;" edge="1" parent="1" source="mZj4cqleQpQLTyZHLTft-38" target="mZj4cqleQpQLTyZHLTft-25">
          <mxGeometry width="50" height="50" relative="1" as="geometry">
            <mxPoint x="690" y="1450" as="sourcePoint" />
            <mxPoint x="740" y="1400" as="targetPoint" />
          </mxGeometry>
        </mxCell>
        <mxCell id="YBHZFfMnEn_wv6MmMl7W-26" value="" style="endArrow=classic;html=1;rounded=0;fontSize=14;" edge="1" parent="1" source="mZj4cqleQpQLTyZHLTft-38" target="mZj4cqleQpQLTyZHLTft-39">
          <mxGeometry width="50" height="50" relative="1" as="geometry">
            <mxPoint x="810" y="1220" as="sourcePoint" />
            <mxPoint x="860" y="1170" as="targetPoint" />
          </mxGeometry>
        </mxCell>
        <mxCell id="YBHZFfMnEn_wv6MmMl7W-27" value="" style="endArrow=classic;html=1;rounded=0;fontSize=14;entryX=0;entryY=0.5;entryDx=0;entryDy=0;entryPerimeter=0;" edge="1" parent="1" source="mZj4cqleQpQLTyZHLTft-39" target="YBHZFfMnEn_wv6MmMl7W-9">
          <mxGeometry width="50" height="50" relative="1" as="geometry">
            <mxPoint x="790" y="1470" as="sourcePoint" />
            <mxPoint x="840" y="1420" as="targetPoint" />
          </mxGeometry>
        </mxCell>
        <mxCell id="YBHZFfMnEn_wv6MmMl7W-28" value="" style="endArrow=classic;startArrow=classic;html=1;rounded=0;fontSize=14;entryX=0;entryY=0.469;entryDx=0;entryDy=0;entryPerimeter=0;exitX=0.997;exitY=0.217;exitDx=0;exitDy=0;exitPerimeter=0;" edge="1" parent="1" source="mZj4cqleQpQLTyZHLTft-25" target="YBHZFfMnEn_wv6MmMl7W-2">
          <mxGeometry width="50" height="50" relative="1" as="geometry">
            <mxPoint x="810" y="1220" as="sourcePoint" />
            <mxPoint x="860" y="1170" as="targetPoint" />
          </mxGeometry>
        </mxCell>
        <mxCell id="YBHZFfMnEn_wv6MmMl7W-30" value="" style="endArrow=classic;startArrow=classic;html=1;rounded=0;fontSize=14;entryX=0;entryY=0.75;entryDx=0;entryDy=0;exitX=1;exitY=0.5;exitDx=0;exitDy=0;" edge="1" parent="1" source="mZj4cqleQpQLTyZHLTft-25" target="YBHZFfMnEn_wv6MmMl7W-2">
          <mxGeometry width="50" height="50" relative="1" as="geometry">
            <mxPoint x="810" y="1220" as="sourcePoint" />
            <mxPoint x="860" y="1170" as="targetPoint" />
          </mxGeometry>
        </mxCell>
        <mxCell id="YBHZFfMnEn_wv6MmMl7W-31" value="" style="endArrow=classic;html=1;rounded=0;fontSize=14;" edge="1" parent="1" source="YBHZFfMnEn_wv6MmMl7W-17" target="YBHZFfMnEn_wv6MmMl7W-9">
          <mxGeometry width="50" height="50" relative="1" as="geometry">
            <mxPoint x="810" y="1220" as="sourcePoint" />
            <mxPoint x="860" y="1170" as="targetPoint" />
          </mxGeometry>
        </mxCell>
        <mxCell id="YBHZFfMnEn_wv6MmMl7W-32" value="" style="endArrow=classic;html=1;rounded=0;fontSize=14;" edge="1" parent="1" source="YBHZFfMnEn_wv6MmMl7W-18" target="mZj4cqleQpQLTyZHLTft-39">
          <mxGeometry width="50" height="50" relative="1" as="geometry">
            <mxPoint x="810" y="1220" as="sourcePoint" />
            <mxPoint x="860" y="1170" as="targetPoint" />
          </mxGeometry>
        </mxCell>
        <mxCell id="YBHZFfMnEn_wv6MmMl7W-33" value="" style="endArrow=classic;html=1;rounded=0;fontSize=14;entryX=1;entryY=0.5;entryDx=0;entryDy=0;entryPerimeter=0;exitX=0;exitY=0.5;exitDx=0;exitDy=0;exitPerimeter=0;" edge="1" parent="1" source="YBHZFfMnEn_wv6MmMl7W-17" target="YBHZFfMnEn_wv6MmMl7W-18">
          <mxGeometry width="50" height="50" relative="1" as="geometry">
            <mxPoint x="810" y="1220" as="sourcePoint" />
            <mxPoint x="860" y="1170" as="targetPoint" />
          </mxGeometry>
        </mxCell>
      </root>
    </mxGraphModel>
  </diagram>
</mxfile>
